<svg width="140" height="28" viewBox="0 0 140 28" fill="none" xmlns="http://www.w3.org/2000/svg">
<path d="M8.30245 13.8946C8.27139 14.4356 8.45633 14.9668 8.81662 15.3715C9.17691 15.7761 9.68308 16.0212 10.2239 16.0528H10.3354C10.7337 16.0524 11.1232 15.9353 11.4557 15.716C11.7883 15.4967 12.0494 15.1849 12.2067 14.8189C12.3641 14.4529 12.411 14.0488 12.3414 13.6565C12.2719 13.2642 12.089 12.9009 11.8154 12.6114C11.5418 12.3218 11.1894 12.1188 10.8017 12.0272C10.4141 11.9357 10.0081 11.9597 9.63391 12.0963C9.25973 12.2329 8.93372 12.476 8.69612 12.7958C8.45852 13.1156 8.31973 13.4979 8.29688 13.8957L8.30245 13.8946Z" fill="white"/>
<path d="M0.695503 13.378C0.565472 13.3707 0.436201 13.4021 0.324028 13.4683C0.211856 13.5345 0.121815 13.6325 0.0652861 13.7498C0.00875709 13.8672 -0.0117233 13.9987 0.00643311 14.1277C0.0245895 14.2566 0.0805679 14.3774 0.167294 14.4745C0.25402 14.5717 0.367601 14.641 0.493683 14.6736C0.619765 14.7063 0.752688 14.7008 0.875655 14.6579C0.998623 14.615 1.10611 14.5366 1.18455 14.4326C1.26298 14.3286 1.30883 14.2037 1.3163 14.0736C1.32142 13.9871 1.3094 13.9005 1.28094 13.8186C1.25248 13.7368 1.20813 13.6614 1.15044 13.5968C1.09275 13.5321 1.02287 13.4795 0.944795 13.442C0.866722 13.4044 0.782002 13.3827 0.695503 13.378Z" fill="white"/>
<path d="M8.16434 2.05368C8.28015 1.9942 8.37578 1.90177 8.43919 1.78804C8.5026 1.67431 8.53096 1.54436 8.52069 1.41455C8.51042 1.28473 8.46198 1.16086 8.38148 1.05852C8.30098 0.95618 8.19201 0.879947 8.06829 0.839419C7.94457 0.79889 7.81162 0.795877 7.68619 0.830759C7.56076 0.865641 7.44845 0.936858 7.3634 1.03545C7.27834 1.13403 7.22435 1.25559 7.20821 1.3848C7.19208 1.51402 7.21452 1.64512 7.27271 1.7616C7.31183 1.83957 7.36599 1.90903 7.43207 1.96596C7.49815 2.0229 7.57484 2.06619 7.65772 2.09334C7.74061 2.12049 7.82805 2.13097 7.915 2.12416C8.00195 2.11735 8.08669 2.0934 8.16434 2.05368Z" fill="white"/>
<path d="M10.2431 5.66499C10.423 5.57425 10.5719 5.4322 10.6711 5.2568C10.7702 5.08141 10.8152 4.88055 10.8002 4.67961C10.7852 4.47867 10.7111 4.28668 10.587 4.12791C10.463 3.96913 10.2947 3.85071 10.1034 3.7876C9.91207 3.72449 9.70635 3.71953 9.51222 3.77335C9.31809 3.82717 9.14428 3.93735 9.01275 4.08996C8.88121 4.24258 8.79787 4.43077 8.77326 4.63076C8.74864 4.83074 8.78386 5.03353 8.87446 5.2135C8.93465 5.33307 9.01781 5.4396 9.11918 5.52701C9.22055 5.61442 9.33815 5.68099 9.46525 5.72292C9.59236 5.76485 9.72648 5.78131 9.85995 5.77137C9.99341 5.76144 10.1236 5.72529 10.2431 5.66499Z" fill="white"/>
<path d="M3.27657 8.14727C3.4153 8.23852 3.57797 8.28656 3.744 8.28531C3.91004 8.28407 4.07197 8.23358 4.20931 8.14026C4.34665 8.04693 4.45323 7.91495 4.51556 7.76102C4.57789 7.60709 4.59317 7.43812 4.55947 7.2755C4.52577 7.11288 4.4446 6.96392 4.32623 6.84745C4.20786 6.73099 4.05761 6.65226 3.8945 6.62123C3.73138 6.5902 3.56273 6.60826 3.40988 6.67313C3.25704 6.738 3.12686 6.84676 3.03583 6.98565C2.9139 7.17167 2.87077 7.39848 2.91591 7.61628C2.96105 7.83408 3.09076 8.02506 3.27657 8.14727Z" fill="white"/>
<path d="M4.51358 13.0065C4.31247 12.9952 4.11251 13.0437 3.93897 13.146C3.76543 13.2483 3.62611 13.3997 3.53862 13.5812C3.45112 13.7627 3.41938 13.9661 3.44741 14.1656C3.47544 14.3651 3.56197 14.5518 3.69607 14.7022C3.83018 14.8525 4.00583 14.9597 4.20083 15.0102C4.39584 15.0607 4.60143 15.0523 4.79163 14.9859C4.98183 14.9196 5.14809 14.7983 5.26941 14.6375C5.39072 14.4766 5.46164 14.2834 5.4732 14.0823C5.48842 13.8124 5.3959 13.5475 5.21596 13.3458C5.03603 13.144 4.78341 13.022 4.51358 13.0065Z" fill="white"/>
<path d="M3.39038 19.8559C3.24227 19.9307 3.11967 20.0479 3.03809 20.1924C2.95651 20.337 2.91961 20.5025 2.93205 20.668C2.94449 20.8335 3.00571 20.9916 3.10798 21.1224C3.21025 21.2531 3.34898 21.3506 3.50662 21.4025C3.66426 21.4543 3.83374 21.4583 3.99364 21.4139C4.15353 21.3694 4.29667 21.2786 4.40495 21.1528C4.51322 21.027 4.58179 20.8719 4.60196 20.7071C4.62214 20.5424 4.59302 20.3753 4.5183 20.2271C4.46865 20.1286 4.40008 20.0409 4.31651 19.9689C4.23294 19.8969 4.13601 19.8422 4.03126 19.8077C3.92651 19.7732 3.81599 19.7597 3.70603 19.768C3.59606 19.7763 3.4888 19.8061 3.39038 19.8559Z" fill="white"/>
<path d="M7.35483 10.901C7.5532 11.0311 7.78566 11.0994 8.02283 11.0972C8.25999 11.0951 8.49121 11.0227 8.68724 10.8892C8.88327 10.7557 9.03531 10.567 9.12414 10.347C9.21296 10.1271 9.23459 9.88569 9.18628 9.65344C9.13797 9.42118 9.02189 9.20847 8.85273 9.04219C8.68356 8.87592 8.4689 8.76355 8.23589 8.7193C8.00288 8.67504 7.76198 8.70089 7.54365 8.79357C7.32533 8.88626 7.13938 9.04161 7.00932 9.23999C6.9228 9.37169 6.8631 9.51917 6.83364 9.67399C6.80417 9.8288 6.80553 9.98791 6.83762 10.1422C6.86971 10.2965 6.93191 10.4429 7.02066 10.5731C7.10941 10.7034 7.22297 10.8148 7.35483 10.901Z" fill="white"/>
<path d="M19.9084 5.58338C20.0773 5.69358 20.2751 5.75122 20.4767 5.74901C20.6784 5.7468 20.8748 5.68485 21.0413 5.57098C21.2077 5.45711 21.3367 5.29643 21.4118 5.10927C21.487 4.9221 21.505 4.71685 21.4636 4.51945C21.4222 4.32204 21.3231 4.14136 21.1791 4.00024C21.035 3.85911 20.8523 3.76388 20.6541 3.72658C20.456 3.68928 20.2512 3.71158 20.0657 3.79067C19.8802 3.86977 19.7223 4.00209 19.6119 4.17093C19.5385 4.28308 19.4878 4.40863 19.463 4.54038C19.4381 4.67213 19.4395 4.80749 19.467 4.93871C19.4946 5.06992 19.5478 5.19441 19.6235 5.30504C19.6992 5.41567 19.796 5.51026 19.9084 5.58338Z" fill="white"/>
<path d="M22.0012 1.98535C22.1104 2.05693 22.2383 2.09451 22.3689 2.09334C22.4994 2.09216 22.6266 2.05229 22.7345 1.97876C22.8424 1.90523 22.926 1.80135 22.9748 1.68026C23.0237 1.55918 23.0355 1.42632 23.0088 1.29851C22.9821 1.17071 22.9182 1.05368 22.825 0.962255C22.7318 0.870827 22.6136 0.8091 22.4853 0.784886C22.357 0.760672 22.2245 0.775059 22.1044 0.826225C21.9843 0.877392 21.8821 0.963039 21.8106 1.07233C21.715 1.21872 21.6813 1.3971 21.7171 1.56829C21.7528 1.73948 21.855 1.88948 22.0012 1.98535Z" fill="white"/>
<path d="M20.0713 11.9526C19.8038 11.9372 19.5359 11.9747 19.2829 12.0629C19.0299 12.151 18.7968 12.2882 18.5967 12.4665C18.1928 12.8266 17.9485 13.3325 17.9174 13.8728C17.8864 14.4132 18.0712 14.9437 18.4312 15.3477C18.7913 15.7517 19.297 15.9961 19.8372 16.0272C19.8762 16.0272 19.9164 16.0272 19.9554 16.0272C20.3489 16.027 20.7339 15.9129 21.0641 15.6988C21.3943 15.4846 21.6555 15.1795 21.8162 14.8202C21.9769 14.4609 22.0302 14.0628 21.9698 13.6738C21.9094 13.2849 21.7377 12.9217 21.4756 12.6281C21.2981 12.4279 21.0825 12.2651 20.8414 12.1491C20.6003 12.0331 20.3385 11.9663 20.0713 11.9526Z" fill="white"/>
<path d="M10.9114 10.7581C11.0807 11.0964 11.3411 11.3808 11.6633 11.5791C11.9854 11.7775 12.3565 11.8819 12.7348 11.8807C13.0835 11.8808 13.4265 11.7915 13.7309 11.6213C14.0354 11.4511 14.2911 11.2057 14.4737 10.9085C14.6564 10.6113 14.7598 10.2723 14.7742 9.92374C14.7886 9.5752 14.7135 9.22879 14.556 8.91756C14.3854 8.58075 14.1246 8.29807 13.8025 8.10118C13.4805 7.90428 13.11 7.80095 12.7326 7.80276C12.3849 7.80335 12.0431 7.89278 11.7397 8.06257C11.4363 8.23236 11.1812 8.47688 10.9988 8.77293C10.8164 9.06897 10.7126 9.40673 10.6973 9.75416C10.682 10.1016 10.7557 10.4472 10.9114 10.7581Z" fill="white"/>
<path d="M26.9049 8.14454C27.053 8.06976 27.1757 7.95274 27.2573 7.80826C27.339 7.66378 27.376 7.49832 27.3637 7.33281C27.3514 7.16729 27.2903 7.00914 27.1881 6.87835C27.086 6.74755 26.9474 6.64998 26.7898 6.59796C26.6322 6.54594 26.4628 6.54181 26.3028 6.58609C26.1429 6.63038 25.9997 6.72108 25.8913 6.84675C25.7829 6.97242 25.7142 7.12741 25.6938 7.29213C25.6735 7.45685 25.7024 7.62391 25.7769 7.77219C25.8772 7.97108 26.0524 8.12201 26.2639 8.19182C26.4754 8.26164 26.7059 8.24463 26.9049 8.14454Z" fill="white"/>
<path d="M21.7379 8.7946C21.5261 8.90132 21.3507 9.06847 21.2338 9.27492C21.1169 9.48137 21.0639 9.71784 21.0814 9.95444C21.0989 10.191 21.1862 10.4171 21.3321 10.6041C21.4781 10.7911 21.6762 10.9306 21.9014 11.005C22.1267 11.0794 22.3689 11.0853 22.5975 11.0219C22.8261 10.9586 23.0307 10.8289 23.1856 10.6492C23.3405 10.4695 23.4387 10.248 23.4676 10.0125C23.4966 9.77702 23.4551 9.53825 23.3484 9.32636C23.2777 9.18557 23.1799 9.06011 23.0607 8.95717C22.9414 8.85422 22.803 8.77581 22.6534 8.72642C22.5039 8.67703 22.346 8.65762 22.1889 8.66932C22.0318 8.68102 21.8786 8.7236 21.7379 8.7946Z" fill="white"/>
<path d="M15.0728 1.67753C15.2385 1.68698 15.4034 1.64704 15.5464 1.56277C15.6895 1.4785 15.8043 1.35368 15.8764 1.20412C15.9485 1.05455 15.9747 0.886945 15.9516 0.722509C15.9284 0.558073 15.8571 0.404192 15.7465 0.28033C15.6359 0.156469 15.4911 0.0681932 15.3304 0.0266693C15.1696 -0.0148547 15.0002 -0.00776101 14.8435 0.047053C14.6868 0.101867 14.5498 0.201938 14.45 0.334609C14.3501 0.467279 14.2919 0.626587 14.2826 0.792381C14.2701 1.01455 14.3463 1.23258 14.4945 1.39856C14.6427 1.56454 14.8507 1.66488 15.0728 1.67753Z" fill="white"/>
<path d="M15.0617 6.95967C15.2985 6.97295 15.5339 6.91573 15.7381 6.79524C15.9423 6.67475 16.1063 6.49641 16.2092 6.28275C16.3122 6.06908 16.3495 5.8297 16.3164 5.59484C16.2834 5.35998 16.1814 5.14019 16.0235 4.96325C15.8656 4.78631 15.6589 4.66016 15.4293 4.60075C15.1997 4.54133 14.9577 4.55132 14.7338 4.62945C14.5099 4.70758 14.3142 4.85034 14.1715 5.03968C14.0287 5.22903 13.9452 5.45647 13.9316 5.69326C13.9137 6.01108 14.0226 6.32302 14.2345 6.5605C14.4465 6.79798 14.744 6.94156 15.0617 6.95967Z" fill="white"/>
<path d="M8.55945 19.2052C8.77126 19.0984 8.94664 18.9311 9.06342 18.7246C9.1802 18.5181 9.23312 18.2816 9.21549 18.045C9.19786 17.8084 9.11048 17.5823 8.96439 17.3954C8.8183 17.2084 8.62007 17.069 8.39477 16.9948C8.16947 16.9206 7.92722 16.9148 7.69866 16.9783C7.4701 17.0418 7.2655 17.1717 7.11073 17.3515C6.95597 17.5313 6.85799 17.7529 6.82919 17.9885C6.80039 18.224 6.84206 18.4627 6.94893 18.6746C7.0922 18.9585 7.34234 19.1739 7.64435 19.2734C7.94636 19.3729 8.27552 19.3484 8.55945 19.2052Z" fill="white"/>
<path d="M15.8336 8.711C15.5849 9.09067 15.4699 9.54246 15.5067 9.99487C15.5436 10.4473 15.7303 10.8745 16.0372 11.2088C16.3441 11.5432 16.7537 11.7657 17.2012 11.841C17.6487 11.9163 18.1086 11.8401 18.508 11.6246C18.9074 11.4091 19.2235 11.0665 19.4064 10.6511C19.5892 10.2357 19.6283 9.77108 19.5175 9.33091C19.4066 8.89074 19.1522 8.50012 18.7944 8.22085C18.4367 7.94159 17.996 7.78965 17.5422 7.78906C17.2033 7.78883 16.8697 7.87298 16.5714 8.03393C16.2731 8.19488 16.0196 8.42757 15.8336 8.711Z" fill="white"/>
<path d="M19.3764 17.2426C19.213 16.9185 18.9661 16.6438 18.6611 16.447C18.3562 16.2502 18.0043 16.1383 17.6417 16.1229C17.2791 16.1075 16.919 16.1892 16.5985 16.3595C16.278 16.5298 16.0087 16.7825 15.8184 17.0916C15.6281 17.4007 15.5238 17.755 15.5161 18.1179C15.5084 18.4808 15.5976 18.8392 15.7746 19.1561C15.9516 19.4731 16.21 19.737 16.523 19.9207C16.836 20.1044 17.1923 20.2013 17.5552 20.2013C17.8745 20.1991 18.1889 20.1227 18.4736 19.9783C18.9552 19.7345 19.3206 19.3097 19.4898 18.7969C19.659 18.2842 19.6182 17.7253 19.3764 17.2426Z" fill="white"/>
<path d="M22.9433 17.0991C22.745 16.9689 22.5126 16.9005 22.2754 16.9024C22.0382 16.9043 21.807 16.9765 21.6108 17.11C21.4147 17.2434 21.2625 17.4319 21.1735 17.6519C21.0845 17.8718 21.0628 18.1131 21.1109 18.3454C21.1591 18.5778 21.275 18.7905 21.4441 18.9569C21.6132 19.1233 21.8278 19.2358 22.0608 19.2802C22.2938 19.3246 22.5347 19.2989 22.7531 19.2063C22.9715 19.1138 23.1575 18.9585 23.2877 18.7602C23.4617 18.494 23.5231 18.1698 23.4585 17.8585C23.394 17.5471 23.2087 17.2741 22.9433 17.0991Z" fill="white"/>
<path d="M26.8483 14.0343C26.8596 13.8332 26.8111 13.6332 26.7088 13.4596C26.6065 13.286 26.4551 13.1467 26.2737 13.0591C26.0922 12.9716 25.8889 12.9399 25.6895 12.9679C25.49 12.996 25.3033 13.0825 25.153 13.2166C25.0027 13.3508 24.8955 13.5265 24.845 13.7215C24.7945 13.9166 24.803 14.1222 24.8693 14.3125C24.9356 14.5027 25.0569 14.669 25.2177 14.7903C25.3785 14.9117 25.5716 14.9826 25.7727 14.9942C26.0426 15.0094 26.3074 14.9169 26.5091 14.7369C26.7107 14.5569 26.8327 14.3042 26.8483 14.0343Z" fill="white"/>
<path d="M29.6743 13.3087C29.544 13.3012 29.4144 13.3325 29.3019 13.3987C29.1894 13.4648 29.0991 13.5629 29.0423 13.6804C28.9855 13.7979 28.9649 13.9297 28.9829 14.0589C29.001 14.1882 29.057 14.3092 29.1438 14.4067C29.2306 14.5041 29.3444 14.5736 29.4707 14.6064C29.597 14.6392 29.7302 14.6337 29.8535 14.5908C29.9767 14.5479 30.0844 14.4693 30.163 14.3651C30.2416 14.2609 30.2876 14.1358 30.2951 14.0055C30.3048 13.8308 30.245 13.6594 30.1286 13.5288C30.0122 13.3982 29.8489 13.3191 29.6743 13.3087Z" fill="white"/>
<path d="M27.0178 19.853C26.879 19.7621 26.7163 19.7143 26.5504 19.7159C26.3844 19.7174 26.2226 19.768 26.0855 19.8615C25.9483 19.955 25.842 20.087 25.7798 20.2409C25.7177 20.3948 25.7025 20.5637 25.7363 20.7263C25.7701 20.8888 25.8514 21.0376 25.9697 21.154C26.0881 21.2703 26.2383 21.349 26.4013 21.38C26.5644 21.4109 26.7329 21.3929 26.8857 21.3281C27.0385 21.2632 27.1686 21.1546 27.2597 21.0158C27.3202 20.9236 27.3619 20.8203 27.3825 20.712C27.4031 20.6036 27.4021 20.4923 27.3797 20.3843C27.3572 20.2763 27.3137 20.1738 27.2516 20.0826C27.1895 19.9915 27.1101 19.9135 27.0178 19.853Z" fill="white"/>
<path d="M8.29523 26.0144C8.18614 25.9428 8.05827 25.9052 7.92779 25.9063C7.79731 25.9074 7.67008 25.9471 7.56219 26.0205C7.45429 26.0939 7.37058 26.1976 7.32163 26.3186C7.27268 26.4396 7.26069 26.5724 7.28718 26.7002C7.31366 26.828 7.37744 26.9451 7.47044 27.0366C7.56344 27.1281 7.68149 27.1901 7.80967 27.2145C7.93784 27.2389 8.07038 27.2248 8.19053 27.1739C8.31069 27.123 8.41306 27.0377 8.4847 26.9286C8.53229 26.8561 8.56514 26.775 8.58138 26.6898C8.59761 26.6047 8.59691 26.5171 8.57932 26.4322C8.56172 26.3473 8.52758 26.2668 8.47883 26.1951C8.43009 26.1234 8.3677 26.062 8.29523 26.0144Z" fill="white"/>
<path d="M22.1207 25.946C22.0041 26.0048 21.9076 26.0968 21.8433 26.2104C21.7791 26.324 21.7499 26.4541 21.7596 26.5843C21.7693 26.7145 21.8174 26.8389 21.8977 26.9417C21.9781 27.0446 22.0872 27.1213 22.2111 27.1621C22.3351 27.203 22.4683 27.2062 22.5941 27.1713C22.7198 27.1364 22.8324 27.0649 22.9176 26.966C23.0027 26.8671 23.0567 26.7451 23.0725 26.6156C23.0884 26.486 23.0655 26.3546 23.0067 26.2381C22.9678 26.1606 22.914 26.0916 22.8484 26.035C22.7828 25.9784 22.7066 25.9352 22.6243 25.9081C22.542 25.881 22.4551 25.8704 22.3687 25.8769C22.2823 25.8834 22.198 25.9069 22.1207 25.946Z" fill="white"/>
<path d="M14.4565 19.2862C14.7053 18.9065 14.8203 18.4546 14.7834 18.0022C14.7465 17.5497 14.5598 17.1225 14.2528 16.7881C13.9458 16.4538 13.5361 16.2314 13.0885 16.1561C12.6409 16.0809 12.1811 16.1572 11.7817 16.3728C11.3823 16.5884 11.0662 16.9312 10.8835 17.3467C10.7008 17.7623 10.6619 18.2269 10.7729 18.6671C10.8839 19.1072 11.1386 19.4978 11.4965 19.7769C11.8544 20.056 12.2952 20.2078 12.749 20.2081C13.088 20.2093 13.4218 20.1255 13.7201 19.9645C14.0183 19.8034 14.2715 19.5702 14.4565 19.2862Z" fill="white"/>
<path d="M10.3811 22.4172C10.2125 22.3069 10.015 22.2491 9.81359 22.251C9.61217 22.253 9.41584 22.3146 9.24942 22.4281C9.083 22.5416 8.95396 22.7019 8.87862 22.8888C8.80328 23.0757 8.78502 23.2807 8.82614 23.4779C8.86726 23.6751 8.96592 23.8558 9.10965 23.9969C9.25338 24.1381 9.43572 24.2335 9.63363 24.271C9.83154 24.3085 10.0361 24.2865 10.2215 24.2078C10.407 24.129 10.5649 23.9971 10.6753 23.8286C10.8232 23.6023 10.8753 23.3266 10.8202 23.062C10.765 22.7974 10.6071 22.5655 10.3811 22.4172Z" fill="white"/>
<path d="M15.1369 26.3226C14.9712 26.3132 14.8064 26.3531 14.6634 26.4374C14.5204 26.5216 14.4056 26.6464 14.3334 26.7959C14.2613 26.9454 14.2351 27.1129 14.2581 27.2773C14.2812 27.4417 14.3524 27.5956 14.4629 27.7195C14.5734 27.8434 14.7181 27.9317 14.8787 27.9733C15.0394 28.015 15.2088 28.008 15.3655 27.9534C15.5222 27.8988 15.6592 27.7989 15.7592 27.6663C15.8592 27.5338 15.9176 27.3746 15.9271 27.2089C15.9334 27.0988 15.918 26.9885 15.8817 26.8844C15.8454 26.7803 15.789 26.6843 15.7156 26.602C15.6422 26.5197 15.5533 26.4527 15.454 26.4047C15.3547 26.3568 15.247 26.3289 15.1369 26.3226Z" fill="white"/>
<path d="M15.1392 21.0403C14.9022 21.0259 14.6663 21.0822 14.4614 21.202C14.2564 21.3218 14.0916 21.4997 13.9878 21.7133C13.8841 21.9268 13.846 22.1664 13.8784 22.4016C13.9109 22.6368 14.0124 22.8571 14.1702 23.0346C14.3279 23.212 14.5347 23.3387 14.7645 23.3985C14.9942 23.4583 15.2365 23.4485 15.4607 23.3705C15.6849 23.2924 15.8809 23.1495 16.0238 22.96C16.1668 22.7704 16.2503 22.5427 16.2638 22.3056C16.282 21.9887 16.1739 21.6775 15.9631 21.4403C15.7522 21.2031 15.4559 21.0593 15.1392 21.0403Z" fill="white"/>
<path d="M20.0584 22.3358C19.8784 22.4271 19.7296 22.5698 19.6307 22.7458C19.5319 22.9217 19.4874 23.1231 19.5031 23.3243C19.5187 23.5256 19.5936 23.7177 19.7184 23.8763C19.8432 24.0349 20.0123 24.1529 20.2042 24.2154C20.3961 24.2779 20.6022 24.282 20.7964 24.2272C20.9907 24.1725 21.1643 24.0613 21.2953 23.9078C21.4264 23.7543 21.509 23.5654 21.5326 23.3649C21.5562 23.1644 21.5199 22.9615 21.4281 22.7817C21.3676 22.6624 21.2841 22.5561 21.1824 22.4691C21.0808 22.3821 20.9629 22.316 20.8357 22.2746C20.7085 22.2332 20.5743 22.2172 20.4409 22.2277C20.3076 22.2382 20.1775 22.275 20.0584 22.3358Z" fill="white"/>
<path d="M42.5579 9.18018C44.5329 9.18018 45.916 10.266 45.916 12.2816H48.5029C48.5029 8.74541 45.896 7.04199 42.5189 7.04199C38.3706 7.04199 35.9609 9.29501 35.9609 14.0563C35.9609 18.9358 38.3706 21.0695 42.5189 21.0695C45.9361 21.0695 48.5029 19.4107 48.5029 15.8735H46.0141C46.0141 17.8489 44.651 18.9358 42.559 18.9358C39.8128 18.9358 38.5467 17.4141 38.5467 14.2536V13.859C38.5489 10.7599 39.8317 9.18018 42.5579 9.18018Z" fill="white"/>
<path d="M55.3443 7.2832L50.0703 20.837H52.6783L53.7639 17.8928H59.9619L61.0764 20.837H63.8026L58.5252 7.2832H55.3443ZM54.5541 15.7557L55.9373 12.0401C56.2137 11.3099 56.7074 9.72908 56.8066 9.45261H56.9047C57.0039 9.72908 57.4976 11.3288 57.774 12.0401L59.1561 15.7546L54.5541 15.7557Z" fill="white"/>
<path d="M77.9037 11.3924C77.9037 8.88406 76.4615 7.2832 73.479 7.2832H66.3281V20.837H68.857V15.5974H73.0633L75.6267 20.837H78.3919L75.4941 15.2061C77.0935 14.574 77.9037 13.2307 77.9037 11.3924ZM73.2806 13.467H68.857V9.437H73.2806C74.6437 9.437 75.3548 10.1683 75.3548 11.3924C75.3548 12.6777 74.5846 13.467 73.2806 13.467Z" fill="white"/>
<path d="M86.7738 7.2832H81.3594V20.837H86.7716C90.8597 20.837 93.3474 18.7032 93.3474 14.0601C93.3474 9.41693 90.862 7.2832 86.7738 7.2832ZM90.7639 14.2574C90.7438 17.2217 89.3417 18.6832 86.7738 18.6832H83.8905V9.437H86.7738C89.3373 9.437 90.7639 10.8996 90.7639 13.8628V14.2574Z" fill="white"/>
<path d="M99.9716 7.2832L94.6953 20.837H97.3022L98.3889 17.8928H104.591L105.697 20.837H108.423L103.149 7.2832H99.9716ZM99.1813 15.7557L100.562 12.0401C100.839 11.3099 101.332 9.72908 101.432 9.45261H101.532C101.63 9.72908 102.125 11.3288 102.401 12.0401L103.783 15.7546L99.1813 15.7557Z" fill="white"/>
<path d="M119.98 15.3443C119.98 15.6007 120.019 16.2919 120.019 16.4112L119.921 16.4502C119.862 16.3722 119.466 15.6799 119.252 15.3644L113.366 7.2832H110.953V20.837H113.383V12.7167C113.383 12.3823 113.343 11.729 113.343 11.6298L113.442 11.5707C113.501 11.6499 113.797 12.2229 114.111 12.6777L120.037 20.837H122.406V7.2832H119.978V15.3443H119.98Z" fill="white"/>
<path d="M132.486 7.0459C128.24 7.0459 125.672 9.2978 125.672 14.0591C125.672 18.8204 128.235 21.0723 132.486 21.0723C136.737 21.0723 139.321 18.8204 139.321 14.0591C139.321 9.2978 136.733 7.0459 132.486 7.0459ZM136.733 14.2765C136.733 17.3779 135.251 18.9386 132.486 18.9386C129.741 18.9386 128.26 17.3779 128.26 14.2765V13.8618C128.26 10.7593 129.761 9.17963 132.486 9.17963C135.232 9.17963 136.733 10.7593 136.733 13.8618V14.2765Z" fill="white"/>
</svg>
