<svg width="239" height="41" viewBox="0 0 239 41" fill="none" xmlns="http://www.w3.org/2000/svg">
<path d="M35.1201 24.5126C34.405 24.9496 33.5707 25.0291 32.9351 24.6715C32.1405 24.1948 31.6638 23.1221 31.6638 21.6521V17.1628C31.6638 15.0174 30.8295 13.468 29.3992 13.0707C26.9758 12.3556 25.1483 15.3353 24.4729 16.4477L20.1822 23.3207V14.8585C20.1424 12.9118 19.5068 11.7597 18.3149 11.4021C17.5203 11.1638 16.3285 11.283 15.1764 13.031L5.60174 28.3663C4.33043 25.9428 3.65504 23.2413 3.65504 20.5C3.65504 11.2432 11.0843 3.73449 20.1822 3.73449C29.28 3.73449 36.7093 11.2432 36.7093 20.5V20.5397V20.5795C36.7888 22.3673 36.2326 23.7975 35.1201 24.5126ZM40.3643 20.5V20.4603V20.4205C40.3246 9.17732 31.2665 0 20.1822 0C9.05814 0 0 9.17733 0 20.5C0 31.7829 9.05814 41 20.1822 41C25.3072 41 30.1541 39.0533 33.8886 35.5174C34.6434 34.8023 34.6831 33.6502 33.968 32.8954C33.2926 32.1405 32.1405 32.1008 31.3857 32.7762C31.3857 32.7762 31.3857 32.7762 31.3459 32.8159C28.3265 35.6764 24.2742 37.3052 20.1027 37.3052C15.2161 37.3052 10.8459 35.1599 7.82655 31.7432L16.4477 17.9176V24.314C16.4477 27.3731 17.6395 28.3663 18.6327 28.6444C19.626 28.9225 21.1357 28.7238 22.7645 26.1415L27.4922 18.4738C27.6512 18.2355 27.7703 17.9971 27.9293 17.8382V21.7316C27.9293 24.5921 29.0814 26.8963 31.0678 28.0087C32.8556 29.0417 35.1202 28.9225 36.9874 27.7703C39.2917 26.2607 40.5233 23.6386 40.3643 20.5ZM68.4922 13.5078C68.969 13.7859 69.406 14.4612 69.406 15.0572C69.406 16.0107 68.6114 16.8052 67.6977 16.8052C67.4593 16.8052 67.2607 16.7258 67.062 16.686C65.9893 15.8915 64.6386 15.375 63.2083 15.375C59.8314 15.375 57.5271 18.1163 57.5271 21.5329C57.5271 24.9496 59.8711 27.6512 63.2083 27.6512C64.8769 27.6512 66.3866 26.9758 67.499 25.9031C67.7771 25.7045 68.1347 25.5853 68.4922 25.5853C69.406 25.5853 70.1211 26.3004 70.1211 27.2141C70.1211 27.8101 69.7636 28.3265 69.3265 28.6046C67.6977 29.9952 65.5126 30.9089 63.2481 30.9089C58.0833 30.9089 53.8721 26.6579 53.8721 21.4138C53.8721 16.1696 58.0833 11.9186 63.2481 11.9186C65.155 11.8789 66.9826 12.4748 68.4922 13.5078ZM77.9477 17.4806C81.4835 17.4806 84.4234 20.4603 84.4234 24.155C84.4234 27.8101 81.4438 30.9486 77.9477 30.9486C74.2529 30.9486 71.1938 27.8498 71.1938 24.155C71.1938 20.4603 74.2529 17.4806 77.9477 17.4806ZM77.9079 27.6512C79.4574 27.6512 80.7684 26.1812 80.7684 24.1948C80.7684 22.2083 79.4574 20.937 77.9079 20.937C76.2393 20.937 74.8488 22.1686 74.8488 24.1948C74.8488 26.1415 76.2393 27.6512 77.9079 27.6512ZM86.6482 28.8828V19.5068C86.6482 18.4738 87.4428 17.6395 88.4758 17.6395C89.469 17.6395 90.3033 18.4738 90.3033 19.5068V28.8828C90.3033 29.9157 89.469 30.75 88.4758 30.75C87.4825 30.75 86.6482 29.876 86.6482 28.8828ZM86.3701 14.1037C86.3701 12.8721 87.3236 11.9186 88.4758 11.9186C89.6676 11.9186 90.6211 12.9118 90.6211 14.1037C90.6211 15.2955 89.6676 16.249 88.4758 16.249C87.2839 16.2093 86.3701 15.2558 86.3701 14.1037ZM97.2955 23.7975V28.8828C97.2955 29.9157 96.4612 30.75 95.468 30.75C94.4748 30.75 93.6405 29.9157 93.6405 28.8828V19.0698C93.6405 18.2752 94.2762 17.6395 95.0707 17.6395C95.8653 17.6395 96.4612 18.3149 96.4612 19.0698C97.9312 17.6793 99.2422 17.4806 100.474 17.4806C104.129 17.4806 105.758 20.2219 105.758 23.3605V28.8828C105.758 29.9157 104.923 30.75 103.93 30.75C102.937 30.75 102.103 29.9157 102.103 28.8828V23.7975C102.103 22.2083 101.904 20.8576 99.5998 20.8576C97.9709 20.8576 97.2955 22.2083 97.2955 23.7975ZM117.597 25.7442C117.16 25.7442 116.882 25.5455 116.643 25.2674L112.392 20.6589V28.8828C112.392 29.9157 111.558 30.75 110.565 30.75C109.572 30.75 108.737 29.9157 108.737 28.8828V12.594C108.857 12.3159 109.135 12.1172 109.413 12.1172C109.731 12.1172 110.009 12.3954 110.207 12.594L117.001 20.2219C117.2 20.4603 117.438 20.5795 117.597 20.5795C117.716 20.5795 117.994 20.4603 118.193 20.2219L124.986 12.594C125.185 12.3954 125.423 12.1172 125.781 12.1172C126.099 12.1172 126.377 12.3159 126.456 12.594V28.8828C126.456 29.9157 125.662 30.75 124.629 30.75C123.636 30.75 122.801 29.9157 122.801 28.8828V20.6589L118.55 25.2674C118.233 25.5455 117.954 25.7442 117.597 25.7442ZM135.157 27.6512C136.786 27.6512 138.176 26.1812 138.176 24.1948C138.176 22.2083 136.746 20.8973 135.157 20.8973C133.568 20.8973 132.257 22.2481 132.257 24.1948C132.257 26.1017 133.528 27.6512 135.157 27.6512ZM139.05 29.3198L138.971 28.8828C138.256 30.2733 135.991 30.9089 134.561 30.9089C131.144 30.9089 128.602 27.8101 128.602 24.1153C128.602 20.4603 131.184 17.4409 134.76 17.4409C135.356 17.4409 137.421 17.5998 139.011 19.4671L139.09 19.03C139.09 18.2355 139.686 17.5998 140.481 17.5998C141.275 17.5998 141.911 18.2752 141.911 19.03V29.28C141.911 30.0746 141.275 30.7103 140.481 30.7103C139.646 30.75 139.05 30.0746 139.05 29.3198ZM151.962 20.8576H151.565C149.261 20.9767 148.824 22.2878 148.824 23.7975V28.8828C148.824 29.9157 147.989 30.75 146.996 30.75C146.003 30.75 145.169 29.9157 145.169 28.8828V19.0698C145.169 18.2752 145.804 17.6395 146.599 17.6395C147.393 17.6395 147.989 18.3149 147.989 19.0698C149.34 17.7984 150.453 17.5203 151.565 17.4806H151.922C152.796 17.4806 153.591 18.2355 153.591 19.189C153.631 20.063 152.836 20.8576 151.962 20.8576ZM166.066 28.0087C166.225 28.2868 166.344 28.5649 166.344 28.8828C166.344 29.8362 165.47 30.7103 164.516 30.7103C163.881 30.7103 163.325 30.2335 162.888 29.6773L158.676 24.7907V28.843C158.676 29.876 157.842 30.7103 156.849 30.7103C155.856 30.7103 155.021 29.876 155.021 28.843V13.9448C155.021 12.9118 155.816 12.0775 156.849 12.0775C157.882 12.0775 158.676 12.9118 158.676 13.9448V23.2413L162.888 18.593C163.325 18.1163 163.841 17.5998 164.477 17.5998C165.39 17.5998 166.225 18.4341 166.225 19.3876C166.225 19.6657 166.145 19.9835 165.986 20.2219L162.649 23.8769L166.066 28.0087ZM173.217 20.8973C172.224 20.8973 170.595 21.4138 170.595 22.9632H175.879C175.839 21.4138 174.171 20.8973 173.217 20.8973ZM177.984 25.3072H170.595C170.595 27.4922 172.701 27.8498 173.614 27.8498C174.29 27.8498 175.243 27.7306 175.998 27.3731C176.236 27.2141 176.594 27.095 176.952 27.095C177.746 27.095 178.421 27.7703 178.421 28.6046C178.421 29.1608 178.064 29.6376 177.627 29.9157C176.515 30.75 175.045 30.9486 173.654 30.9486C169.959 30.9486 166.9 28.9622 166.9 24.314C166.9 20.6589 168.767 17.4806 173.138 17.4806C176.673 17.4806 179.335 19.7849 179.415 23.8769C179.415 24.6318 178.779 25.3072 177.984 25.3072ZM188.155 30.9089H187.162C184.381 30.9089 182.752 29.6773 182.752 25.3469V20.8576H181.798C180.924 20.8576 180.17 20.063 180.17 19.189C180.17 18.2355 180.964 17.4806 181.798 17.4806H182.752V14.0242C182.752 12.9913 183.546 12.157 184.579 12.157C185.573 12.157 186.407 12.9913 186.407 14.0242V17.4806H187.917C188.791 17.4806 189.546 18.2355 189.546 19.189C189.546 20.063 188.751 20.8576 187.917 20.8576H186.407V24.6318C186.407 27.1347 186.526 27.6512 187.639 27.6512H188.155C189.029 27.6512 189.784 28.3663 189.784 29.28C189.784 30.1541 189.029 30.9089 188.155 30.9089ZM205.834 13.5078C206.311 13.7859 206.748 14.4612 206.748 15.0572C206.748 16.0107 205.953 16.8052 205.04 16.8052C204.801 16.8052 204.603 16.7258 204.404 16.686C203.331 15.8915 201.981 15.375 200.55 15.375C197.173 15.375 194.869 18.1163 194.869 21.5329C194.869 24.9496 197.213 27.6512 200.55 27.6512C202.219 27.6512 203.729 26.9758 204.841 25.9031C205.119 25.7045 205.477 25.5853 205.834 25.5853C206.748 25.5853 207.463 26.3004 207.463 27.2141C207.463 27.8101 207.106 28.3265 206.669 28.6046C205.04 29.9952 202.855 30.9089 200.59 30.9089C195.425 30.9089 191.214 26.6579 191.214 21.4138C191.214 16.1696 195.425 11.9186 200.59 11.9186C202.497 11.8789 204.364 12.4748 205.834 13.5078ZM215.091 27.6512C216.72 27.6512 218.11 26.1812 218.11 24.1948C218.11 22.2083 216.68 20.8973 215.091 20.8973C213.462 20.8973 212.191 22.2481 212.191 24.1948C212.191 26.1017 213.502 27.6512 215.091 27.6512ZM218.984 29.3198L218.905 28.8828C218.19 30.2733 215.925 30.9089 214.495 30.9089C211.078 30.9089 208.536 27.8101 208.536 24.1153C208.536 20.4603 211.118 17.4409 214.694 17.4409C215.29 17.4409 217.356 17.5998 218.945 19.4671L219.024 19.03C219.024 18.2355 219.62 17.5998 220.415 17.5998C221.209 17.5998 221.845 18.2752 221.845 19.03V29.28C221.845 30.0746 221.209 30.7103 220.415 30.7103C219.58 30.75 218.984 30.0746 218.984 29.3198ZM231.817 27.6512C233.446 27.6512 234.717 26.1017 234.717 24.1948C234.717 22.2083 233.406 20.8973 231.817 20.8973C230.188 20.8973 228.797 22.2083 228.797 24.1948C228.797 26.1812 230.188 27.6512 231.817 27.6512ZM228.797 29.8362V34.4845C228.797 35.5174 227.963 36.3517 226.97 36.3517C225.977 36.3517 225.142 35.5174 225.142 34.4845V19.0698C225.142 18.2752 225.778 17.6395 226.573 17.6395C227.367 17.6395 227.963 18.3149 227.963 19.2287C229.314 17.8382 230.983 17.4806 232.254 17.4806C235.79 17.4806 238.412 20.4603 238.412 24.155C238.412 27.8101 235.909 30.9486 232.452 30.9486C231.38 30.9089 229.791 30.5911 228.797 29.8362Z" fill="white"/>
</svg>
