<svg width="150" height="41" viewBox="0 0 150 41" fill="none" xmlns="http://www.w3.org/2000/svg">
<path fill-rule="evenodd" clip-rule="evenodd" d="M20.4463 0.000232213C31.7935 0.000232213 40.9462 9.15287 40.9462 20.5535C40.9462 31.7936 31.6864 41.0533 20.2857 40.9998C9.25972 40.8927 0 31.7936 0 20.5C0 9.15287 9.09915 -0.053292 20.4463 0.000232213ZM4.87072 31.2048C4.87072 31.4189 4.97777 31.526 5.08482 31.6866C5.88768 32.8106 6.7976 33.8811 7.86809 34.791C8.34981 35.2192 8.83153 35.6474 9.36677 36.022C10.8655 36.9855 12.4177 37.8954 14.1304 38.4841C15.5221 38.9659 16.9672 39.3405 18.4124 39.5011C19.5364 39.6081 20.7139 39.6617 21.838 39.5011C22.4803 39.394 23.1761 39.394 23.8184 39.1264C23.9254 39.1799 23.9789 39.0729 24.0325 39.0729C25.3706 38.8588 26.6552 38.4306 27.9397 37.8954C32.1146 36.0755 35.2726 33.1317 37.3065 29.0639C39.1263 25.4778 39.7151 21.6775 39.1263 17.7167C38.5911 13.9165 36.9854 10.598 34.4162 7.81476C30.9906 3.9075 26.6016 1.87358 21.4098 1.55243C19.1082 1.39186 16.8067 1.71301 14.6122 2.46234C11.026 3.63988 8.08219 5.6738 5.67359 8.61763C2.94384 11.9897 1.60573 15.8434 1.44516 20.1253C1.39163 21.1958 1.49868 22.2128 1.65926 23.2833C1.9804 25.6919 2.78327 27.9934 4.01433 30.0808C4.33548 30.402 4.54957 30.8302 4.87072 31.2048Z" fill="#8C8C8C"/>
<path fill-rule="evenodd" clip-rule="evenodd" d="M23.8226 39.0727C23.1803 39.3939 22.4845 39.3939 21.8422 39.4474C20.7182 39.608 19.5407 39.5545 18.4167 39.4474C16.9715 39.2868 15.5264 38.9122 14.1347 38.4304C12.4219 37.8417 10.8697 36.9318 9.37105 35.9683C8.83581 35.5937 8.35409 35.1655 7.87237 34.7373C6.80188 33.8274 5.89196 32.7569 5.0891 31.6329C4.98205 31.4723 4.875 31.3117 4.875 31.1512C6.15959 28.2608 6.64131 25.21 6.90893 22.1056C7.01598 20.6604 7.0695 19.2153 7.33712 17.7701C7.60474 16.1109 8.24704 14.6122 9.42457 13.3276C10.4951 12.2036 11.8332 11.4542 13.2783 10.919C14.4559 10.4373 15.6869 10.0091 17.025 9.95557C18.2561 9.90204 19.4336 10.0626 20.6112 10.3302C22.3775 10.7584 24.1438 11.2937 25.803 12.0965C27.1412 12.6318 28.5328 13.167 29.9244 13.5952C31.3696 14.0234 32.8147 14.5051 34.0458 15.415C35.598 16.5926 36.0262 18.0912 35.3304 19.9111C34.9022 21.0351 34.0993 21.8915 33.2965 22.7479C31.8513 24.2465 30.2991 25.6382 28.9075 27.1904C27.3017 29.0637 25.8566 30.9906 24.8396 33.2386C23.9832 35.1119 23.5015 37.0388 23.8226 39.0727ZM34.1529 21.4633C34.0993 21.4633 34.0458 21.4633 33.9923 21.5168C33.9388 21.5168 33.8852 21.5703 33.8852 21.6238C33.8852 21.6238 33.8852 21.6238 33.8852 21.6774C33.9388 21.6774 33.9923 21.6238 33.9923 21.5703L34.1529 21.4633C34.2599 21.4633 34.2064 21.4633 34.1529 21.4633ZM17.7744 12.1501C15.7405 12.1501 14.0812 13.8093 14.0812 15.7897C14.0812 17.8236 15.7405 19.4294 17.7209 19.4829C19.7548 19.4829 21.3605 17.8236 21.414 15.7897C21.414 13.7558 19.8083 12.1501 17.7744 12.1501ZM20.7718 23.3901C21.0929 23.8719 21.6817 24.3001 22.3775 24.5142C23.7691 24.9959 25.1607 24.9959 26.5524 24.7283C29.0145 24.2465 31.3161 23.3901 33.4035 21.9985C33.5106 21.8915 33.7247 21.8915 33.7782 21.6774C33.6711 21.6238 33.6176 21.6774 33.5641 21.7309C32.8683 22.1591 32.1189 22.4802 31.3696 22.8014C29.4427 23.6042 27.4088 24.1395 25.2678 24.2465C23.7156 24.3536 22.1634 24.2465 20.7718 23.3901ZM30.8879 20.2322C31.3161 20.2322 31.6907 19.8575 31.6907 19.3758C31.6907 18.9476 31.3161 18.573 30.8343 18.6265C30.4061 18.6265 30.085 19.0012 30.085 19.4294C30.085 19.9111 30.4061 20.2322 30.8879 20.2322Z" fill="#6C6C70"/>
<path fill-rule="evenodd" clip-rule="evenodd" d="M20.5518 10.331C19.3743 10.1169 18.1967 9.90278 16.9657 9.9563C15.6276 10.0098 14.45 10.438 13.219 10.9197C11.7738 11.455 10.4357 12.2043 9.36522 13.3283C8.18769 14.5594 7.54539 16.0581 7.27777 17.7708C7.06367 19.216 7.01015 20.6611 6.84958 22.1063C6.58195 25.2107 6.10023 28.3151 4.81565 31.1519C4.44098 30.8307 4.22688 30.349 4.01278 29.9744C2.78172 27.8869 1.97886 25.5854 1.65771 23.1768C1.49714 22.1063 1.39009 21.0893 1.44361 20.0189C1.60418 15.7369 2.94229 11.8832 5.67204 8.51115C8.02711 5.56732 11.0245 3.5334 14.6106 2.35587C16.8051 1.66005 19.1067 1.33891 21.4082 1.44596C26.5466 1.7671 30.9356 3.85455 34.4146 7.65477C36.9838 10.4915 38.536 13.81 39.1248 17.5567C39.7136 21.5175 39.1248 25.3177 37.305 28.9039C35.271 32.9717 32.1131 35.9155 27.9382 37.7354C26.7071 38.2706 25.4225 38.6988 24.0309 38.9129C23.9239 38.9129 23.8703 39.0735 23.8168 38.9664C23.4957 36.9325 23.9774 35.0056 24.7803 33.1323C25.7972 30.8843 27.2424 28.9574 28.8481 27.084C30.1862 25.5318 31.7384 24.0867 33.2371 22.6415C34.0935 21.7852 34.8428 20.9288 35.271 19.8048C36.0204 17.9849 35.5922 16.4863 33.9864 15.3087C32.7554 14.3988 31.3102 13.9171 29.8651 13.4889C28.4734 13.0607 27.0818 12.5255 25.7437 11.9902C25.4761 11.0803 24.8338 10.4915 23.9774 10.1704C22.8534 9.90278 21.7294 10.0098 20.5518 10.331ZM38.0543 21.7316H38.1614C38.3755 20.9823 38.3755 20.1794 38.3755 19.3766C38.3755 18.4667 38.2684 17.5567 38.1078 16.6468C37.5191 13.703 36.181 11.1338 34.0935 8.93935C32.8089 7.60124 31.3638 6.47723 29.9186 5.2997C28.634 4.22922 27.2424 3.42635 25.6366 2.99816C24.0844 2.62349 22.5858 2.40939 20.98 2.67701C20.873 2.67701 20.7659 2.67702 20.7659 2.78406C20.7659 2.89111 20.873 2.89111 20.98 2.89111C23.3351 3.3193 25.5831 4.06864 27.7776 4.92503C29.9186 5.78142 31.7384 7.01248 33.0765 8.93935C33.9865 10.2775 34.8428 11.6691 35.5387 13.1678C36.4486 15.2017 37.1444 17.2891 37.5726 19.4301C37.7867 20.2865 37.9473 20.9823 38.0543 21.7316Z" fill="#FEFEFE"/>
<path fill-rule="evenodd" clip-rule="evenodd" d="M17.7713 12.1504C19.8052 12.1504 21.411 13.8096 21.411 15.79C21.411 17.824 19.7517 19.4297 17.7178 19.4832C15.6839 19.4832 14.0781 17.824 14.0781 15.79C14.0781 13.7561 15.7374 12.1504 17.7713 12.1504ZM20.3405 15.8436C20.3405 14.3984 19.2165 13.2744 17.7713 13.2744C16.3262 13.2744 15.2021 14.3984 15.2021 15.8436C15.2021 17.2352 16.3261 18.4127 17.7178 18.4127H17.7713C19.1629 18.4127 20.287 17.2887 20.3405 15.8436Z" fill="#FCFDFB"/>
<path fill-rule="evenodd" clip-rule="evenodd" d="M20.7688 23.3902C22.1604 24.2466 23.7126 24.3536 25.2648 24.3001C27.4058 24.193 29.4397 23.7113 31.3666 22.8549C32.116 22.5338 32.8653 22.2126 33.5611 21.7845C33.6146 21.7309 33.6682 21.6774 33.7752 21.7309C33.7217 21.8915 33.5611 21.945 33.4005 22.0521C31.3131 23.4437 29.0115 24.3001 26.5494 24.7818C25.1578 25.0494 23.7126 25.0494 22.3745 24.5677C21.6787 24.3001 21.0364 23.8719 20.7688 23.3902ZM20.5547 10.3303C21.6787 10.0091 22.8562 9.90208 23.9803 10.3303C24.8366 10.6514 25.4789 11.2402 25.7466 12.1501C24.1408 11.2937 22.3745 10.7585 20.5547 10.3303Z" fill="#A2A2A2"/>
<path fill-rule="evenodd" clip-rule="evenodd" d="M30.8888 20.2327C30.4606 20.2327 30.0859 19.858 30.0859 19.4298C30.0859 19.0016 30.4071 18.627 30.8353 18.627C31.2635 18.627 31.6381 18.9481 31.6917 19.3763C31.6381 19.858 31.317 20.2327 30.8888 20.2327Z" fill="#FCFDFB"/>
<path fill-rule="evenodd" clip-rule="evenodd" d="M33.9899 21.5709C33.9899 21.6244 33.9363 21.678 33.8828 21.678C33.8828 21.5709 33.9363 21.5174 33.9899 21.5709ZM34.1504 21.4639L33.9899 21.5709L33.9363 21.5174C34.0434 21.4639 34.0969 21.4639 34.1504 21.4639Z" fill="#A9ACBF"/>
<path fill-rule="evenodd" clip-rule="evenodd" d="M38.0552 21.7307C37.8946 20.9814 37.734 20.2856 37.627 19.5363C37.1988 17.3418 36.4494 15.2543 35.593 13.2739C34.9508 11.7752 34.0944 10.3836 33.1309 9.04551C31.7928 7.11864 30.0265 5.88758 27.832 5.0312C25.584 4.17481 23.3895 3.37194 21.0344 2.99727C20.9274 2.99727 20.8203 2.99728 20.8203 2.89023C20.8203 2.78318 20.9274 2.78318 21.0344 2.78318C22.5866 2.51556 24.1388 2.67613 25.691 3.10433C27.2968 3.53252 28.6884 4.3889 29.973 5.40586C31.4181 6.5834 32.8633 7.70741 34.1479 9.04551C36.2353 11.24 37.5735 13.8092 38.1622 16.753C38.3228 17.6629 38.4298 18.5728 38.4298 19.4827C38.4298 20.2321 38.4298 21.0349 38.2157 21.8378L38.0552 21.7307Z" fill="#FFFEFC"/>
<path fill-rule="evenodd" clip-rule="evenodd" d="M20.3415 15.8434C20.3415 17.235 19.2175 18.4125 17.8258 18.4125H17.7723C16.3807 18.4125 15.2031 17.2885 15.2031 15.8434V15.7899C15.2031 14.3447 16.3807 13.2207 17.7723 13.2207C19.1639 13.2207 20.3415 14.3982 20.3415 15.8434Z" fill="#6C6C70"/>
<path fill-rule="evenodd" clip-rule="evenodd" d="M101.535 26.1735C101.481 26.227 101.428 26.227 101.374 26.2805C99.7149 28.1539 97.6275 28.475 95.3794 27.8862C92.5962 27.1904 91.0975 25.21 90.5087 22.4803C90.134 20.714 90.2411 18.9477 90.9369 17.2884C92.168 14.3446 94.9512 12.7389 98.1092 13.1671C99.5543 13.3812 100.892 13.8629 101.909 14.9334C102.659 15.7362 103.087 16.6997 103.248 17.7702C103.301 17.9843 103.194 18.0378 103.033 18.0378C102.391 18.0378 101.695 18.0378 101.053 18.0378C100.892 18.0378 100.839 17.9843 100.785 17.8237C100.464 16.3785 99.5008 15.5757 98.1092 15.308C96.5034 14.9869 95.1118 15.308 94.0413 16.5926C93.0779 17.7702 92.8103 19.2153 92.8103 20.714C92.8103 21.838 93.0244 22.9085 93.5061 23.8719C94.6301 26.0129 97.4134 26.7622 99.5008 25.5312C100.678 24.8354 101.053 23.7113 101.16 22.4268C101.16 22.1591 100.999 22.2127 100.839 22.2127C99.7684 22.2127 98.7515 22.2127 97.681 22.2127C97.3598 22.2127 97.3063 22.1056 97.3063 21.838C97.3063 21.4098 97.3063 21.0351 97.3063 20.6069C97.3063 20.3393 97.4134 20.2858 97.6275 20.2858C99.4473 20.2858 101.321 20.2858 103.14 20.2858C103.355 20.2858 103.462 20.3393 103.462 20.5534C103.462 22.9085 103.462 25.21 103.462 27.5651C103.462 27.7792 103.408 27.8327 103.194 27.8327C102.766 27.8327 102.231 27.9398 101.909 27.7792C101.588 27.5651 101.695 27.0298 101.588 26.6017C101.588 26.4411 101.535 26.2805 101.535 26.1735ZM59.1434 18.0378C58.8223 18.0378 58.5011 18.0378 58.1264 18.0378C57.9123 18.0378 57.8588 17.9843 57.8053 17.7702C57.3771 16.2715 56.4137 15.3616 54.8615 15.201C53.1487 15.0404 51.7035 15.5757 50.8471 17.1279C49.5625 19.4829 49.6161 21.8915 50.9006 24.1931C51.757 25.7453 53.6304 26.4411 55.3432 25.9594C56.8419 25.5312 57.5377 24.4072 57.8588 22.962C57.9659 22.3732 57.9659 22.3732 58.5546 22.3732C59.0899 22.3732 59.6251 22.3732 60.1604 22.3732C60.3745 22.3732 60.428 22.4268 60.3745 22.6409C60.1068 25.4776 58.287 27.6721 55.5037 28.1003C51.4894 28.7426 48.1709 26.2805 47.5286 22.2662C47.261 20.4999 47.4216 18.7871 48.1174 17.1279C49.3484 14.3446 52.0782 12.8459 55.1291 13.2206C56.5742 13.4347 57.9123 13.9164 58.9828 14.9869C59.7322 15.7898 60.1604 16.7532 60.3209 17.8237C60.3745 18.0378 60.3209 18.0913 60.1068 18.0913C59.8392 17.9843 59.4646 18.0378 59.1434 18.0378ZM137.931 27.7792C137.021 27.7792 136.219 27.7792 135.362 27.7792C135.148 27.7792 135.041 27.6721 134.987 27.5116C134.078 26.0129 133.114 24.5677 132.204 23.0691C132.044 22.8014 131.99 22.8014 131.723 23.0155C130.813 23.6578 130.438 24.5142 130.598 25.6382C130.706 26.227 130.598 26.8693 130.598 27.5116C130.598 27.7792 130.491 27.8327 130.277 27.8327C129.742 27.8327 129.207 27.8327 128.672 27.8327C128.404 27.8327 128.35 27.7257 128.35 27.458C128.35 25.2635 128.35 23.0691 128.35 20.821C128.35 18.5195 128.35 16.218 128.35 13.8629C128.35 13.4882 128.458 13.3812 128.832 13.4347C129.314 13.4882 129.796 13.4882 130.277 13.4347C130.598 13.4347 130.652 13.5417 130.652 13.8094C130.652 16.218 130.652 18.6265 130.652 21.0351V21.4633L130.759 21.5169C130.92 21.3028 131.134 21.0887 131.294 20.8746C132.365 19.7506 133.435 18.6801 134.559 17.5561C134.666 17.449 134.773 17.342 134.934 17.342C135.79 17.342 136.647 17.342 137.503 17.342C137.503 17.5025 137.343 17.5561 137.289 17.6631C136.165 18.7336 135.095 19.8041 133.917 20.8746C133.649 21.0887 133.649 21.2492 133.863 21.5704C135.148 23.4972 136.433 25.4241 137.717 27.351C137.717 27.5116 137.824 27.6186 137.931 27.7792ZM111.49 23.1761C110.313 23.1761 109.189 23.1761 108.011 23.1761C107.744 23.1761 107.69 23.2296 107.69 23.4972C107.797 25.5847 109.724 26.8693 111.651 26.0664C112.186 25.8523 112.614 25.4241 112.828 24.8354C112.935 24.5677 113.096 24.5142 113.31 24.5142C113.792 24.5142 114.327 24.5142 114.809 24.5142C115.076 24.5142 115.13 24.5677 115.023 24.8354C114.434 26.7087 113.15 27.7257 111.223 27.9933C109.51 28.2609 107.904 27.8862 106.673 26.6017C105.817 25.6917 105.442 24.5142 105.335 23.2832C105.228 21.7845 105.442 20.3393 106.405 19.0547C107.637 17.449 109.296 16.8602 111.223 17.1814C113.257 17.5561 114.488 18.8406 115.076 20.7675C115.291 21.4633 115.344 22.1591 115.291 22.9085C115.291 23.1761 115.183 23.2296 114.969 23.2296C113.845 23.1761 112.668 23.1761 111.49 23.1761ZM110.366 21.6774C111.169 21.6774 111.972 21.6774 112.721 21.6774C112.989 21.6774 113.042 21.6239 112.989 21.3563C112.775 19.9647 111.758 18.9477 110.42 18.8942C109.028 18.8406 107.904 19.8041 107.69 21.2492C107.637 21.5169 107.69 21.6239 108.011 21.6239C108.814 21.6774 109.563 21.6774 110.366 21.6774ZM61.9267 22.5873C61.9267 21.945 62.0337 21.2492 62.1943 20.6069C62.8901 18.3589 64.8705 16.9673 67.3326 17.1279C69.206 17.2349 70.7582 17.8772 71.6681 19.5365C72.7386 21.5704 72.7386 23.7113 71.6146 25.6917C70.5976 27.5651 68.8313 28.1539 66.7974 28.0468C63.7465 27.8862 61.9267 25.7988 61.9267 22.5873ZM64.2282 22.5873C64.2282 23.4973 64.3888 24.3001 64.924 25.0495C65.7804 26.2805 67.4397 26.6552 68.6707 25.7988C68.9384 25.5847 69.206 25.3706 69.4201 25.103C70.33 23.7649 70.3835 21.5169 69.4201 20.1252C68.2961 18.5195 65.941 18.5195 64.8705 20.1788C64.3888 20.8746 64.2282 21.731 64.2282 22.5873ZM138.52 22.6409C138.52 21.1422 138.841 19.8041 139.858 18.6801C140.875 17.5025 142.267 17.0743 143.766 17.0743C145.264 17.0743 146.656 17.5025 147.726 18.6801C148.85 19.9647 149.118 21.5169 149.011 23.1761C148.957 23.7649 148.85 24.3536 148.636 24.8889C147.833 26.9763 145.906 28.1539 143.444 27.9933C140.554 27.8327 138.734 25.9594 138.574 23.0691C138.574 22.962 138.52 22.7479 138.52 22.6409ZM146.709 22.7479C146.709 21.6774 146.442 20.7675 146.067 20.1252C145.264 18.8406 143.551 18.5195 142.32 19.3224C141.999 19.5365 141.732 19.8041 141.517 20.1252C140.608 21.4633 140.661 23.7113 141.517 24.9959C142.374 26.227 144.033 26.6017 145.264 25.7453C145.585 25.5312 145.799 25.3171 146.014 24.9959C146.549 24.3001 146.709 23.4437 146.709 22.7479ZM81.3025 18.8406C81.9448 18.0378 82.6941 17.449 83.7111 17.1814C84.621 16.9673 85.5309 17.0208 86.3873 17.3955C87.6719 17.9307 88.2072 19.0547 88.2607 20.3928C88.3142 22.7479 88.2607 25.103 88.2607 27.458C88.2607 27.7257 88.2072 27.7792 87.9395 27.7792C87.4043 27.7792 86.869 27.7792 86.3338 27.7792C86.0662 27.7792 85.9591 27.7257 85.9591 27.4045C85.9591 25.4241 85.9591 23.3902 85.9591 21.4098C85.9591 20.9816 85.9056 20.5534 85.7986 20.1788C85.4774 19.1083 84.4605 18.6801 83.2294 19.0012C82.1589 19.3224 81.4631 20.2858 81.4631 21.5169C81.4631 23.4437 81.4631 25.4241 81.4631 27.351C81.4631 27.6721 81.4096 27.8327 81.0349 27.7792C80.5532 27.7257 80.0179 27.7257 79.5362 27.7792C79.2686 27.7792 79.1615 27.7257 79.1615 27.4045C79.1615 25.9058 79.1615 24.4607 79.1615 22.962C79.1615 21.2492 79.1615 19.5365 79.1615 17.8237C79.1615 17.449 79.2686 17.342 79.6432 17.3955C80.125 17.449 80.5532 17.3955 81.0349 17.3955C81.3025 17.3955 81.4096 17.449 81.356 17.7166C81.3025 18.0913 81.3025 18.466 81.3025 18.8406ZM125.193 20.8746C125.139 20.8746 125.085 20.8746 125.032 20.8746C124.443 20.9281 124.069 20.8746 123.801 20.1788C123.159 18.573 120.589 18.5195 119.519 20.0182C119.144 20.4999 118.984 21.0887 118.877 21.7309C118.77 22.7479 118.77 23.7649 119.198 24.7283C119.733 25.9058 120.696 26.4411 121.928 26.2805C122.944 26.1199 123.64 25.4776 123.908 24.3536C123.961 24.0325 124.122 23.9254 124.443 23.979C124.978 23.979 125.46 23.979 125.995 23.979C126.263 23.979 126.317 24.086 126.263 24.3001C125.728 26.8693 123.908 28.3144 121.232 28.1539C118.556 27.9933 116.789 26.227 116.575 23.4972C116.468 22.3197 116.575 21.1422 117.057 20.0182C117.86 18.1448 119.68 17.0743 121.82 17.1814C123.105 17.2349 124.283 17.5561 125.246 18.466C125.835 19.0547 126.156 19.8041 126.317 20.6069C126.37 20.8746 126.263 20.9816 125.995 20.9281C125.781 20.8746 125.514 20.8746 125.193 20.8746ZM76.6459 22.6409C76.6459 24.1931 76.6459 25.7453 76.6459 27.2975C76.6459 27.7257 76.5388 27.8327 76.1642 27.7792C75.6824 27.7257 75.2543 27.7257 74.7725 27.7792C74.4514 27.7792 74.3443 27.7257 74.3443 27.351C74.3443 24.5677 74.3443 21.7845 74.3443 19.0012C74.3443 18.573 74.3443 18.1448 74.3443 17.7166C74.3443 17.449 74.3979 17.3955 74.6655 17.3955C75.2007 17.3955 75.736 17.3955 76.2712 17.3955C76.5924 17.3955 76.6994 17.449 76.6994 17.8237C76.6459 19.4294 76.6459 21.0351 76.6459 22.6409ZM75.5754 13.4347C75.8965 13.4882 76.3783 13.2741 76.5924 13.4882C76.8065 13.7023 76.6459 14.184 76.6459 14.5587C76.6459 14.8799 76.8065 15.308 76.5924 15.5221C76.3783 15.7362 75.9501 15.5757 75.6289 15.5757C75.2007 15.5757 74.6655 15.7362 74.3979 15.5221C74.1838 15.2545 74.3443 14.7193 74.3443 14.3446C74.3443 13.4347 74.3443 13.4347 75.2543 13.4347H75.5754Z" fill="white"/>
</svg>
