<svg width="97" height="21" viewBox="0 0 97 21" fill="none" xmlns="http://www.w3.org/2000/svg">
<g opacity="0.6">
<mask id="mask0_9535_4781" style="mask-type:luminance" maskUnits="userSpaceOnUse" x="0" y="7" width="13" height="8">
<path d="M0 7.74023H12.8302V14.4614H0V7.74023Z" fill="white"/>
</mask>
<g mask="url(#mask0_9535_4781)">
<path d="M6.41638 7.74023L0 10.6637L6.41638 14.4614L12.8302 10.6637L6.41638 7.74023Z" fill="white"/>
</g>
</g>
<g opacity="0.45">
<mask id="mask1_9535_4781" style="mask-type:luminance" maskUnits="userSpaceOnUse" x="0" y="0" width="7" height="15">
<path d="M0 0H6.41638V14.4632H0V0Z" fill="white"/>
</mask>
<g mask="url(#mask1_9535_4781)">
<path d="M0 10.6655L6.41638 14.4632V0L0 10.6655Z" fill="white"/>
</g>
</g>
<g opacity="0.8">
<mask id="mask2_9535_4781" style="mask-type:luminance" maskUnits="userSpaceOnUse" x="6" y="0" width="7" height="15">
<path d="M6.40625 0H12.8226V14.4632H6.40625V0Z" fill="white"/>
</mask>
<g mask="url(#mask2_9535_4781)">
<path d="M6.40625 0V14.4632L12.8201 10.6655L6.40625 0Z" fill="white"/>
</g>
</g>
<g opacity="0.45">
<mask id="mask3_9535_4781" style="mask-type:luminance" maskUnits="userSpaceOnUse" x="0" y="11" width="7" height="10">
<path d="M0 11.8809H6.41638V20.9368H0V11.8809Z" fill="white"/>
</mask>
<g mask="url(#mask3_9535_4781)">
<path d="M0 11.8809L6.41638 20.9368V15.6786L0 11.8809Z" fill="white"/>
</g>
</g>
<g opacity="0.8">
<mask id="mask4_9535_4781" style="mask-type:luminance" maskUnits="userSpaceOnUse" x="6" y="11" width="7" height="10">
<path d="M6.40625 11.8809H12.8252V20.9368H6.40625V11.8809Z" fill="white"/>
</mask>
<g mask="url(#mask4_9535_4781)">
<path d="M6.40625 15.6786V20.9368L12.8252 11.8809L6.40625 15.6786Z" fill="white"/>
</g>
</g>
<path d="M23.5127 13.4279C23.5127 13.6061 23.3638 13.7511 23.186 13.7511H16.8919C17.049 15.3088 18.2194 16.7299 19.8652 16.7299C20.9901 16.7299 21.8254 16.299 22.454 15.4C22.545 15.2757 22.6814 15.197 22.8551 15.2715C22.9502 15.313 23.0164 15.4 23.033 15.4994C23.0495 15.603 23.0205 15.661 22.9916 15.719C22.3589 16.8251 21.0976 17.3679 19.8611 17.3679C17.7438 17.3679 16.2344 15.4704 16.2344 13.4404C16.2344 11.4103 17.7438 9.51287 19.8611 9.51287C21.9784 9.50873 23.5085 11.402 23.5127 13.4279ZM22.8386 13.1214C22.7021 11.5636 21.5111 10.1426 19.8652 10.1426C18.2194 10.1426 17.049 11.5636 16.8919 13.1214H22.8386ZM31.1507 9.66616C31.3327 9.66616 31.465 9.82359 31.465 9.98102C31.465 10.1633 31.3285 10.2959 31.1507 10.2959H29.4635V16.9287C29.4635 17.0861 29.327 17.2436 29.1492 17.2436C28.9672 17.2436 28.8349 17.0861 28.8349 16.9287V10.2959H27.2138C27.0319 10.2959 26.8995 10.1592 26.8995 9.98102C26.8995 9.82359 27.036 9.66616 27.2138 9.66616H28.8349V7.2384C28.8349 7.08511 28.9383 6.94425 29.0872 6.9194C29.2981 6.88625 29.4635 7.03126 29.4635 7.23012V9.66616H31.1507ZM41.4437 12.8728V16.8914C41.4437 17.0737 41.2866 17.2063 41.1294 17.2063C40.9475 17.2063 40.8151 17.0696 40.8151 16.8914V12.8728C40.8151 11.518 40.0501 10.1633 38.5407 10.1633C36.6053 10.1633 35.77 11.8578 35.8816 13.5937C35.8816 13.6392 35.9023 13.8422 35.9023 13.8629V16.879C35.9023 17.0323 35.7989 17.1731 35.65 17.198C35.4391 17.2311 35.2737 17.0861 35.2737 16.8873V3.68791C35.2737 3.53048 35.4102 3.37305 35.588 3.37305C35.77 3.37305 35.9023 3.53048 35.9023 3.68791V11.1576C36.444 10.1882 37.4117 9.53358 38.5365 9.53358C40.385 9.53358 41.4437 11.1576 41.4437 12.8728ZM52.7292 13.4279C52.7292 13.6061 52.5803 13.7511 52.4025 13.7511H46.1043C46.2614 15.3088 47.4317 16.7299 49.0776 16.7299C50.2025 16.7299 51.0378 16.299 51.6664 15.4C51.7574 15.2757 51.8938 15.197 52.0675 15.2715C52.1626 15.313 52.2288 15.4 52.2453 15.4994C52.2619 15.603 52.2329 15.661 52.204 15.719C51.5713 16.8251 50.31 17.3679 49.0735 17.3679C46.9562 17.3679 45.4468 15.4704 45.4468 13.4404C45.4468 11.4103 46.9562 9.51287 49.0735 9.51287C51.195 9.50873 52.725 11.402 52.7292 13.4279ZM52.051 13.1214C51.9145 11.5636 50.7235 10.1426 49.0776 10.1426C47.4317 10.1426 46.2614 11.5636 46.1043 13.1214H52.051ZM60.4541 9.9603C60.4541 10.1633 60.3424 10.2752 60.1605 10.3C58.312 10.5693 57.4807 12.0815 57.4807 13.8422V16.8583C57.4807 17.0116 57.3774 17.1524 57.2285 17.1773C57.0176 17.2104 56.8522 17.0654 56.8522 16.8666V9.99345C56.8522 9.84016 56.9555 9.6993 57.1044 9.67444C57.3153 9.6413 57.4807 9.7863 57.4807 9.98516V11.3855C57.9977 10.5072 59.0356 9.6703 60.115 9.6703C60.2721 9.66615 60.4541 9.78216 60.4541 9.9603ZM70.7926 13.4279C70.7926 13.6061 70.6437 13.7511 70.4659 13.7511H64.1718C64.3289 15.3088 65.4993 16.7299 67.1451 16.7299C68.27 16.7299 69.1053 16.299 69.7339 15.4C69.8249 15.2757 69.9613 15.197 70.135 15.2715C70.2301 15.313 70.2963 15.4 70.3128 15.4994C70.3294 15.603 70.3004 15.661 70.2715 15.719C69.6388 16.8251 68.3775 17.3679 67.141 17.3679C65.0237 17.3679 63.5143 15.4704 63.5143 13.4404C63.5143 11.4103 65.0237 9.51287 67.141 9.51287C69.2583 9.50873 70.7884 11.402 70.7926 13.4279ZM70.1185 13.1214C69.982 11.5636 68.791 10.1426 67.1451 10.1426C65.4993 10.1426 64.3289 11.5636 64.1718 13.1214H70.1185ZM80.9532 10.039V16.9287C80.9532 17.111 80.7961 17.2436 80.6389 17.2436C80.457 17.2436 80.3246 17.1069 80.3246 16.9287V15.6195C79.8077 16.6594 78.8814 17.401 77.7111 17.401C75.8419 17.401 74.8039 15.777 74.8039 14.0618V10.0224C74.8039 9.86502 74.9403 9.70758 75.1182 9.70758C75.3001 9.70758 75.4325 9.86502 75.4325 10.0224V14.0618C75.4325 15.4165 76.1975 16.7713 77.7069 16.7713C79.8242 16.7713 80.3205 14.7868 80.3205 12.5952V10.0224C80.3205 9.84016 80.5024 9.65373 80.7258 9.72002C80.8622 9.76559 80.9532 9.89816 80.9532 10.039ZM96.8745 12.8479V16.8873C96.8745 17.0696 96.7173 17.2021 96.5602 17.2021C96.3782 17.2021 96.2459 17.0654 96.2459 16.8873V12.8479C96.2459 11.4932 95.4808 10.1633 93.9714 10.1633C92.0774 10.1633 91.3578 12.1933 91.3578 13.7718V16.8873C91.3578 17.0696 91.2007 17.2021 91.0436 17.2021C90.8616 17.2021 90.7293 17.0654 90.7293 16.8873V12.8479C90.7293 11.4932 89.9642 10.1633 88.4548 10.1633C86.5401 10.1633 85.7503 11.6755 85.8206 13.6848C85.8206 13.7304 85.8412 13.8215 85.8206 13.8422V16.879C85.8206 17.0323 85.7172 17.1731 85.5642 17.198C85.3533 17.2311 85.1878 17.0861 85.1878 16.8873V9.99345C85.1878 9.84016 85.2912 9.6993 85.4401 9.67444C85.651 9.6413 85.8164 9.7863 85.8164 9.98516V11.1369C86.3582 10.1674 87.3258 9.53358 88.4507 9.53358C89.7326 9.53358 90.7251 10.3456 91.1304 11.5429C91.6473 10.3705 92.6605 9.53358 93.9673 9.53358C95.8158 9.53358 96.8745 11.1328 96.8745 12.8479Z" fill="white"/>
</svg>
