<svg width="80" height="27" viewBox="0 0 80 27" fill="none" xmlns="http://www.w3.org/2000/svg">
<path fill-rule="evenodd" clip-rule="evenodd" d="M77.9875 7.14738C77.2244 7.14738 76.5234 6.55052 76.5234 5.68252C76.5234 4.8381 77.2003 4.2168 77.9875 4.2168C78.8119 4.2168 79.4595 4.85513 79.4595 5.68645C79.4595 6.468 78.8412 7.14738 77.9875 7.14738ZM77.9875 4.34909C77.2625 4.34909 76.6556 4.93372 76.6556 5.68252C76.6556 6.43569 77.2577 7.01595 77.9919 7.01595C78.7629 7.01595 79.3278 6.39858 79.3278 5.68645C79.3278 4.94595 78.7585 4.34909 77.9875 4.34909ZM77.9713 4.7486C78.1612 4.7486 78.2934 4.75209 78.405 4.79313C78.6062 4.86343 78.7007 5.04899 78.7007 5.22145C78.7007 5.34895 78.6509 5.57511 78.3223 5.6572C78.4999 5.73142 78.552 5.83883 78.5861 6.04448C78.6229 6.2999 78.6439 6.43089 78.7257 6.5968H78.3507C78.2969 6.48852 78.2886 6.4191 78.2514 6.19249C78.1901 5.80172 78.1652 5.76504 77.6992 5.76504V6.5968H77.3688V4.7486H77.9713ZM77.7031 5.50089H77.9748C78.1118 5.50089 78.3717 5.50089 78.3717 5.24634C78.3717 5.17212 78.338 5.073 78.2396 5.0276C78.173 5.00358 78.1157 5.00358 77.9136 5.00358H77.7031V5.50089Z" fill="white"/>
<mask id="mask0_9535_4667" style="mask-type:luminance" maskUnits="userSpaceOnUse" x="61" y="4" width="19" height="18">
<path d="M79.5622 4.125V21.4659H61.1719V4.125H79.5622Z" fill="white"/>
</mask>
<g mask="url(#mask0_9535_4667)">
<path fill-rule="evenodd" clip-rule="evenodd" d="M74.3504 21.1257C74.2585 20.8712 74.1544 20.5299 74.1544 20.5299L72.3669 15.8047C72.3223 15.7004 72.2475 15.6485 72.1433 15.6485H67.1604C67.0711 15.6485 67.0041 15.7078 66.9591 15.8261L65.7527 19.0138C65.5291 19.5641 65.4171 20.0167 65.4171 20.3741C65.4171 20.5958 65.4845 20.7669 65.6184 20.8861C65.7527 21.0052 65.9829 21.0641 66.3115 21.0641H66.6462C66.8698 21.0641 66.9818 21.1244 66.9818 21.2431C66.9818 21.3915 66.8545 21.4661 66.6016 21.4661C66.3185 21.4661 65.9168 21.4578 65.3952 21.4434C64.8137 21.4137 64.4269 21.3984 64.2326 21.3984C64.1884 21.3984 64.0243 21.4059 63.7412 21.4211C63.5181 21.4211 63.2013 21.4286 62.7913 21.4434C62.3822 21.4578 61.9831 21.4661 61.5959 21.4661C61.3128 21.4661 61.1719 21.3915 61.1719 21.2431C61.1719 21.1244 61.2607 21.0641 61.4388 21.0641C61.6624 21.0641 61.8943 21.0502 62.1323 21.0201C62.6084 20.9607 62.9816 20.7717 63.2499 20.4514C63.5181 20.1324 63.7789 19.6527 64.0313 19.0138L69.6409 5.01663C69.7752 4.6749 69.8868 4.44097 69.9761 4.31441C70.0653 4.18785 70.1625 4.125 70.2662 4.125C70.4311 4.125 70.6167 4.36285 70.8254 4.83856C70.9295 5.06114 71.1531 5.60362 71.4953 6.46557L72.836 9.83088L74.9704 15.1248L75.5629 16.5955L76.3671 18.5459C76.7399 19.4371 77.0825 20.0468 77.3945 20.3741C77.7082 20.7001 78.0211 20.9009 78.3335 20.9755C78.6315 21.0345 78.9443 21.0641 79.2716 21.0641C79.4659 21.0641 79.5626 21.1244 79.5626 21.2431C79.5626 21.3321 79.4957 21.3915 79.3618 21.4211C79.2274 21.4508 78.9522 21.4661 78.5348 21.4661L76.4021 21.4176C75.769 21.4176 75.1332 21.4652 74.651 21.4652C74.5149 21.4652 74.4418 21.3801 74.3504 21.1257ZM67.6071 14.5343H71.7189C71.7933 14.5343 71.8305 14.4893 71.8305 14.3999L69.8194 8.89474V8.87291C69.7901 8.75377 69.7529 8.69354 69.7078 8.69354C69.6479 8.69354 69.6037 8.76163 69.5735 8.89474L67.5178 14.3776C67.5178 14.4819 67.5476 14.5343 67.6071 14.5343Z" fill="white"/>
</g>
<path fill-rule="evenodd" clip-rule="evenodd" d="M46.9838 12.9863C46.982 13.0409 46.9728 14.5518 46.9728 14.5518C46.958 14.9969 46.9505 16.2006 46.9505 17.5335V19.9792C46.9505 20.2756 46.9356 20.4645 46.9059 20.5461C46.8761 20.6273 46.7948 20.7054 46.6609 20.7796C45.9918 21.1201 45.1749 21.3723 44.2092 21.5355C43.2431 21.6979 42.2699 21.7799 41.2893 21.7799C39.8778 21.7799 38.555 21.6093 37.3215 21.2689C36.0889 20.9285 34.9968 20.4013 34.0459 19.6903C33.0951 18.9789 32.3482 18.0672 31.8056 16.9561C31.263 15.8445 30.9922 14.5474 30.9922 13.0657C30.9922 11.406 31.3602 9.94615 32.0957 8.68618C32.8313 7.42664 33.7563 6.46301 34.8703 5.79658C35.8369 5.21875 36.7943 4.83294 37.746 4.64048C38.6968 4.44801 39.7369 4.35156 40.8658 4.35156C41.2377 4.35156 41.6162 4.36291 42.0026 4.38517C42.3885 4.40655 42.7906 4.44059 43.2063 4.48511C43.6216 4.52919 43.9637 4.57065 44.2315 4.60731C44.4993 4.64397 44.6918 4.67714 44.8108 4.70725C45.108 4.76661 45.4199 4.81898 45.7468 4.86262C46.0741 4.90714 46.3484 4.93681 46.5716 4.95122C46.7799 4.96649 46.8831 5.05509 46.8831 5.21875C46.8831 5.26326 46.8761 5.34444 46.8613 5.46315C46.8315 5.78916 46.8018 6.20028 46.772 6.69693C46.7422 7.19359 46.7274 7.91588 46.7274 8.86424C46.7274 9.17542 46.6464 9.33122 46.4819 9.33122C46.3633 9.33122 46.2894 9.23433 46.2596 9.0423C46.2145 8.68618 46.1406 8.35667 46.0369 8.05292C45.9323 7.74873 45.7542 7.46374 45.5013 7.19665C45.1009 6.76764 44.4577 6.37048 43.5734 6.00781C42.69 5.64427 41.6753 5.46315 40.5319 5.46315C39.7141 5.46315 38.9493 5.54869 38.236 5.7189C37.5232 5.88867 36.817 6.26356 36.1182 6.84052C35.4654 7.38911 34.9596 8.10485 34.603 8.98644C34.2463 9.86803 34.0678 10.9687 34.0678 12.2876C34.0678 13.4729 34.2503 14.5775 34.6139 15.6001C34.9784 16.6226 35.5017 17.5112 36.1856 18.268C36.8691 19.0234 37.69 19.6087 38.6478 20.0237C39.606 20.4388 40.6649 20.6461 41.8236 20.6461C42.2402 20.6461 42.5998 20.6317 42.9048 20.602C43.2098 20.5719 43.4811 20.5056 43.7187 20.4013C44.0009 20.2681 44.1422 19.9945 44.1422 19.579V17.4898C44.1422 16.1858 44.1348 14.9969 44.1199 14.5518C44.1055 14.1664 44.0307 13.8779 43.8977 13.685C43.7633 13.4921 43.5178 13.3586 43.1612 13.2853C42.9836 13.2403 42.693 13.2176 42.2918 13.2176C42.0691 13.2176 41.9579 13.1587 41.9579 13.0404C41.9579 12.8929 42.1141 12.8183 42.4261 12.8183C42.8274 12.8183 43.503 12.8331 44.4538 12.8628C45.1079 12.8772 45.5092 12.8842 45.6571 12.8842C45.8247 12.8842 46.2207 12.872 46.8254 12.8454C46.9558 12.8454 46.9847 12.9318 46.9838 12.9863ZM53.9662 15.0219V11.1093V7.68549C53.9662 7.19669 53.9517 6.76724 53.9224 6.39584C53.8774 5.6705 53.6244 5.25501 53.1637 5.15158C52.9414 5.09223 52.6732 5.06299 52.3616 5.06299C52.124 5.06299 52.005 4.98879 52.005 4.84084C52.005 4.7217 52.1831 4.66278 52.5402 4.66278C52.8224 4.66278 53.365 4.67718 54.1666 4.7073C54.791 4.7217 55.2141 4.72868 55.4377 4.72868C55.6154 4.72868 55.9798 4.7217 56.5294 4.7073C57.3022 4.67718 57.8443 4.66278 58.1567 4.66278C58.4687 4.66278 58.624 4.7217 58.624 4.84084C58.624 4.98879 58.5059 5.06299 58.2679 5.06299C58.0893 5.06299 57.8671 5.08524 57.5993 5.12976C57.3022 5.18868 57.0978 5.31481 56.9858 5.50771C56.8751 5.69974 56.8042 5.99651 56.7745 6.39584C56.7447 6.76724 56.7294 7.19669 56.7294 7.68549V11.1093V15.0219C56.7294 16.4001 56.7333 17.448 56.7416 18.1681C56.7482 18.886 56.7745 19.4599 56.8195 19.8907C56.8633 20.2311 56.9455 20.4873 57.0646 20.6575C57.1831 20.8277 57.398 20.935 57.7108 20.9791C57.8745 20.9944 58.06 21.0123 58.2679 21.035C58.4761 21.0572 58.6687 21.069 58.8468 21.069C59.0848 21.069 59.2042 21.1275 59.2042 21.2462C59.2042 21.395 59.0625 21.4688 58.7807 21.4688C58.1567 21.4688 57.3389 21.454 56.329 21.4234C55.8534 21.4094 55.5117 21.402 55.3034 21.402C55.1852 21.402 54.8352 21.4094 54.2558 21.4234C53.3943 21.454 52.8075 21.4688 52.4951 21.4688C52.1984 21.4688 52.0497 21.395 52.0497 21.2462C52.0497 21.1275 52.1682 21.069 52.4063 21.069C52.6732 21.069 52.9414 21.0385 53.2088 20.9791C53.5649 20.9054 53.7811 20.5348 53.855 19.868C53.8997 19.4385 53.929 18.8633 53.9443 18.1454C53.9587 17.4266 53.9662 16.3853 53.9662 15.0219Z" fill="white"/>
<path fill-rule="evenodd" clip-rule="evenodd" d="M17.7411 6.62549L18.3764 6.28668L18.1868 6.15458L17.772 6.40025L17.8563 5.92459L17.6668 5.79297L17.5682 6.50479L17.3125 6.87021L17.4854 6.9909L17.7411 6.62549Z" fill="white"/>
<path fill-rule="evenodd" clip-rule="evenodd" d="M14.3222 5.24285L14.4727 5.26905L14.6079 5.7323L14.8512 5.77422L14.6915 5.27123C14.719 5.26643 14.7462 5.25814 14.7724 5.24591C14.7987 5.23325 14.8232 5.21709 14.8455 5.19614C14.8678 5.17605 14.8866 5.1516 14.9024 5.12322C14.9181 5.09484 14.9291 5.06209 14.9361 5.02411C14.9435 4.9787 14.9435 4.93504 14.9343 4.89269C14.9256 4.85077 14.9089 4.81191 14.884 4.77698C14.8591 4.74249 14.8262 4.71236 14.7864 4.68748C14.7462 4.66259 14.6989 4.64512 14.6446 4.63596L14.2242 4.56348L14.0391 5.63406L14.2482 5.66987L14.3222 5.24285ZM14.4014 4.78571L14.5987 4.82021C14.6446 4.82807 14.6797 4.84728 14.7028 4.87784C14.726 4.90884 14.7339 4.94552 14.7265 4.98743C14.719 5.02978 14.6998 5.06166 14.667 5.08305C14.635 5.10401 14.5956 5.111 14.5497 5.1027L14.3519 5.06864L14.4014 4.78571Z" fill="white"/>
<path fill-rule="evenodd" clip-rule="evenodd" d="M19.1847 7.24871L18.6614 7.21973L18.6328 7.74243L19.1557 7.77094L19.1847 7.24871Z" fill="white"/>
<path fill-rule="evenodd" clip-rule="evenodd" d="M5.62567 12.4482L5.43709 12.4416L5.42042 12.9448L5.1566 12.9363L5.17041 12.5081L4.98088 12.5019L4.96707 12.9301L4.7123 12.922L4.72801 12.4193L4.53896 12.4131L4.51562 13.1278L5.60329 13.1624L5.62567 12.4482Z" fill="white"/>
<path fill-rule="evenodd" clip-rule="evenodd" d="M13.9873 17.0449L13.8906 17.3025H15.5174L15.4626 17.0449H13.9873Z" fill="white"/>
<path fill-rule="evenodd" clip-rule="evenodd" d="M16.4263 6.35577L16.8125 5.54606L17.0692 5.6677L17.1506 5.49711L16.4449 5.16211L16.3634 5.3327L16.6206 5.45482L16.2344 6.26501L16.4263 6.35577Z" fill="white"/>
<path fill-rule="evenodd" clip-rule="evenodd" d="M17.5625 19.1165L17.682 19.2628L18.073 18.9454L18.2392 19.1493L17.9073 19.4206L18.0268 19.5674L18.3597 19.2966L18.5206 19.4933L18.1301 19.8117L18.2492 19.958L18.8045 19.5061L18.1178 18.665L17.5625 19.1165Z" fill="white"/>
<path fill-rule="evenodd" clip-rule="evenodd" d="M19.8438 9.73689L19.9395 9.96022L20.3704 10.0049L20.1033 10.347L20.1985 10.5699L20.58 10.041L21.1919 10.1246L21.0981 9.90415L20.7 9.86566L20.949 9.55442L20.8552 9.33203L20.49 9.8305L19.8438 9.73689Z" fill="white"/>
<path fill-rule="evenodd" clip-rule="evenodd" d="M18.2655 9.28249L18.2563 9.23535H7.91368L7.90537 9.28336C7.90143 9.303 7.56057 11.3053 8.0257 13.5852C8.45626 15.6941 9.68231 18.4798 13.0817 19.7742L13.1023 19.7825L13.1237 19.7738C16.5704 18.4309 17.7847 15.6478 18.1968 13.5495C18.6423 11.2809 18.2695 9.30213 18.2655 9.28249ZM14.2938 13.3003C14.3135 13.3133 14.3388 13.3133 14.3428 13.336C14.3463 13.3579 14.3774 13.3888 14.39 13.4172C14.3984 13.4351 14.415 13.4425 14.4084 13.4552C14.4045 13.4635 14.3699 13.4971 14.3555 13.501C14.3476 13.5028 14.3323 13.4857 14.3017 13.4936C14.275 13.501 14.2124 13.4949 14.1984 13.5115C14.1883 13.5228 14.1476 13.5346 14.1231 13.5403C14.1048 13.4609 14.0859 13.3801 14.0654 13.2968C14.1371 13.2876 14.2076 13.2789 14.278 13.271C14.282 13.2819 14.2872 13.2959 14.2938 13.3003ZM10.5631 13.3897C10.5596 13.4692 10.4144 13.5062 10.4809 13.5612C10.5399 13.6106 10.4962 13.6559 10.4454 13.7109H10.1536C10.1492 13.6302 10.1461 13.5495 10.1453 13.4705C10.2748 13.4133 10.4113 13.357 10.5531 13.3024C10.557 13.3286 10.5636 13.3762 10.5631 13.3897ZM16.4422 13.443C16.447 13.4718 16.4781 13.5028 16.4838 13.5403C16.4938 13.6062 16.4759 13.6786 16.4672 13.6974C16.465 13.7018 16.4637 13.7066 16.4628 13.7109H15.967C15.957 13.6568 15.9456 13.6027 15.9342 13.549C15.9193 13.4814 15.9031 13.4133 15.8856 13.3448C15.9211 13.3518 15.9819 13.3679 15.992 13.391C16.0003 13.4094 15.9797 13.436 15.9941 13.4447C16.0103 13.4543 16.0265 13.4639 16.0445 13.4735C16.0615 13.4836 16.0423 13.5076 16.0633 13.5167C16.0922 13.5294 16.0908 13.5163 16.1184 13.5355C16.177 13.5774 16.188 13.4761 16.202 13.4683C16.2409 13.446 16.2694 13.4918 16.314 13.4914C16.3416 13.491 16.3818 13.4255 16.4177 13.3967C16.43 13.3867 16.4413 13.381 16.4518 13.3832C16.4606 13.3854 16.437 13.4159 16.4422 13.443ZM11.4873 13.5093C11.4527 13.4897 11.3836 13.5097 11.3455 13.5019C11.3429 13.5014 11.2698 13.4648 11.2418 13.4482C11.2343 13.4434 11.2413 13.4369 11.247 13.4342C11.2575 13.4294 11.2698 13.4203 11.2737 13.4194C11.2803 13.4177 11.261 13.3832 11.2497 13.3753C11.2387 13.3679 11.2313 13.3526 11.2225 13.3391C11.2116 13.3229 11.1976 13.3029 11.1967 13.302C11.1744 13.2592 11.1985 13.2313 11.1359 13.2265C11.1219 13.2256 11.0558 13.3339 11.0072 13.3365C11.0002 13.2715 10.9937 13.2073 10.9889 13.1444C11.3608 13.0214 11.4759 12.9878 11.7957 12.8979C11.8307 13.1231 11.8727 13.3566 11.9196 13.594C11.7992 13.6271 11.6807 13.6612 11.5625 13.6965C11.5726 13.676 11.5844 13.6429 11.584 13.6346C11.5835 13.6066 11.4995 13.5172 11.4873 13.5093ZM9.73438 13.062C9.73438 13.0685 9.70856 13.0663 9.69937 13.0663C9.69019 13.0663 9.68318 13.0711 9.681 13.0781C9.67881 13.0851 9.67837 13.106 9.68056 13.1222C9.68318 13.1383 9.6228 13.2274 9.61361 13.2348C9.60661 13.24 9.57161 13.2422 9.5436 13.2365C9.5576 13.1628 9.57336 13.0903 9.5913 13.0192C9.62411 13 9.65824 12.9808 9.69281 12.9616C9.75626 12.9921 9.73438 13.0567 9.73438 13.062ZM9.6368 12.856C9.6705 12.7469 9.709 12.6412 9.75188 12.5391C9.77814 12.5688 9.82495 12.5985 9.81489 12.6439C9.80658 12.681 9.77507 12.7002 9.76501 12.7355C9.75757 12.7626 9.75057 12.777 9.73613 12.8023C9.70244 12.8202 9.66918 12.8381 9.6368 12.856ZM10.1369 12.2559C10.1054 12.2781 10.1256 12.2908 10.0739 12.3161C10.0674 12.3192 9.99735 12.4091 10.0114 12.4344C10.0254 12.4601 9.97723 12.5671 10.0061 12.5832C10.0345 12.5993 9.98817 12.6373 9.98817 12.6443C9.98773 12.6513 9.92122 12.6434 9.90547 12.6181C9.8674 12.5579 9.92034 12.4972 9.9129 12.4785C9.90022 12.4466 9.84683 12.4117 9.81227 12.406C9.82452 12.3803 9.83721 12.3549 9.85033 12.3296C9.96235 12.2633 10.0884 12.1974 10.2262 12.1319C10.2122 12.1712 10.1986 12.2114 10.1859 12.252C10.1728 12.248 10.1584 12.2415 10.1369 12.2559ZM10.3776 12.063C10.5251 11.9979 10.6878 11.9334 10.8607 11.8696C10.8777 11.864 10.8944 11.8579 10.911 11.8517C10.8821 11.9988 10.8615 12.1581 10.8502 12.3275C10.8265 12.3357 10.8033 12.3445 10.7793 12.3528C10.757 12.3331 10.753 12.2921 10.743 12.2799C10.725 12.2581 10.6926 12.2707 10.6795 12.265C10.6638 12.2576 10.6642 12.2319 10.6449 12.2319C10.6349 12.2319 10.5706 12.2127 10.5404 12.1939C10.5194 12.1804 10.4214 12.1258 10.4003 12.1271C10.3807 12.1284 10.3636 12.135 10.3478 12.1442C10.3566 12.1193 10.3667 12.0927 10.3776 12.063ZM10.3719 13.2392C10.3557 13.2453 10.3395 13.2518 10.3238 13.2584C10.3242 13.1959 10.3373 13.2182 10.3465 13.1759C10.3492 13.1641 10.2918 13.1475 10.277 13.1362C10.2065 13.0825 10.2363 13.0013 10.2542 12.9804C10.2721 12.9594 10.3986 12.8464 10.3601 12.8298C10.2831 12.7957 10.4227 12.646 10.4704 12.6648C10.5176 12.684 10.5727 12.5719 10.6274 12.5893C10.6826 12.6068 10.6629 12.6107 10.6765 12.6522C10.6843 12.6775 10.6673 12.7093 10.6638 12.732C10.6589 12.7578 10.6152 12.7665 10.6261 12.8088C10.6371 12.8507 10.5137 12.9996 10.5006 13.007C10.4752 13.0214 10.4725 13.1156 10.5307 13.0886C10.5797 13.0663 10.6034 13.1314 10.6126 13.1453C10.5307 13.1763 10.4502 13.2073 10.3719 13.2392ZM11.2855 11.8142C11.2895 11.8352 11.3044 11.8592 11.3065 11.8749C11.3083 11.8923 11.3306 11.908 11.3359 11.9059C11.3442 11.9024 11.3516 11.8993 11.3582 11.8967C11.3866 11.8849 11.3932 11.9085 11.4229 11.9059C11.4291 11.905 11.4448 11.912 11.4601 11.9198C11.4789 11.9294 11.4728 11.9595 11.4623 11.9726C11.4514 11.9857 11.4417 11.9984 11.4321 12.0001C11.3647 12.0124 11.2974 11.9731 11.3197 12.0992C11.324 12.1258 11.3359 12.1507 11.3499 12.1655C11.2317 12.2009 11.1337 12.2332 10.9806 12.2834C10.9932 12.1114 11.0151 11.9504 11.0466 11.805C11.16 11.7675 11.2431 11.7405 11.317 11.7173C11.2974 11.7483 11.2803 11.7889 11.2855 11.8142ZM16.2576 13.0432C16.1924 13.0297 16.1565 13.062 16.121 13.0934C16.0436 13.0864 15.9635 13.0803 15.8804 13.0764C15.8808 13.0742 15.8813 13.0724 15.8826 13.0703C15.9123 12.993 15.8817 12.9044 15.9158 12.8224C15.9241 12.8019 15.9648 12.7634 15.9946 12.7691C16.0073 12.7713 16.0138 12.8014 16.0366 12.8132C16.0449 12.8176 16.0528 12.8363 16.0576 12.8551C16.0598 12.8634 16.0834 12.8503 16.0996 12.8573C16.1237 12.8678 16.1582 12.8896 16.1753 12.8765C16.2068 12.8534 16.2427 12.8241 16.265 12.8154C16.2667 12.8145 16.2689 12.8141 16.2707 12.8136C16.3013 12.8856 16.3298 12.9585 16.3569 13.0327C16.3254 13.0349 16.2829 13.0484 16.2576 13.0432ZM15.396 13.4526C15.3969 13.4451 15.4183 13.4596 15.4428 13.4521C15.4533 13.4486 15.4564 13.4194 15.4568 13.4194C15.4354 13.405 15.3706 13.3937 15.3212 13.3731C15.3094 13.3679 15.3155 13.3491 15.3028 13.3452C15.2503 13.3273 15.1991 13.3229 15.182 13.3033C15.1536 13.2697 15.161 13.2204 15.2035 13.2186C15.2376 13.2208 15.3207 13.2479 15.3798 13.2666C15.3763 13.2658 15.4734 13.2636 15.4734 13.2666C15.4874 13.2824 15.4826 13.3609 15.5067 13.3662C15.5487 13.3762 15.5535 13.4142 15.578 13.4451C15.5894 13.46 15.6143 13.4543 15.6336 13.4731C15.6642 13.5023 15.69 13.5569 15.7067 13.5796C15.7408 13.6258 15.7898 13.611 15.8161 13.5996C15.8239 13.6363 15.8318 13.6734 15.8388 13.7109H15.3907C15.3851 13.6944 15.3781 13.6708 15.3824 13.659C15.3855 13.6516 15.3986 13.649 15.4017 13.6394C15.41 13.6145 15.4314 13.5905 15.4358 13.5586C15.4384 13.5342 15.3929 13.4748 15.396 13.4526ZM14.5948 12.4767C14.657 12.5618 14.6513 12.5601 14.5699 12.6037C14.5388 12.6199 14.4557 12.6683 14.4574 12.7133C14.4587 12.7504 14.4999 12.7722 14.4469 12.7896C14.4255 12.7966 14.3476 12.8669 14.3283 12.8224C14.3143 12.7909 14.3441 12.7473 14.3257 12.7172C14.3178 12.7032 14.2894 12.701 14.2728 12.7093C14.2662 12.7128 14.2601 12.7045 14.2566 12.6949C14.2277 12.6216 14.0641 12.564 14.0177 12.5225C14.0006 12.5068 14.0032 12.4876 14.0085 12.468C14.243 12.4414 14.359 12.4322 14.6036 12.4134C14.6049 12.4174 14.6058 12.4208 14.6075 12.4243C14.6114 12.4457 14.583 12.4597 14.5948 12.4767ZM12.7557 12.6683C12.8078 12.8843 12.8616 13.1156 12.9163 13.357C12.6249 13.4163 12.3339 13.4844 12.0491 13.5595C12.0005 13.3125 11.9585 13.0785 11.9248 12.8625C12.2005 12.7896 12.4796 12.7246 12.7557 12.6683ZM12.6127 11.1273C12.6166 11.1225 12.6223 11.0967 12.6245 11.0828C12.628 11.0614 12.5899 11.0295 12.5825 11.0151C12.579 11.0077 12.5632 10.9985 12.5448 10.9894C12.6748 10.9658 12.8034 10.9453 12.9286 10.9283C12.9938 10.9998 13.0599 11.088 13.1259 11.1906C12.9518 11.2154 12.7741 11.2451 12.596 11.2792C12.5842 11.2421 12.5707 11.1853 12.6127 11.1273ZM14.7436 11.6078C14.758 11.5698 14.7764 11.5484 14.7694 11.4851C14.7685 11.4812 14.7821 11.4659 14.7935 11.4524C14.839 11.5022 14.8832 11.5541 14.9265 11.6078C14.8784 11.6073 14.8368 11.6073 14.7992 11.6073C14.7799 11.6073 14.7615 11.6073 14.7436 11.6078ZM14.2877 11.8605C14.2824 11.8801 14.2369 11.9072 14.2238 11.946C14.1931 12.0359 14.3025 12.1311 14.2947 12.1372C14.2929 12.1385 14.2916 12.1455 14.2938 12.149C14.3025 12.1655 14.3187 12.1996 14.3388 12.2183C14.3568 12.2354 14.3778 12.2419 14.3918 12.2424C14.3957 12.2424 14.4023 12.2397 14.4067 12.2371C14.4089 12.2358 14.4172 12.2354 14.4237 12.2362C14.4316 12.2375 14.4443 12.2371 14.4622 12.2258C14.4771 12.2162 14.4924 12.2031 14.5069 12.1891C14.5226 12.2227 14.5375 12.2568 14.5524 12.2917C14.2754 12.3122 14.1507 12.3244 13.9389 12.3497C13.9319 12.3314 13.9135 12.3091 13.8973 12.2921C13.889 12.2834 13.8186 12.3235 13.791 12.3501C13.7258 12.159 13.6571 11.9787 13.5867 11.8125C13.8234 11.7824 14.0553 11.7597 14.2776 11.7457C14.285 11.7583 14.2925 11.771 14.2999 11.7837C14.2684 11.8251 14.2968 11.8251 14.2877 11.8605ZM11.9003 12.667C11.9498 12.6583 11.955 12.6901 12.0018 12.6072C12.022 12.5719 12.0036 12.543 12.0106 12.4937C12.0154 12.4575 12.0753 12.3061 12.0373 12.2764C11.9935 12.2423 12.1257 12.166 12.1589 12.1703C12.1856 12.1738 12.1878 12.1538 12.1944 12.138C12.1957 12.1354 12.2035 12.0887 12.2105 12.0612C12.3366 12.032 12.4613 12.0045 12.5851 11.9792C12.6293 12.1503 12.677 12.3405 12.7269 12.5461C12.3423 12.6273 12.2342 12.6539 11.9056 12.7377C11.9016 12.7146 11.8986 12.6914 11.8955 12.6683C11.8968 12.6679 11.8986 12.6674 11.9003 12.667ZM12.6569 11.4939C12.652 11.486 12.6709 11.4515 12.6586 11.4432C12.6494 11.4363 12.6284 11.4149 12.6153 11.3948C12.8091 11.3581 13.003 11.3258 13.1929 11.2992C13.2651 11.4227 13.3355 11.562 13.4047 11.7138C13.1627 11.7479 12.9203 11.7889 12.6818 11.8356C12.6612 11.7583 12.6407 11.6828 12.6197 11.6091C12.652 11.5724 12.6805 11.5327 12.6569 11.4939ZM14.2067 11.6296C13.917 11.6514 13.8142 11.6632 13.5364 11.6968C13.4668 11.5436 13.3963 11.4048 13.3259 11.2822C13.5302 11.2569 13.7249 11.2381 13.9065 11.2268C14.0098 11.3429 14.1104 11.4782 14.2067 11.6296ZM13.9582 11.1068C13.8698 11.0134 13.7788 10.9304 13.6869 10.8602C13.8028 10.8558 13.9148 10.8554 14.0203 10.8584C14.152 10.9226 14.2807 11.002 14.4045 11.095C14.2623 11.0941 14.1126 11.098 13.9582 11.1068ZM13.8041 11.1168C13.6256 11.1303 13.4432 11.1491 13.2594 11.1727C13.1968 11.0732 13.1334 10.9854 13.0704 10.9104C13.2533 10.8885 13.3233 10.8829 13.5049 10.8693C13.6059 10.9361 13.7061 11.019 13.8041 11.1168ZM12.5545 11.8609C12.4678 11.8788 12.3812 11.8976 12.2954 11.9172C12.2959 11.9155 12.2967 11.9142 12.2972 11.9128C12.3598 11.7496 12.4582 11.7396 12.5129 11.706C12.5265 11.7557 12.54 11.8072 12.5545 11.8609ZM12.9435 11.9115C12.9194 11.9377 12.8826 11.9722 12.8634 11.9835C12.8538 11.9892 12.8096 12.0761 12.8279 12.1027C12.8463 12.1284 12.8599 12.162 12.8875 12.1778C12.8748 12.1939 12.975 12.1232 12.9693 12.1533C12.957 12.2135 13.052 12.1302 13.0572 12.1271C13.1132 12.0769 13.1749 12.0023 13.2296 11.9552C13.2484 11.9395 13.2034 11.9011 13.1561 11.8753C13.2432 11.8618 13.332 11.8483 13.4554 11.8304C13.5276 12.001 13.5981 12.1865 13.6646 12.3842C13.4003 12.4208 13.129 12.4662 12.8568 12.5195C12.8083 12.3222 12.7606 12.1324 12.7133 11.9543C12.8043 11.9368 12.8783 11.9233 12.9435 11.9115ZM14.8814 12.1372C14.9094 12.1044 14.8582 12.0687 14.8504 12.0481C14.8434 12.0289 14.9261 11.9338 14.8928 11.9041C14.8823 11.8945 14.7808 11.8448 14.7803 11.8378C14.7803 11.8369 14.7707 11.7579 14.7615 11.7278C14.8377 11.7269 14.8981 11.7278 14.9755 11.7291C14.9746 11.7435 14.972 11.7614 14.9676 11.7819C14.9549 11.8378 15.06 11.843 15.0652 11.8421C15.0713 11.8404 15.0836 11.8391 15.0967 11.8382C15.1243 11.8788 15.1514 11.9203 15.1781 11.963C15.137 11.9761 15.1068 12.0953 15.1072 12.1271C15.1094 12.2642 15.1536 12.1751 15.1584 12.221C15.1597 12.2358 15.1475 12.2533 15.1361 12.2685C15.0241 12.2694 14.9094 12.2725 14.793 12.2777C14.8049 12.2048 14.9064 12.2415 14.9138 12.1751C14.9147 12.1673 14.8604 12.1625 14.8814 12.1372ZM15.3995 11.7527C15.403 11.7544 15.4065 11.7553 15.4096 11.7575C15.4157 11.761 15.4783 11.8967 15.4708 11.9238C15.4621 11.9534 15.3614 11.936 15.3085 11.9438C15.2757 11.891 15.2429 11.84 15.2087 11.7898C15.2131 11.7863 15.2179 11.7828 15.224 11.778C15.2477 11.7618 15.2792 11.7496 15.3111 11.7448C15.3413 11.747 15.3706 11.7496 15.3995 11.7527ZM15.0254 11.5423C14.9759 11.4812 14.9252 11.4227 14.8727 11.3664C14.9182 11.3241 15.0197 11.2783 15.0499 11.3189C15.0827 11.3629 15.0232 11.4947 15.0254 11.5423ZM14.4692 11.2682C14.4741 11.2752 14.471 11.3176 14.4771 11.3324C14.5077 11.4022 14.4609 11.3581 14.4434 11.4494C14.4264 11.5397 14.4876 11.4904 14.411 11.5681C14.4001 11.579 14.3905 11.5973 14.3813 11.6187C14.3704 11.6191 14.359 11.6196 14.3472 11.6204C14.2553 11.4729 14.159 11.3385 14.0579 11.2189C14.2561 11.2106 14.334 11.2102 14.4933 11.2124C14.5069 11.2373 14.4754 11.2482 14.4692 11.2682ZM13.5355 10.7559C13.4878 10.7275 13.4392 10.7013 13.3911 10.6786C13.4117 10.6786 13.4322 10.6791 13.451 10.6795C13.5495 10.6943 13.6479 10.717 13.7451 10.748C13.6829 10.7493 13.6208 10.7524 13.5355 10.7559ZM12.975 10.8091C12.9225 10.7615 12.8879 10.7306 12.8542 10.7061C12.9334 10.6978 13.01 10.6908 13.0839 10.6865C13.1657 10.7039 13.248 10.7323 13.3294 10.7707C13.2152 10.7803 13.0966 10.793 12.975 10.8091ZM13.7048 12.5055C13.7232 12.5623 13.7411 12.6203 13.7591 12.6788C13.7468 12.684 13.7319 12.6906 13.7267 12.6914C13.7018 12.6949 13.714 12.7787 13.7127 12.7813C13.7044 12.8014 13.7123 12.8285 13.7193 12.8503C13.7267 12.8752 13.7565 12.8551 13.7635 12.8669C13.7849 12.9018 13.7083 12.9952 13.7753 12.9991C13.7893 13 13.816 12.9891 13.844 12.9721C13.8632 13.0432 13.8825 13.1148 13.9017 13.1877C13.6169 13.2269 13.3307 13.2749 13.048 13.3308C12.9863 13.0607 12.9347 12.8394 12.8866 12.6426C13.1574 12.5893 13.4322 12.543 13.7048 12.5055ZM14.0334 13.1698C14.0019 13.0484 13.97 12.9306 13.9367 12.8163C14.061 12.773 14.0155 12.9179 14.0689 12.8739C14.0781 12.8664 14.138 12.9057 14.0711 12.9341C14.0282 12.9524 14.0833 12.986 14.0982 12.9965C14.1415 13.0257 14.1953 12.8285 14.3047 12.9201C14.3148 12.9284 14.3052 12.9406 14.2955 12.9524C14.2855 12.9646 14.2907 12.9725 14.2715 12.9838C14.2487 12.9974 14.243 13.0044 14.2233 13.0092C14.2133 13.0113 14.2303 13.0611 14.2316 13.0641C14.2395 13.0895 14.1769 13.1309 14.1402 13.1571C14.1043 13.161 14.0689 13.1654 14.0334 13.1698ZM15.0871 13.5621C15.0718 13.4918 15.0551 13.4225 15.0385 13.3539C15.0713 13.3897 15.1055 13.422 15.1584 13.4264C15.1812 13.4286 15.2017 13.4312 15.2214 13.4351C15.2446 13.4395 15.2647 13.4652 15.2892 13.4753C15.3155 13.4866 15.3452 13.5281 15.3553 13.5508C15.3597 13.5604 15.3676 13.6175 15.3426 13.6311C15.3168 13.645 15.2739 13.6459 15.2433 13.6459C15.2253 13.6459 15.2 13.6625 15.2017 13.693C15.2017 13.7009 15.2013 13.7066 15.2004 13.7109H15.1186C15.1085 13.6612 15.098 13.6114 15.0871 13.5621ZM16.412 12.8446C16.496 12.859 16.6833 12.8472 16.7446 12.9904C16.7979 13.1152 16.58 13.0449 16.486 13.0401C16.4623 12.9738 16.4378 12.9088 16.412 12.8446ZM14.6556 11.0151C14.6495 11.019 14.5909 10.9942 14.5738 11.0081C14.5756 11.0164 14.5638 11.0461 14.5668 11.0492C14.5712 11.0535 14.5616 11.0531 14.5454 11.0649C14.4281 10.9758 14.3599 10.9256 14.275 10.8746C14.3384 10.8807 14.3988 10.8885 14.4544 10.8981C14.5204 10.9256 14.5852 10.9558 14.6495 10.9885C14.6583 11.0003 14.6622 11.0103 14.6556 11.0151ZM12.6744 10.7279C12.7247 10.7502 12.7754 10.7842 12.8279 10.8292C12.7361 10.8427 12.6433 10.858 12.5505 10.8746C12.5462 10.8733 12.5427 10.8711 12.5405 10.8663C12.5413 10.865 12.5278 10.8541 12.5125 10.8532C12.4862 10.8519 12.4495 10.8606 12.4315 10.8567C12.4118 10.8523 12.4175 10.8449 12.4223 10.834C12.4315 10.8126 12.4871 10.8331 12.4945 10.7738C12.495 10.7677 12.4958 10.7615 12.4976 10.755C12.5567 10.745 12.6157 10.7362 12.6744 10.7279ZM11.7765 12.7722C11.3954 12.8791 11.289 12.9131 10.9801 13.0148C10.9784 12.9865 10.9766 12.9581 10.9753 12.9302C11.0589 12.9123 11.0418 12.8307 11.0418 12.8267C11.0414 12.8032 11.0685 12.7298 11.0685 12.7298C11.1302 12.7202 11.0978 12.5902 11.132 12.5649C11.1661 12.54 11.1267 12.4737 11.0991 12.4833C11.0773 12.4911 11.0571 12.5086 11.0479 12.5278C11.0388 12.547 11.0029 12.5391 11.0051 12.5269C11.0068 12.5164 10.9924 12.4828 10.9709 12.4741C10.9718 12.454 10.9722 12.4335 10.9731 12.4134C11.2002 12.3384 11.3223 12.3 11.4645 12.2585C11.4452 12.3021 11.4417 12.3606 11.4505 12.3903C11.4575 12.4126 11.4829 12.4043 11.4956 12.4248C11.5056 12.4409 11.4947 12.4872 11.5043 12.4994C11.5205 12.5208 11.5511 12.5575 11.5533 12.5601C11.5809 12.5911 11.5997 12.6491 11.6251 12.653C11.6395 12.6552 11.6627 12.6596 11.6719 12.674C11.6785 12.684 11.7165 12.6845 11.7231 12.6923C11.7402 12.7128 11.7546 12.7189 11.7686 12.7176C11.7712 12.7355 11.7739 12.7538 11.7765 12.7722ZM11.4076 11.5668C11.4076 11.5668 11.4076 11.5672 11.4072 11.5672C11.2947 11.6004 11.2098 11.6279 11.0781 11.6715C11.0886 11.6335 11.0996 11.5973 11.111 11.562C11.2974 11.4572 11.3849 11.5681 11.4076 11.5668ZM10.7281 11.5899C10.7705 11.5886 10.8178 11.6527 10.8401 11.654C10.8664 11.6549 10.9245 11.6021 10.9753 11.5947C10.9631 11.6348 10.9512 11.6754 10.9407 11.7178L10.9175 11.7256C10.8887 11.7361 10.8598 11.7461 10.8305 11.7566C10.69 11.8081 10.5631 11.8583 10.4454 11.908C10.5093 11.7732 10.5828 11.651 10.6642 11.5423C10.6725 11.5388 10.6813 11.5353 10.6896 11.5314C10.697 11.5602 10.7058 11.5908 10.7281 11.5899ZM10.242 11.7566C10.3106 11.716 10.385 11.6759 10.4655 11.6361C10.42 11.7069 10.3785 11.7828 10.3404 11.8618C10.3233 11.843 10.2923 11.8256 10.277 11.8234C10.2713 11.8229 10.2371 11.8098 10.2083 11.7959C10.2196 11.7828 10.2306 11.7693 10.242 11.7566ZM10.1063 11.9416C10.1155 11.9334 10.263 11.9194 10.2726 11.9364C10.2761 11.9434 10.287 11.9491 10.2984 11.9521C10.2949 11.9604 10.291 11.9687 10.287 11.977C10.1706 12.0298 10.0599 12.0835 9.95797 12.138C9.99735 12.0748 10.0389 12.0137 10.0822 11.9543C10.0927 11.9499 10.1015 11.9456 10.1063 11.9416ZM9.47534 12.5906C9.56723 12.5156 9.60267 12.4881 9.67225 12.4418C9.60049 12.5998 9.54054 12.7665 9.49284 12.9398C9.45084 12.966 9.41627 12.9878 9.38695 13.0065C9.39221 12.9878 9.39571 12.962 9.38389 12.9437C9.37645 12.9323 9.35239 12.8952 9.33882 12.852C9.37033 12.7861 9.41277 12.7032 9.47534 12.5906ZM10.0201 13.5268C10.021 13.5874 10.0232 13.649 10.0267 13.7109H9.81533C9.80483 13.6935 9.79826 13.6629 9.79476 13.6346C9.86696 13.5983 9.94178 13.5625 10.0201 13.5268ZM12.0797 13.7109C12.078 13.7031 12.0762 13.6948 12.0745 13.6869C12.3606 13.6119 12.6525 13.5433 12.9452 13.4836C12.9614 13.5582 12.9785 13.6341 12.9955 13.7109H12.0797ZM13.1329 13.7109C13.1185 13.6459 13.104 13.5813 13.09 13.5185L13.0765 13.4578C13.4808 13.3814 13.5989 13.3635 13.9332 13.3147C13.9608 13.4268 13.9884 13.5468 14.0177 13.6795C14.0199 13.6895 14.0225 13.7005 14.0247 13.7109H13.1329ZM14.5506 13.6843C14.5808 13.6599 14.5738 13.6271 14.5974 13.5914C14.6158 13.5639 14.6653 13.5368 14.6648 13.5172C14.6648 13.5045 14.6377 13.4718 14.6368 13.4451C14.636 13.4229 14.6591 13.405 14.6727 13.3963C14.7103 13.3727 14.7663 13.4072 14.7882 13.3867C14.825 13.3535 14.8451 13.2867 14.8819 13.2636C14.9094 13.3683 14.9352 13.4761 14.9593 13.5857C14.9685 13.6276 14.9768 13.669 14.9856 13.7109H14.5331C14.5349 13.7018 14.5401 13.6926 14.5506 13.6843ZM12.7737 18.9717C10.6445 18.0119 9.39264 16.5626 8.79931 14.3595H12.7737V18.9717ZM13.4235 18.9682V14.3595H17.3615C16.8303 16.1257 15.6997 17.8985 13.4235 18.9682ZM17.5309 13.7109H17.5177C16.941 11.8146 15.1724 10.4303 13.0852 10.4303C10.9981 10.4303 9.22899 11.8146 8.65185 13.7109H8.64485C8.64354 13.7044 8.64222 13.6987 8.64091 13.6922C8.32324 12.0909 8.38887 10.6201 8.46151 9.85508H17.7164C17.8153 10.7659 17.8691 12.2031 17.5309 13.7109ZM21.0635 10.7184C21.0272 10.721 20.9896 10.7267 20.9493 10.7354C20.9099 10.7441 20.8671 10.7546 20.822 10.7655C20.776 10.7764 20.734 10.7878 20.6947 10.7987C20.6553 10.8092 20.619 10.8218 20.5857 10.8362C20.5525 10.8511 20.5231 10.869 20.4964 10.8908C20.4698 10.9126 20.4466 10.9401 20.426 10.9733C20.3976 11.02 20.3796 11.0693 20.3717 11.1208C20.3634 11.1727 20.3669 11.2277 20.3814 11.2857C20.3932 11.3342 20.4116 11.3783 20.4361 11.4184C20.4606 11.4586 20.4912 11.4922 20.5279 11.5192C20.5643 11.5463 20.6063 11.5664 20.6535 11.579C20.7012 11.5921 20.7533 11.596 20.8106 11.5912L20.7594 11.3826C20.7139 11.3822 20.6737 11.3717 20.6382 11.3512C20.6023 11.3307 20.5783 11.2945 20.5651 11.2421C20.5581 11.2137 20.5568 11.1867 20.5612 11.1622C20.5656 11.1374 20.5743 11.1155 20.5875 11.0968C20.5962 11.0841 20.6058 11.0728 20.6176 11.0627C20.6295 11.0523 20.6457 11.0426 20.6662 11.0335C20.6868 11.0239 20.7139 11.0143 20.7472 11.0047C20.7809 10.9946 20.822 10.9837 20.8727 10.9711C20.9231 10.9589 20.9655 10.9493 20.9996 10.9423C21.0333 10.9353 21.0618 10.9314 21.0845 10.9296C21.1073 10.9283 21.1261 10.9296 21.1414 10.9331C21.1559 10.9366 21.1707 10.9423 21.1839 10.9493C21.204 10.9597 21.2224 10.975 21.2372 10.9951C21.253 11.0147 21.2644 11.0392 21.2714 11.0675C21.2841 11.1199 21.2801 11.1635 21.2578 11.198C21.2364 11.2329 21.2057 11.2609 21.1655 11.2822L21.2175 11.4913C21.2705 11.4686 21.3151 11.4402 21.3506 11.4066C21.3869 11.3735 21.414 11.3364 21.4341 11.2953C21.4538 11.2543 21.4652 11.2107 21.4683 11.164C21.4718 11.1177 21.467 11.0697 21.4547 11.0208C21.4407 10.9623 21.4175 10.9122 21.386 10.8703C21.3549 10.8284 21.3156 10.7934 21.2687 10.7651C21.2355 10.745 21.2018 10.7315 21.1681 10.7245C21.1344 10.7179 21.0994 10.7158 21.0635 10.7184ZM19.6032 18.3778C19.5896 18.3464 19.5717 18.3163 19.5494 18.2879C19.5266 18.26 19.5008 18.2321 19.4706 18.2046C19.4413 18.1767 19.4089 18.1474 19.3735 18.1164C19.3385 18.0854 19.3052 18.0566 19.2742 18.0305C19.2431 18.0043 19.2125 17.9816 19.1814 17.9624C19.1508 17.9436 19.1193 17.9292 19.086 17.9192C19.0532 17.91 19.0173 17.9065 18.9784 17.9087C18.9237 17.9117 18.8729 17.9248 18.8252 17.9471C18.778 17.9702 18.7342 18.0038 18.6948 18.0483C18.6611 18.0854 18.6353 18.1256 18.6161 18.1684C18.5972 18.2111 18.5867 18.2556 18.585 18.3006C18.5832 18.3464 18.5907 18.3923 18.6069 18.4381C18.6226 18.4843 18.6489 18.5297 18.6856 18.5747L18.8287 18.4141C18.8033 18.3765 18.7889 18.3373 18.7858 18.2962C18.7828 18.2556 18.799 18.2151 18.8348 18.1749C18.8545 18.1531 18.876 18.1369 18.8987 18.1265C18.9219 18.116 18.9447 18.1108 18.9674 18.1112C18.9827 18.1108 18.9976 18.1125 19.0129 18.1164C19.0278 18.1204 19.0449 18.1282 19.0641 18.14C19.0838 18.1518 19.107 18.1684 19.1341 18.1902C19.1608 18.212 19.1936 18.2404 19.2326 18.2749C19.2711 18.3089 19.303 18.3381 19.328 18.3621C19.3534 18.3866 19.3722 18.4071 19.3866 18.4254C19.4006 18.4433 19.4102 18.4595 19.4159 18.4734C19.4216 18.4883 19.4247 18.5027 19.4264 18.5179C19.4291 18.5406 19.4269 18.5642 19.419 18.5878C19.4116 18.6118 19.3984 18.6345 19.3787 18.6567C19.3429 18.6969 19.3039 18.7178 19.2632 18.7196C19.2221 18.7209 19.1818 18.7117 19.1416 18.6912L18.9985 18.8518C19.0471 18.8824 19.0952 18.9033 19.1433 18.9138C19.1915 18.9243 19.2374 18.926 19.2825 18.919C19.328 18.912 19.37 18.8968 19.4102 18.8732C19.4501 18.8496 19.4873 18.8186 19.5214 18.7807C19.5612 18.7362 19.5892 18.689 19.6063 18.6397C19.6233 18.59 19.6299 18.538 19.6268 18.4835C19.6246 18.4446 19.6168 18.4093 19.6032 18.3778Z" fill="white"/>
<path fill-rule="evenodd" clip-rule="evenodd" d="M19.8099 9.28066L19.5394 8.85584L19.7628 8.71424L19.9928 9.07585L20.1528 8.97464L19.9228 8.61255L20.138 8.47665L20.4085 8.90146L20.5685 8.79977L20.1838 8.19629L19.2656 8.77839L19.6499 9.38187L19.8099 9.28066Z" fill="white"/>
<path fill-rule="evenodd" clip-rule="evenodd" d="M16.375 20.6472L16.8788 20.7889L17.0212 20.2856L16.5174 20.1436L16.375 20.6472Z" fill="white"/>
<path fill-rule="evenodd" clip-rule="evenodd" d="M15.8565 4.94791L15.6541 4.88281L15.3203 5.91633L15.5227 5.98096L15.8565 4.94791Z" fill="white"/>
<path fill-rule="evenodd" clip-rule="evenodd" d="M7.47962 7.74243L7.46962 7.21973L6.94531 7.23018L6.95627 7.75288L7.47962 7.74243Z" fill="white"/>
<path fill-rule="evenodd" clip-rule="evenodd" d="M8.71114 7.00773L8.06063 6.13672L7.89062 6.26359L8.54113 7.13413L8.71114 7.00773Z" fill="white"/>
<path fill-rule="evenodd" clip-rule="evenodd" d="M9.34732 6.59103L9.02778 6.00513L9.72591 6.38527L9.89211 6.29499L9.37256 5.34082L9.18589 5.44203L9.50447 6.02651L8.8073 5.64779L8.64062 5.73807L9.16017 6.69176L9.34732 6.59103Z" fill="white"/>
<path fill-rule="evenodd" clip-rule="evenodd" d="M6.87227 8.88541L6.70988 8.78752L6.4494 9.21804L6.2232 9.08213L6.44511 8.71577L6.2832 8.61788L6.06129 8.98472L5.84223 8.8531L6.10272 8.42211L5.94033 8.32422L5.57031 8.93673L6.50178 9.49744L6.87227 8.88541Z" fill="white"/>
<mask id="mask1_9535_4667" style="mask-type:luminance" maskUnits="userSpaceOnUse" x="0" y="0" width="27" height="27">
<path d="M0 26.1361V13.0681V0H26.2125V26.1361H0Z" fill="white"/>
</mask>
<g mask="url(#mask1_9535_4667)">
<path fill-rule="evenodd" clip-rule="evenodd" d="M24.4387 13.9954C24.9844 13.8191 26.2126 13.4337 26.2126 13.4337L24.475 12.7507C24.475 12.7507 25.6442 12.2261 26.1745 11.9874L24.3762 11.5065C24.8649 11.1953 25.9816 10.5747 25.9816 10.5747L24.1373 10.2722L25.6092 9.15891L23.7627 9.07948L25.1187 7.80903L23.2643 7.93385C23.638 7.50353 24.0861 6.95756 24.4707 6.53247L22.6404 6.84976L23.6761 5.31484L21.9013 5.84423C22.156 5.33055 22.7563 4.19714 22.7563 4.19714L21.1224 4.8352L21.7175 3.19815L20.1086 4.09153C20.2539 3.53682 20.4591 2.87127 20.5987 2.31089L19.0782 3.38669C19.0782 3.38669 19.2729 2.10577 19.3608 1.55587L17.9711 2.78442L18.0648 0.933086L17.9711 1.04219C17.5874 1.46247 17.2124 1.92902 16.8125 2.3074L16.7031 0.480509L15.6162 1.97615C15.5177 1.41054 15.3899 0.742366 15.3125 0.166716L14.3787 1.76274L13.8598 0.00392786L13.1317 1.68549L12.4206 0L11.8838 1.76274L10.9876 0.153187L10.652 1.96L9.58524 0.45956L9.44041 2.29736L8.21698 0.922612L8.28087 2.76914L6.89948 1.54627L7.16858 3.36574L5.67956 2.28253L6.13419 4.07581C6.13419 4.07581 5.03809 3.44648 4.53883 3.16149L5.19737 4.89368L3.49481 4.17401L4.33493 5.808L2.57199 5.27512L3.60245 6.8035L1.78 6.46919L2.96273 7.89763L1.12935 7.7488L2.45297 9.04369L0.610399 9.09082L2.07886 10.236L0.249411 10.4905L1.83995 11.4545C1.29343 11.6204 0.590709 11.7657 0.0450689 11.9263L1.71831 12.6879C1.18186 12.9109 0 13.3718 0 13.3718C0 13.3718 1.24749 13.7462 1.76688 13.9588L0.112016 14.8037C0.112016 14.8037 1.37701 15.0686 1.9384 15.1882C1.46496 15.5042 0.380679 16.2147 0.380679 16.2147L2.24032 16.3958C1.8137 16.7694 0.806427 17.5951 0.806427 17.5951L2.67701 17.5785L1.38357 18.9201L3.23796 18.6879C2.88966 19.1444 2.09811 20.1635 2.09811 20.1635L3.9245 19.7454L2.95223 21.3309L4.72655 20.7156L3.93106 22.3875C3.93106 22.3875 5.10504 21.7944 5.61918 21.5867L5.02234 23.3546L6.58706 22.3622L6.20945 24.1821L7.65647 23.0422L7.47706 24.8725L8.81338 23.5349L8.80025 25.4133C8.80025 25.4133 9.62243 24.3711 9.98605 23.9622C10.0648 24.5313 10.2136 25.8165 10.2136 25.8165L11.2051 24.2279L11.6055 26.0509L11.6864 25.9064L12.4613 24.3501L13.0796 26.136L13.7263 24.4104L14.5314 26.0601L14.9668 24.2362C14.9668 24.2362 15.6617 25.3347 15.9531 25.827L16.1885 23.9622C16.1885 23.9622 16.9796 24.9908 17.3485 25.4369L17.3988 23.6196L18.6791 24.8852L18.529 23.0688L19.9507 24.2157C19.8369 23.6916 19.5695 22.3749 19.5695 22.3749C20.0474 22.7013 20.6639 23.0779 21.1474 23.3891L20.5707 21.6124L22.2452 22.4355C22.2452 22.4355 21.683 21.2545 21.4646 20.7413C21.9796 20.9281 22.7051 21.1817 23.2149 21.389C23.277 21.4357 22.2982 19.7825 22.2982 19.7825L24.0786 20.2215L22.9808 18.7324L24.8028 18.9742L23.5128 17.6147L25.3847 17.6575L23.9605 16.4473L25.8171 16.2793L24.2725 15.2292L26.0932 14.8726L24.4387 13.9954ZM25.7335 13.3626L23.3002 13.2744L24.3976 12.8389C24.8435 13.01 25.2863 13.1858 25.7335 13.3626ZM22.853 15.6752L23.7535 16.3661L22.6036 16.4473C22.6036 16.4473 22.7804 15.9345 22.853 15.6752ZM22.4168 9.14189L23.5592 9.15891C23.2726 9.41815 23.0044 9.68131 22.692 9.9148L22.4168 9.14189ZM22.7791 10.1631L23.9097 10.332C23.5824 10.5546 23.3159 10.7807 22.9777 10.9827L22.7791 10.1631ZM23.0875 14.5811L24.0852 15.2035L22.9261 15.3902L23.0875 14.5811ZM23.0398 11.2682L24.1307 11.5501L23.165 12.0764L23.0398 11.2682ZM23.1908 13.487L24.2624 13.9845C23.8935 14.1041 23.5028 14.1922 23.1287 14.2957L23.1908 13.487ZM23.1755 12.3675L24.2882 12.7507C23.9395 12.9013 23.5654 13.0514 23.2013 13.1963L23.1755 12.3675ZM25.6867 11.9678L23.2643 12.1541L24.2987 11.6047L25.6867 11.9678ZM25.4788 10.6074L23.1029 11.0447L24.0589 10.3709L25.4788 10.6074ZM25.1458 9.25667L22.8381 9.9615L23.7264 9.19338L25.1458 9.25667ZM24.6628 7.94912L22.4273 8.91887L23.2271 8.03728C23.2271 8.03728 24.1884 7.98055 24.6628 7.94912ZM22.3026 8.88265L21.9179 8.14639C22.3078 8.10449 23.0587 8.03728 23.0587 8.03728C23.0587 8.03728 22.5572 8.58718 22.3026 8.88265ZM23.9977 6.728L21.8663 7.95305L22.5485 6.98112C23.0215 6.8982 23.5299 6.81659 23.9977 6.728ZM21.767 7.89763L21.304 7.1749L22.3927 7.00993L21.767 7.89763ZM23.2643 5.5588L21.304 6.97458L21.9013 5.95813C22.3594 5.82328 22.8167 5.69889 23.2643 5.5588ZM21.1688 6.97458H21.1426L20.6333 6.34175L21.756 5.95813L21.1688 6.97458ZM22.3642 4.48518L20.5917 6.11874L21.0826 4.99101L22.3642 4.48518ZM20.4464 6.14493L19.8426 5.56927C20.1918 5.38772 20.5602 5.21664 20.9295 5.06127L20.4464 6.14493ZM20.1349 4.22638L21.3815 3.51588L19.7699 5.34582L20.1349 4.22638ZM19.6457 5.37201L18.985 4.87448L19.9835 4.25257C19.9008 4.61 19.7494 4.99362 19.6457 5.37201ZM19.121 3.48969L20.2692 2.67051L18.8865 4.6615L19.121 3.48969ZM18.7618 4.69773C18.5277 4.57902 18.2936 4.40226 18.0494 4.27788L18.985 3.54162C18.9066 3.92525 18.8349 4.3141 18.7618 4.69773ZM18.0232 2.90967L19.0843 1.94997L17.9243 4.07581L18.0232 2.90967ZM16.8908 2.41127L17.8368 1.35337L16.9109 3.594C16.9057 3.23612 16.8798 2.81061 16.8908 2.41127ZM17.8989 2.95594L17.8 4.13822L17.0518 3.79039L17.8989 2.95594ZM16.7656 2.48416L16.7862 3.67648L16.017 3.41724V3.38102L16.7656 2.48416ZM16.5162 0.917811L15.8402 3.24136L15.6892 2.05907L16.5162 0.917811ZM15.5798 2.1468L15.7417 3.32908L14.9143 3.15757L15.5798 2.1468ZM15.1563 0.661191L14.7428 2.99216L14.4676 1.87228L15.1563 0.661191ZM14.3534 1.94997L14.6553 3.10607L13.8178 3.01747L14.3534 1.94997ZM13.7815 0.456505L13.6305 2.88305L13.2061 1.80245L13.7815 0.456505ZM13.1291 1.93513C13.1291 1.93513 13.4178 2.62381 13.543 3.00787L12.7103 2.99216L13.1291 1.93513ZM12.383 0.466979L12.5077 2.88305L11.9826 1.83562L12.383 0.466979ZM11.8995 1.94997L12.4351 3.01747L11.598 3.10607L11.8995 1.94997ZM10.9999 0.617111C10.9999 0.617111 11.2598 2.20921 11.3845 3.00787L10.7505 2.02241L10.9999 0.617111ZM10.6879 2.13632L11.3377 3.14229L10.5269 3.32908L10.6879 2.13632ZM9.63775 0.928285L10.2875 3.24136L9.54455 2.37287L9.63775 0.928285ZM9.51917 2.53478L10.2516 3.39106C10.0014 3.48969 9.72176 3.57261 9.46622 3.67648L9.51917 2.53478ZM9.22688 3.61451L8.38194 2.83897L8.32812 1.37475L9.22688 3.61451ZM9.21681 3.77991L8.45239 4.12775L8.37538 2.99129L9.21681 3.77991ZM3.04062 13.1501C2.67132 13.0257 2.2972 12.8546 1.92834 12.7145C2.29195 12.5696 2.68182 12.4509 3.06162 12.3261C3.0148 12.5849 3.04631 12.8908 3.04062 13.1501ZM3.10319 14.2699L1.95372 13.9334C1.95372 13.9334 2.67701 13.5965 3.04062 13.4355L3.10319 14.2699ZM2.02723 11.4807L3.18633 11.221L3.08744 12.0402L2.02723 11.4807ZM3.13951 14.5292L3.30053 15.354L2.12524 15.1511L3.13951 14.5292ZM2.26614 10.2722C2.65644 10.2146 3.06162 10.1889 3.46156 10.1479L3.2489 10.9566L2.26614 10.2722ZM3.35216 15.6237C3.44099 15.8729 3.51888 16.1527 3.61295 16.4115L2.42716 16.3495L3.35216 15.6237ZM3.51756 9.91698L2.71857 9.15542L3.83567 9.10566L3.51756 9.91698ZM7.29373 3.55908L8.24192 4.25257L7.49107 4.69773L7.29373 3.55908ZM7.30029 4.82909L6.61725 5.35673L6.29258 4.27788L7.30029 4.82909ZM7.06926 1.97615L8.21873 4.10156L7.28016 3.40939L7.06926 1.97615ZM5.8944 2.70673L7.26704 4.69773L6.26677 4.12906L5.8944 2.70673ZM4.79787 3.55254L6.3836 5.3982L5.33126 4.92641L4.79787 3.55254ZM6.4291 5.52258L5.80645 6.11874L5.3632 5.07524L6.4291 5.52258ZM3.79979 4.52665C4.38744 5.09226 4.99565 5.61641 5.5833 6.18115L4.48633 5.8403L3.79979 4.52665ZM5.61918 6.31601C5.44284 6.53335 5.26081 6.75113 5.0836 6.96454L4.54452 5.9961L5.61918 6.31601ZM2.91635 5.59459C3.56613 6.08252 4.22598 6.5543 4.87051 7.05183L3.73197 6.80568L2.91635 5.59459ZM4.92214 7.17664L4.47539 7.87188L4.46357 7.89457L3.7906 6.9353L4.92214 7.17664ZM2.16725 6.76684L4.26273 7.98535L3.12113 7.90112L2.16725 6.76684ZM4.32487 8.10973L3.95075 8.85646L3.19245 8.02725L4.32487 8.10973ZM1.55816 8.00848C2.30158 8.33013 3.0043 8.66487 3.74728 8.98084L2.60175 9.02929L1.55816 8.00848ZM1.04446 9.30249L3.36267 10.0392L2.18825 10.1631L1.04446 9.30249ZM0.706663 10.6454L3.08744 11.1228L1.91827 11.3716L0.706663 10.6454ZM0.518949 12.0306L2.93648 12.2423L1.8137 12.6159L0.518949 12.0306ZM0.482631 13.4093L2.91635 13.3626L1.85526 13.8453L0.482631 13.4093ZM0.607337 14.7936L2.99905 14.4672L2.01672 15.0791L0.607337 14.7936ZM0.87775 16.1632L3.2279 15.5766L2.30245 16.2867L0.87775 16.1632ZM1.29343 17.4799L3.56044 16.645L2.72864 17.4537L1.29343 17.4799ZM3.70046 16.6712L4.0387 17.4436L2.85334 17.4903L3.70046 16.6712ZM1.85526 18.7508L4.01288 17.6662L3.27472 18.5635L1.85526 18.7508ZM4.14809 17.6928C4.2938 17.9154 4.43382 18.1642 4.57428 18.4025L3.39986 18.5993L4.14809 17.6928ZM2.5628 19.9426L4.57428 18.636L3.935 19.6219L2.5628 19.9426ZM4.7248 18.6517L5.22406 19.3103L4.09558 19.6075L4.7248 18.6517ZM3.37404 21.0634L5.26081 19.5333L4.73924 20.5794L3.37404 21.0634ZM5.39602 19.5333L5.95741 20.1294L4.89545 20.5471L5.39602 19.5333ZM5.61217 21.4374L4.32487 22.0506L6.01955 20.352L5.61217 21.4374ZM6.16 20.342L6.78397 20.8762L5.75963 21.3898L6.16 20.342ZM6.57087 22.2348L5.36933 22.9915L6.86667 21.0887L6.57087 22.2348ZM7.00712 21.0525L7.67834 21.5243L6.72096 22.1671L7.00712 21.0525ZM7.65034 22.9003L6.50786 23.7906L7.79255 21.7215L7.65034 22.9003ZM7.91682 21.6853L8.63967 22.0737L7.75623 22.8414L7.91682 21.6853ZM7.74092 24.4383L8.78056 22.261L8.79675 23.39L7.74092 24.4383ZM8.98972 24.9677L9.82502 22.6699C9.87228 23.0644 9.95761 23.8072 9.95761 23.8072L8.98972 24.9677ZM8.90483 23.3171L8.91533 22.1981L9.66356 22.5097L8.90483 23.3171ZM10.0661 23.6924L9.93879 22.6088L10.7242 22.8314L10.0661 23.6924ZM10.354 25.35L10.9119 22.9658L11.1478 24.0796L10.354 25.35ZM11.2379 23.9565L11.0104 22.8933L11.8107 23.0278L11.2379 23.9565ZM11.7328 25.5691L12.0246 23.1526L12.3568 24.2729L11.7328 25.5691ZM12.46 24.1703L12.1069 23.0692L12.9444 23.1159L12.46 24.1703ZM13.147 25.6411L13.1575 23.215L13.6292 24.3257L13.147 25.6411ZM13.7088 24.1895C13.7088 24.1895 13.4122 23.4642 13.2301 23.1159C13.5058 23.1006 14.0567 23.0692 14.0567 23.0692L13.7088 24.1895ZM14.5301 25.5586L14.2698 23.1526L14.8522 24.1633L14.5301 25.5586ZM14.9305 24.0499L14.3424 23.0439L15.1537 22.9038L14.9305 24.0499ZM15.9023 25.3308L15.3777 22.9553L16.0791 23.915L15.9023 25.3308ZM16.1417 23.7906L15.4398 22.8414L16.2248 22.6184L16.1417 23.7906ZM17.2382 24.9367L16.4637 22.645L17.2745 23.5288L17.2382 24.9367ZM16.5162 22.5302L17.2645 22.2195L17.2815 23.3538L16.5162 22.5302ZM13.1063 22.4862C7.89144 22.4862 3.66371 18.2698 3.66371 13.068C3.66371 7.86664 7.89144 3.64986 13.1063 3.64986C18.3216 3.64986 22.5493 7.86664 22.5493 13.068C22.5493 18.2698 18.3216 22.4862 13.1063 22.4862ZM23.3186 17.5196L22.1875 17.462L22.5148 16.7227L23.3186 17.5196ZM22.7655 18.6024L21.6418 18.4496C21.8147 18.1651 22.0422 17.7391 22.0422 17.7391L22.7655 18.6024ZM22.1035 19.6332L20.9811 19.3465L21.4646 18.6879L22.1035 19.6332ZM21.3298 20.6174L20.2587 20.1814L20.7947 19.5699L21.3298 20.6174ZM20.0202 20.3782L20.4464 21.4723L19.4221 20.912L20.0202 20.3782ZM19.1727 21.0887L19.4685 22.2195L18.5119 21.5605L19.1727 21.0887ZM18.4082 22.8567L17.5349 22.0951L18.2477 21.7115L18.4082 22.8567ZM18.5421 24.4684L17.4986 22.2195L18.4126 23.0295L18.5421 24.4684ZM19.7446 23.754L18.4861 21.6853L19.433 22.3434L19.7446 23.754ZM20.8936 22.9658L19.4068 21.0368L20.4464 21.6124L20.8936 22.9658ZM21.9473 22.0506L20.2587 20.3062L21.3404 20.7518L21.9473 22.0506ZM22.8963 21.0267L21.0082 19.4709L22.1617 19.7694L22.8963 21.0267ZM23.7006 19.9069L21.6681 18.574L22.8311 18.7324L23.7006 19.9069ZM24.3867 18.6979L22.229 17.5938L23.3702 17.6427L24.3867 18.6979ZM24.9485 17.4279L22.6767 16.5721L23.8314 16.4765L24.9485 17.4279ZM25.3847 16.12L22.997 15.4989L24.1828 15.3121L25.3847 16.12ZM23.2114 14.3948L24.3512 14.0783L25.6236 14.7417L23.2114 14.3948Z" fill="white"/>
</g>
<path fill-rule="evenodd" clip-rule="evenodd" d="M10.3144 5.16403L10.602 6.01365L10.8039 5.94618L10.5153 5.09608L10.7849 5.00532L10.7244 4.82617L9.98438 5.07564L10.0453 5.25479L10.3144 5.16403Z" fill="white"/>
<path fill-rule="evenodd" clip-rule="evenodd" d="M5.17151 10.3405C5.19514 10.3658 5.22226 10.3876 5.25289 10.4064C5.2844 10.4247 5.31809 10.4422 5.35572 10.4583C5.39379 10.4736 5.43404 10.4902 5.4778 10.5076C5.52112 10.5247 5.56181 10.5399 5.60076 10.5543C5.63882 10.5679 5.67558 10.5788 5.71102 10.5862C5.74646 10.5936 5.78147 10.5963 5.81604 10.5936C5.85017 10.5915 5.88517 10.5823 5.92061 10.567C5.97093 10.5452 6.01425 10.5155 6.05101 10.4784C6.08776 10.4409 6.11708 10.3942 6.13896 10.3387C6.1604 10.2846 6.17221 10.2305 6.17396 10.1764C6.17571 10.1218 6.16346 10.0659 6.13677 10.0083C6.11402 9.95855 6.0812 9.91752 6.03876 9.88391C5.99675 9.85074 5.93943 9.81931 5.86636 9.79094L5.71846 9.73245L5.5675 10.1139L5.73246 10.179L5.80597 9.99303L5.84448 10.0083C5.87117 10.0188 5.89436 10.0314 5.91361 10.0476C5.93287 10.0633 5.94906 10.0834 5.96174 10.1065C5.97356 10.1296 5.97925 10.155 5.97969 10.1825C5.98056 10.21 5.97487 10.2392 5.96306 10.2693C5.95212 10.2968 5.93768 10.3191 5.91974 10.3365C5.90224 10.354 5.88211 10.3671 5.86023 10.3745C5.84623 10.3802 5.83135 10.3832 5.81647 10.3841C5.80116 10.3854 5.78234 10.3837 5.76003 10.3793C5.73771 10.375 5.71015 10.3671 5.67733 10.3557C5.64407 10.3448 5.60426 10.3296 5.55569 10.3104C5.50756 10.2916 5.46774 10.275 5.43623 10.261C5.40517 10.2475 5.38022 10.2344 5.36053 10.2226C5.34084 10.2104 5.3264 10.1986 5.3159 10.1873C5.3054 10.1764 5.29709 10.1641 5.29009 10.1506C5.28002 10.1301 5.27346 10.1074 5.27215 10.0821C5.2704 10.0568 5.27521 10.0306 5.28615 10.0031C5.30628 9.952 5.33472 9.91664 5.37191 9.89744C5.40823 9.87823 5.45286 9.87256 5.50537 9.87998L5.58457 9.68138C5.53906 9.67134 5.49355 9.66785 5.44717 9.6709C5.40079 9.67396 5.35703 9.68531 5.31503 9.70495C5.27215 9.72415 5.23364 9.75296 5.1982 9.79006C5.16232 9.8276 5.133 9.87518 5.10981 9.9341C5.0875 9.99041 5.07656 10.045 5.07831 10.0969C5.07962 10.1484 5.09143 10.1995 5.11287 10.2497C5.12863 10.285 5.14832 10.3156 5.17151 10.3405ZM10.832 8.08197C10.8863 8.1924 10.9611 8.28406 11.0556 8.35477C11.1501 8.42504 11.2595 8.47786 11.3807 8.51103C11.5019 8.54464 11.6341 8.56166 11.7719 8.56166C11.8682 8.56166 11.9649 8.55381 12.0598 8.53766C12.1552 8.52151 12.237 8.49619 12.3044 8.46215C12.3206 8.45298 12.3302 8.44294 12.3346 8.43203C12.3381 8.42243 12.3399 8.40497 12.3399 8.37092V8.13216C12.3399 8.00209 12.3407 7.88468 12.3421 7.84103L12.3429 7.68782C12.3429 7.67429 12.3337 7.65945 12.3127 7.65945C12.2541 7.66207 12.2156 7.66338 12.199 7.66338C12.1845 7.66338 12.1456 7.66251 12.0817 7.6612C11.9885 7.65814 11.9229 7.65683 11.8835 7.65683C11.8332 7.65683 11.8231 7.67604 11.8231 7.69306C11.8231 7.70266 11.8275 7.72492 11.8699 7.72492C11.9076 7.72492 11.9351 7.72667 11.9522 7.73103C11.9828 7.73714 12.0043 7.74849 12.0148 7.76421C12.0266 7.78079 12.0327 7.80698 12.034 7.84103C12.0358 7.88468 12.0366 8.00035 12.0366 8.1278V8.33207C12.0366 8.36699 12.0257 8.38882 12.0034 8.39886C11.9824 8.40846 11.957 8.41457 11.9286 8.41762C11.8992 8.42068 11.8642 8.42199 11.8244 8.42199C11.7137 8.42199 11.6113 8.40191 11.5199 8.36219C11.4284 8.32291 11.3492 8.26616 11.284 8.19414C11.2193 8.12212 11.1681 8.03614 11.1335 7.93836C11.0989 7.83972 11.0806 7.73234 11.0806 7.61929C11.0806 7.49271 11.0981 7.38577 11.1318 7.30197C11.1659 7.2186 11.214 7.15007 11.2757 7.09769C11.3422 7.04313 11.4101 7.00734 11.4774 6.99119C11.6389 6.95234 11.8459 6.95933 11.9898 7.01913C12.0738 7.05361 12.136 7.09115 12.1732 7.13174C12.1964 7.15618 12.213 7.18237 12.2222 7.20987C12.2318 7.23781 12.2388 7.26923 12.2436 7.30459C12.2489 7.33776 12.2664 7.34474 12.2799 7.34474C12.2974 7.34474 12.318 7.33471 12.318 7.28451C12.318 7.19285 12.3193 7.12214 12.3224 7.07369C12.3254 7.02524 12.3281 6.98508 12.3311 6.95365C12.3324 6.94143 12.3333 6.9327 12.3333 6.92834C12.3333 6.91699 12.3294 6.89036 12.2896 6.88774C12.2677 6.88644 12.2414 6.88338 12.2099 6.87902C12.1784 6.87509 12.1482 6.86985 12.1198 6.86417C12.108 6.86112 12.0883 6.85763 12.0616 6.85414C12.0353 6.85064 12.0016 6.84628 11.9609 6.84191C11.9198 6.83799 11.8804 6.83449 11.8428 6.83231C11.6905 6.82315 11.5483 6.83231 11.4227 6.85763C11.3291 6.8764 11.2328 6.91524 11.1375 6.97242C11.0263 7.03877 10.9331 7.13567 10.8609 7.25963C10.7883 7.38446 10.7511 7.53112 10.7511 7.69524C10.7511 7.8419 10.7782 7.97197 10.832 8.08197ZM13.4335 8.46005L13.3792 8.45481C13.3525 8.45088 13.335 8.44259 13.3258 8.4295C13.3153 8.41466 13.3083 8.3924 13.3044 8.36097C13.3005 8.3195 13.2978 8.26363 13.297 8.19423C13.2961 8.12396 13.2956 8.02138 13.2956 7.88695V7.16936C13.2956 7.12222 13.2974 7.08076 13.3005 7.04453C13.3031 7.0083 13.3092 6.9808 13.3188 6.96422C13.3276 6.94894 13.3442 6.9389 13.3687 6.9341C13.3937 6.92973 13.4147 6.92755 13.4317 6.92755C13.4764 6.92755 13.4807 6.90224 13.4807 6.89132C13.4807 6.85946 13.4352 6.85946 13.4203 6.85946C13.3902 6.85946 13.3368 6.86077 13.2615 6.86383C13.2077 6.86513 13.1722 6.86601 13.1547 6.86601C13.1333 6.86601 13.0917 6.86513 13.0314 6.86383C12.9526 6.86077 12.8996 6.85946 12.8716 6.85946C12.8537 6.85946 12.8047 6.85946 12.8047 6.89132C12.8047 6.90224 12.8099 6.92755 12.8546 6.92755C12.8835 6.92755 12.9084 6.93061 12.9294 6.93585C12.9679 6.94458 12.9885 6.97993 12.992 7.04453C12.995 7.08076 12.9968 7.12222 12.9968 7.16936V7.88695C12.9968 8.02007 12.9959 8.12134 12.9946 8.19161C12.9928 8.26145 12.9902 8.31732 12.9854 8.35879C12.9788 8.41684 12.9618 8.44914 12.9342 8.45481C12.9084 8.46049 12.883 8.46354 12.859 8.46354C12.8161 8.46354 12.8091 8.48318 12.8091 8.49541C12.8091 8.51156 12.8196 8.5312 12.8673 8.5312C12.8979 8.5312 12.9552 8.52989 13.0401 8.52683C13.0961 8.52552 13.1307 8.52465 13.1421 8.52465C13.1622 8.52465 13.1954 8.52552 13.2418 8.52683C13.3403 8.52989 13.4203 8.5312 13.4816 8.5312C13.528 8.5312 13.5372 8.51156 13.5372 8.49541C13.5372 8.48318 13.5315 8.46354 13.4882 8.46354C13.4711 8.46354 13.4532 8.46223 13.4335 8.46005ZM13.7559 8.52932C13.7944 8.52932 13.8329 8.52845 13.8736 8.52714C13.913 8.52583 13.944 8.52496 13.9707 8.52496C13.9948 8.52365 14.0092 8.52277 14.0132 8.52277C14.0324 8.52277 14.0696 8.52452 14.126 8.52714C14.1772 8.52845 14.2166 8.52932 14.2442 8.52932C14.2893 8.52932 14.2958 8.50662 14.2958 8.49309C14.2958 8.48131 14.2897 8.46123 14.2481 8.46123H14.2162C14.1882 8.46123 14.1685 8.45686 14.158 8.4477C14.1484 8.43897 14.1435 8.42587 14.1435 8.40841C14.1435 8.37568 14.154 8.3329 14.1751 8.28096L14.2989 7.96233L14.7929 7.968L14.9662 8.42806C14.9662 8.42806 14.9771 8.46167 14.9859 8.48655C14.9937 8.50837 15.0029 8.52932 15.0287 8.52932C15.0511 8.52932 15.0764 8.52801 15.1036 8.52714C15.1342 8.52627 15.167 8.52496 15.1989 8.52496L15.4072 8.52932C15.4492 8.52932 15.4768 8.52801 15.4912 8.52496C15.5197 8.51885 15.5223 8.50095 15.5223 8.49309C15.5223 8.48567 15.5197 8.46123 15.4799 8.46123C15.4488 8.46123 15.4186 8.45817 15.391 8.45294C15.3639 8.44683 15.3355 8.42849 15.307 8.39838C15.2781 8.36826 15.2453 8.30977 15.2099 8.22465L14.7347 7.04702C14.7014 6.96278 14.6796 6.90953 14.6691 6.88814C14.6459 6.83401 14.6249 6.80957 14.6012 6.80957C14.5912 6.80957 14.5754 6.81394 14.5619 6.83401C14.5518 6.84667 14.5417 6.86806 14.5269 6.9056L13.9803 8.27049C13.9558 8.33159 13.9309 8.37742 13.906 8.40711C13.8828 8.43504 13.8495 8.45206 13.8071 8.45686C13.7843 8.45992 13.762 8.46123 13.741 8.46123C13.7034 8.46123 13.7003 8.48567 13.7003 8.49309C13.7003 8.50662 13.7077 8.52932 13.7559 8.52932ZM14.5461 7.29843L14.743 7.82483L14.3475 7.8292L14.5461 7.29843Z" fill="white"/>
<path fill-rule="evenodd" clip-rule="evenodd" d="M12.2525 5.62622L12.221 5.43948L11.7234 5.52168L11.6801 5.26176L12.1044 5.19143L12.0729 5.00469L11.6491 5.07501L11.6077 4.82364L12.1053 4.74096L12.0744 4.55469L11.3672 4.67158L11.5448 5.74312L12.2525 5.62622Z" fill="white"/>
<path fill-rule="evenodd" clip-rule="evenodd" d="M5.76185 11.5615C5.77323 11.5057 5.77542 11.452 5.76885 11.4001C5.76185 11.3486 5.74479 11.3023 5.71678 11.26C5.69272 11.2242 5.66559 11.1954 5.63452 11.1735C5.60345 11.1517 5.5702 11.1343 5.53432 11.1207C5.49888 11.1072 5.46168 11.0967 5.4223 11.0889L5.30241 11.0644L5.18558 11.0409C5.14664 11.033 5.10901 11.0282 5.07138 11.0273C5.03418 11.026 4.99787 11.0295 4.96199 11.0378C4.92567 11.0461 4.88979 11.0623 4.85391 11.0858C4.8119 11.1138 4.77777 11.1504 4.75152 11.1954C4.72483 11.2403 4.70601 11.2909 4.69507 11.3464L4.61719 11.7309L5.6844 11.9456L5.76185 11.5615ZM5.57195 11.5436L5.54001 11.7008L4.84516 11.5607L4.8771 11.4035C4.8841 11.3678 4.89548 11.3385 4.91167 11.3154C4.92786 11.2927 4.94886 11.2748 4.97424 11.2613C4.98824 11.2538 5.00356 11.2486 5.01931 11.2456C5.03593 11.2425 5.05519 11.2416 5.0775 11.2434C5.10026 11.2447 5.12651 11.2477 5.15583 11.253C5.18602 11.2578 5.22059 11.2643 5.2604 11.2726C5.34179 11.2883 5.40261 11.3036 5.44462 11.318C5.48662 11.332 5.51725 11.3507 5.53782 11.3747C5.55576 11.397 5.56801 11.4219 5.57414 11.4489C5.57982 11.4764 5.57939 11.5078 5.57195 11.5436ZM12.7152 5.18002C12.7169 5.22104 12.7204 5.25857 12.7274 5.29436C12.7336 5.33015 12.745 5.36288 12.7598 5.39387C12.7747 5.42485 12.7966 5.45366 12.8242 5.48028C12.8635 5.51868 12.9073 5.54793 12.9559 5.56713C13.0044 5.5872 13.0591 5.59681 13.1195 5.59593C13.1773 5.59506 13.232 5.58502 13.2832 5.56626C13.3343 5.54749 13.3812 5.51476 13.4245 5.4685C13.4617 5.42878 13.4879 5.38296 13.5028 5.33146C13.5186 5.27996 13.5256 5.21493 13.5247 5.13681L13.5225 4.97795L13.1116 4.98319L13.1138 5.15994L13.3138 5.15732L13.3147 5.19878C13.3147 5.22715 13.3116 5.25334 13.3037 5.27734C13.2967 5.30134 13.2845 5.3236 13.2674 5.34411C13.2503 5.36375 13.2293 5.37903 13.2035 5.38994C13.1786 5.40085 13.1493 5.40652 13.1164 5.40696C13.0871 5.4074 13.0609 5.40259 13.0377 5.39256C13.0149 5.38296 12.9957 5.36943 12.9804 5.35197C12.9694 5.34149 12.9611 5.32884 12.9545 5.31531C12.9475 5.30178 12.9419 5.28345 12.9375 5.26119C12.9331 5.23893 12.93 5.21057 12.9283 5.17609C12.9265 5.14161 12.9248 5.0984 12.9239 5.04647C12.9235 4.99497 12.9239 4.95176 12.9248 4.91772C12.9261 4.88368 12.9287 4.85531 12.9322 4.83305C12.9362 4.8108 12.941 4.79247 12.9475 4.7785C12.9545 4.76497 12.9624 4.75275 12.9725 4.74097C12.9874 4.72351 13.0066 4.70911 13.0294 4.69863C13.0521 4.68772 13.0784 4.68205 13.1081 4.68161C13.1628 4.68074 13.2061 4.69383 13.2385 4.72046C13.27 4.74664 13.2923 4.78592 13.3055 4.83742L13.5194 4.8348C13.5116 4.78941 13.4976 4.74577 13.477 4.70474C13.4569 4.66285 13.4297 4.62662 13.3956 4.59476C13.3615 4.56334 13.3208 4.53803 13.2727 4.51926C13.2241 4.5005 13.1685 4.49177 13.1051 4.4922C13.0442 4.49351 12.99 4.50399 12.9423 4.52494C12.8946 4.54588 12.8522 4.57556 12.8136 4.61528C12.7865 4.64277 12.766 4.67201 12.7511 4.70343C12.7366 4.73442 12.727 4.76803 12.7213 4.80338C12.7156 4.83916 12.7121 4.87713 12.7117 4.91772C12.7113 4.95875 12.7113 5.00239 12.7121 5.04909C12.7126 5.09578 12.7134 5.13943 12.7152 5.18002Z" fill="white"/>
<path fill-rule="evenodd" clip-rule="evenodd" d="M20.3359 15.1505L20.5202 15.1928L20.6321 14.7133L21.5069 14.9158L21.5555 14.7095L20.4955 14.4639L20.3359 15.1505Z" fill="white"/>
<path fill-rule="evenodd" clip-rule="evenodd" d="M5.61875 13.6416L5.43112 13.6654L5.49255 14.1538L4.60156 14.2669L4.62823 14.477L5.70827 14.3406L5.61875 13.6416Z" fill="white"/>
<path fill-rule="evenodd" clip-rule="evenodd" d="M6.41941 17.3107C6.45441 17.2897 6.48592 17.2679 6.51348 17.2452C6.54149 17.2221 6.56512 17.1967 6.58524 17.1684C6.60493 17.1404 6.61981 17.1072 6.62987 17.0701C6.64475 17.0173 6.64913 16.9653 6.643 16.9138C6.63731 16.8619 6.61894 16.8095 6.58831 16.7553C6.55768 16.7012 6.5218 16.6588 6.48067 16.6278C6.43953 16.5968 6.39272 16.5741 6.34021 16.5593C6.30258 16.5488 6.2667 16.5453 6.23257 16.5475C6.19844 16.5497 6.16431 16.5571 6.12974 16.5689C6.09517 16.5811 6.06017 16.5964 6.02429 16.6156C5.98841 16.6348 5.95034 16.6558 5.90921 16.6794C5.86852 16.7021 5.83089 16.7243 5.79632 16.7453C5.76131 16.7662 5.72937 16.7881 5.70224 16.8116C5.67468 16.8348 5.65061 16.8605 5.63092 16.8889C5.61123 16.9169 5.59635 16.9496 5.58585 16.9872C5.57141 17.0396 5.56704 17.0915 5.57272 17.143C5.57841 17.1941 5.59635 17.2465 5.62698 17.3007C5.65761 17.3544 5.69349 17.3972 5.73506 17.4286C5.77619 17.46 5.82345 17.4836 5.87595 17.4976C5.91358 17.5081 5.94946 17.512 5.98359 17.5094C6.01816 17.5067 6.05229 17.4998 6.08642 17.4875C6.12011 17.4753 6.15512 17.4596 6.191 17.4399C6.22688 17.4212 6.26538 17.3998 6.30608 17.3766C6.34677 17.3539 6.3844 17.3317 6.41941 17.3107ZM6.08817 17.2539C6.05754 17.2697 6.03129 17.281 6.01029 17.2884C5.98841 17.2963 5.97003 17.3002 5.95472 17.3011C5.93984 17.3024 5.92496 17.3011 5.91008 17.298C5.88733 17.2932 5.86589 17.2832 5.84489 17.2684C5.82388 17.2531 5.80638 17.233 5.7915 17.2072C5.77707 17.1815 5.76875 17.1561 5.767 17.1308C5.76481 17.1055 5.76788 17.0824 5.77532 17.0605C5.77969 17.0461 5.78625 17.0321 5.79501 17.0195C5.80332 17.0064 5.81645 16.9928 5.83351 16.978C5.85101 16.9636 5.8742 16.947 5.90352 16.9287C5.93196 16.9108 5.96916 16.8889 6.01422 16.8632C6.05929 16.8378 6.09736 16.8173 6.12755 16.8016C6.15774 16.7863 6.184 16.7745 6.20544 16.7671C6.22688 16.7597 6.24526 16.7558 6.26057 16.7553C6.27632 16.7545 6.29164 16.7558 6.30652 16.7593C6.32883 16.7641 6.35071 16.7737 6.37128 16.7885C6.3914 16.8029 6.40934 16.823 6.42378 16.8488C6.43822 16.8741 6.44654 16.8998 6.44916 16.9256C6.45135 16.9514 6.44872 16.9749 6.44085 16.9968C6.43603 17.0107 6.42947 17.0243 6.42072 17.0369C6.41241 17.0496 6.39928 17.0631 6.38178 17.0775C6.36427 17.0924 6.34108 17.1085 6.3122 17.1269C6.28333 17.1452 6.24613 17.1666 6.2015 17.1924C6.15643 17.2177 6.11793 17.2387 6.08817 17.2539Z" fill="white"/>
<path fill-rule="evenodd" clip-rule="evenodd" d="M6.04938 15.6153L5.35936 15.6324L5.92367 15.2356L5.86795 15.0674L4.74219 15.1311L4.81219 15.3416L5.51698 15.2874L4.92743 15.6908L4.97744 15.8415L5.69175 15.8148L5.0922 16.1893L5.16173 16.3993L6.10463 15.7835L6.04938 15.6153Z" fill="white"/>
<path fill-rule="evenodd" clip-rule="evenodd" d="M19.9219 16.2405L20.0976 16.3118L20.2876 15.8452L20.5319 15.945L20.3705 16.3417L20.5462 16.413L20.7081 16.0162L20.9443 16.1122L20.7543 16.5779L20.9295 16.6497L21.1995 15.9868L20.1914 15.5781L19.9219 16.2405Z" fill="white"/>
<path fill-rule="evenodd" clip-rule="evenodd" d="M19.6015 16.8427L20.1687 17.1943L19.3734 17.2076L19.2734 17.3682L20.1978 17.9413L20.3092 17.7617L19.7439 17.4105L20.5378 17.3963L20.6383 17.2361L19.7135 16.6621L19.6015 16.8427Z" fill="white"/>
<path fill-rule="evenodd" clip-rule="evenodd" d="M7.46824 18.0088L6.95441 18.4351L7.19251 17.6776L7.07108 17.5322L6.23438 18.2265L6.37009 18.3899L6.8825 17.9646L6.64582 18.7207L6.76678 18.8661L7.60396 18.1718L7.46824 18.0088Z" fill="white"/>
<path fill-rule="evenodd" clip-rule="evenodd" d="M14.1251 21.1198C14.0945 21.0832 14.059 21.0561 14.0183 21.0391C14.0525 21.0172 14.0796 20.9871 14.1001 20.9504C14.1211 20.9133 14.1295 20.8653 14.1242 20.8068C14.1203 20.7609 14.1085 20.7199 14.0888 20.6832C14.0695 20.6465 14.0437 20.616 14.0118 20.5911C13.9803 20.5662 13.9435 20.5479 13.9015 20.5365C13.8595 20.5247 13.8149 20.5208 13.7672 20.5252C13.7217 20.5291 13.6792 20.5396 13.6403 20.5575C13.6013 20.5749 13.5685 20.5981 13.5414 20.6273C13.5142 20.6557 13.4937 20.6902 13.4788 20.7295C13.4644 20.7692 13.4587 20.8133 13.4617 20.8622L13.6595 20.8452C13.6582 20.8033 13.6687 20.7701 13.6919 20.7452C13.7147 20.7203 13.7448 20.7059 13.7825 20.7029C13.8179 20.6998 13.8499 20.7085 13.8783 20.7299C13.9067 20.7509 13.9229 20.7845 13.9269 20.8295C13.9299 20.8684 13.9221 20.9015 13.9032 20.929C13.884 20.957 13.8503 20.9727 13.8013 20.9766L13.7724 20.9797L13.7873 21.1513L13.8162 21.1482C13.8652 21.1447 13.9037 21.1548 13.9326 21.1792C13.9606 21.2037 13.9772 21.239 13.9811 21.2849C13.9855 21.3333 13.975 21.3718 13.9496 21.4002C13.9242 21.4281 13.8906 21.4438 13.8481 21.4477C13.8289 21.4495 13.81 21.4482 13.7921 21.4442C13.7737 21.4399 13.7571 21.4329 13.7435 21.4224C13.7291 21.4119 13.7168 21.398 13.7072 21.3809C13.6976 21.3639 13.6915 21.3434 13.6884 21.3194L13.4902 21.3364C13.4963 21.3927 13.5103 21.4403 13.5335 21.4783C13.5563 21.5167 13.5847 21.5477 13.6188 21.5709C13.653 21.594 13.691 21.6097 13.733 21.6185C13.7755 21.6268 13.8188 21.6294 13.8634 21.6254C13.9098 21.6215 13.9536 21.611 13.9943 21.5944C14.0345 21.5779 14.0695 21.5547 14.0984 21.525C14.1277 21.4953 14.1496 21.4595 14.1645 21.4176C14.1793 21.3753 14.1842 21.3272 14.1798 21.274C14.1741 21.208 14.1557 21.1565 14.1251 21.1198Z" fill="white"/>
<path fill-rule="evenodd" clip-rule="evenodd" d="M14.9108 20.3454L14.7422 20.5853L14.7936 20.793L14.9622 20.5525L15.1736 21.3998L15.366 21.3523L15.1041 20.2979L14.9108 20.3454Z" fill="white"/>
<path fill-rule="evenodd" clip-rule="evenodd" d="M8.2227 19.1796L8.00698 19.2185L8.10937 18.6602L7.91936 18.502L7.79602 19.2513L7.24219 19.3525L7.44029 19.5174L8.03841 19.3996L7.73554 19.7626L7.89793 19.8985L8.59558 19.0646L8.43224 18.9287L8.2227 19.1796Z" fill="white"/>
<path fill-rule="evenodd" clip-rule="evenodd" d="M12.7699 20.637C12.7414 20.6064 12.7073 20.5824 12.6675 20.5645C12.6272 20.5466 12.5835 20.5361 12.5362 20.5322C12.4885 20.5291 12.4434 20.5335 12.401 20.5457C12.359 20.5575 12.3214 20.5772 12.289 20.6034C12.2566 20.6304 12.2299 20.664 12.2098 20.7047C12.1892 20.7453 12.177 20.7924 12.173 20.8452C12.1695 20.8955 12.1739 20.9417 12.1875 20.9823C12.2006 21.0229 12.2194 21.0579 12.2439 21.0871C12.2684 21.1168 12.2969 21.14 12.3306 21.1574C12.3638 21.1745 12.3988 21.1845 12.4351 21.1871C12.4487 21.188 12.4623 21.188 12.4758 21.1871C12.4898 21.1862 12.5034 21.1836 12.517 21.1793L12.2588 21.6098L12.4732 21.6255L12.7375 21.1745C12.7655 21.1264 12.7904 21.0801 12.8114 21.0347C12.8324 20.9893 12.8451 20.9417 12.8486 20.892C12.8526 20.8387 12.8477 20.7898 12.8333 20.7474C12.8197 20.7047 12.7983 20.668 12.7699 20.637ZM12.6508 20.8793C12.6473 20.9295 12.6312 20.9679 12.6023 20.9933C12.5743 21.0186 12.5397 21.0299 12.499 21.0269C12.4566 21.0234 12.4238 21.0068 12.4006 20.9771C12.3769 20.9465 12.3673 20.9068 12.3712 20.8579C12.3747 20.8077 12.3909 20.7697 12.4194 20.7444C12.4474 20.7186 12.4819 20.7077 12.5226 20.7108C12.5633 20.7134 12.5957 20.7295 12.6202 20.7592C12.6443 20.7885 12.6548 20.8282 12.6508 20.8793Z" fill="white"/>
<path fill-rule="evenodd" clip-rule="evenodd" d="M11.0793 20.4982L11.0312 20.7068L11.2908 20.5685L11.0951 21.4191L11.2884 21.4642L11.5322 20.405L11.3384 20.3604L11.0793 20.4982Z" fill="white"/>
<path fill-rule="evenodd" clip-rule="evenodd" d="M9.28906 20.3012L9.45288 20.7972L9.95052 20.6347L9.78718 20.1377L9.28906 20.3012Z" fill="white"/>
<path fill-rule="evenodd" clip-rule="evenodd" d="M20.5703 14.0172L20.7594 14.031L20.7951 13.5397L21.6913 13.6048L21.7065 13.3929L20.6217 13.3145L20.5703 14.0172Z" fill="white"/>
<path fill-rule="evenodd" clip-rule="evenodd" d="M15.5577 15.2838L15.6671 15.1532L15.5849 15.0847L15.8023 14.8271L15.5748 14.6367L15.3578 14.8943L15.276 14.8253L15.1797 14.9393C15.1814 14.9402 15.1819 14.941 15.1836 14.9424C15.2996 15.0275 15.4449 15.1345 15.5577 15.2838Z" fill="white"/>
<path fill-rule="evenodd" clip-rule="evenodd" d="M20.6284 12.8387L20.8175 12.8231L20.7765 12.3217L21.0403 12.2999L21.0751 12.7271L21.2642 12.7119L21.2294 12.2847L21.4837 12.2633L21.5246 12.7656L21.7137 12.7504L21.6551 12.0371L20.5703 12.125L20.6284 12.8387Z" fill="white"/>
<path fill-rule="evenodd" clip-rule="evenodd" d="M10.7483 16.8835L10.1983 15.747H9.77344V15.7989C9.77344 15.7989 10.3873 16.4823 10.7483 16.8835ZM14.7855 15.9939L15.0139 15.7231L15.1189 15.8113L15.1942 15.7218C15.1574 15.5878 15.0437 15.497 14.8721 15.3712C14.8616 15.3634 14.852 15.3555 14.8415 15.3477L14.7273 15.483L14.8306 15.5699L14.6026 15.8406L14.7855 15.9939Z" fill="white"/>
<path fill-rule="evenodd" clip-rule="evenodd" d="M14.7116 16.6043H14.7107L14.5865 16.9374H15.2424L15.1864 16.6379C15.4069 16.5292 15.5775 16.2541 15.6117 15.91C15.6147 15.8812 15.616 15.8533 15.616 15.8258C15.6165 15.814 15.6156 15.8018 15.6156 15.7895C15.6147 15.7756 15.6147 15.7612 15.6134 15.7481C15.6121 15.7323 15.6099 15.7175 15.6077 15.7026C15.6064 15.6935 15.6055 15.6839 15.6038 15.6747C15.6012 15.6581 15.5968 15.6411 15.5928 15.6249C15.5911 15.6193 15.5907 15.6127 15.5885 15.607C15.5832 15.5891 15.5771 15.5717 15.5714 15.5546C15.5701 15.5511 15.5688 15.5472 15.567 15.5433C15.5605 15.5249 15.5526 15.507 15.5443 15.4905C15.5434 15.4883 15.5421 15.4865 15.5417 15.4848C15.5329 15.466 15.5233 15.4485 15.5132 15.4315C15.5123 15.4311 15.5123 15.4298 15.5119 15.4289C15.5014 15.411 15.4905 15.3935 15.4786 15.3774C15.3758 15.2302 15.2327 15.125 15.1128 15.0368C15.1093 15.0342 15.1067 15.032 15.1037 15.0298C15.0713 15.0058 15.0398 14.9827 15.0109 14.96L14.8258 15.1918C14.8521 15.2128 14.8822 15.2346 14.912 15.2569C14.9203 15.263 14.9282 15.2691 14.9369 15.2756C15.0756 15.3774 15.2078 15.4769 15.2747 15.6193C15.2747 15.6197 15.2761 15.6214 15.2761 15.6227C15.2887 15.6498 15.2988 15.6795 15.3054 15.7105C15.3084 15.7249 15.3115 15.7398 15.3146 15.7546C15.3154 15.7664 15.3163 15.7769 15.3172 15.7882C15.3194 15.8175 15.3198 15.848 15.3167 15.8804C15.287 16.1716 15.1146 16.4239 14.8499 16.3999L14.1961 15.852L14.0391 16.0388L14.7116 16.6043Z" fill="white"/>
<path fill-rule="evenodd" clip-rule="evenodd" d="M9.76562 15.5458V15.5857H10.8133L10.2233 15.2051L9.76562 15.5458Z" fill="white"/>
<path fill-rule="evenodd" clip-rule="evenodd" d="M11.3672 15.5858H12.4339V15.5454L11.992 15.2275L11.3672 15.5858Z" fill="white"/>
<path fill-rule="evenodd" clip-rule="evenodd" d="M10.9942 17.0591V15.748H10.3594L10.9942 17.0591Z" fill="white"/>
<path fill-rule="evenodd" clip-rule="evenodd" d="M11.4141 16.9018L12.4341 15.7998V15.748H12.025L11.4141 16.9018Z" fill="white"/>
<path fill-rule="evenodd" clip-rule="evenodd" d="M11.1406 15.7471V17.0885L11.8511 15.7471H11.1406Z" fill="white"/>
<path fill-rule="evenodd" clip-rule="evenodd" d="M14.5193 16.5973L14.0403 16.1953L13.9141 16.4714L14.2655 16.7655L14.5193 16.5973Z" fill="white"/>
<path fill-rule="evenodd" clip-rule="evenodd" d="M10.4297 15.1514L11.0745 15.5667L11.7993 15.1514H10.4297Z" fill="white"/>
</svg>
