<svg width="76" height="28" viewBox="0 0 76 28" fill="none" xmlns="http://www.w3.org/2000/svg">
<path d="M16.1562 14.0722L23.5933 21.4494L28.0108 21.423L20.4636 13.9845L28.0203 6.54062L23.66 6.48145L16.1562 14.0722Z" fill="white"/>
<path d="M14.1065 11.8378L21.5001 4.41726L21.4736 0.00951087L14.0186 7.54105L6.55825 0L6.5 4.35069L14.1065 11.8378Z" fill="white"/>
<path d="M11.8641 13.8587L4.42706 6.48145L0.00953195 6.50786L7.55671 13.9464L0 21.3902L4.36033 21.4494L11.8641 13.8587Z" fill="white"/>
<path d="M13.9025 16.1621L6.50781 23.5827L6.53535 27.9904L13.9904 20.46L21.4507 27.9999L21.509 23.6493L13.9025 16.1621Z" fill="white"/>
<path d="M37.7227 15.8336C37.7227 18.4195 37.7227 19.8134 38.1464 20.1769C38.4906 20.4802 39.017 20.6218 40.5971 20.6218C41.67 20.6218 42.459 20.6017 42.9653 20.0564C43.2089 19.7933 43.4514 19.2279 43.4949 18.8443C43.515 18.6615 43.5552 18.5411 43.7173 18.5411C43.8592 18.5411 43.8793 18.6414 43.8793 18.8845C43.8793 19.1064 43.7374 20.6218 43.5753 21.2094C43.4535 21.6543 43.3529 21.7547 42.3044 21.7547C40.846 21.7547 39.7933 21.7145 38.8825 21.6944C37.9706 21.6543 37.2419 21.6342 36.4116 21.6342C36.1892 21.6342 35.7433 21.6342 35.2571 21.6543C34.7922 21.6543 34.2658 21.6944 33.8602 21.6944C33.5975 21.6944 33.4556 21.6342 33.4556 21.4926C33.4556 21.3869 33.5372 21.3309 33.7797 21.3309C34.0249 21.3313 34.2693 21.3041 34.5084 21.2495C34.914 21.1692 35.0146 20.7212 35.0962 20.1389C35.1968 19.2935 35.1968 17.6946 35.1968 15.8357V12.2776C35.1968 9.20668 35.1968 8.64131 35.1565 7.99458C35.1163 7.30768 34.9542 6.98431 34.2859 6.84271C34.0661 6.79801 33.842 6.77782 33.6176 6.78247C33.3952 6.78247 33.2734 6.74231 33.2734 6.60071C33.2734 6.4591 33.4154 6.41895 33.7193 6.41895C34.6725 6.41895 35.9434 6.47918 36.4931 6.47918C36.9792 6.47918 38.4567 6.41895 39.2468 6.41895C39.5296 6.41895 39.6704 6.4591 39.6704 6.60071C39.6704 6.74231 39.5497 6.78247 39.3061 6.78247C39.0416 6.78332 38.7775 6.8035 38.516 6.84271C37.9695 6.94838 37.8075 7.2876 37.7672 7.99458C37.727 8.64131 37.727 9.20668 37.727 12.2776L37.7227 15.8336Z" fill="white"/>
<path d="M47.6663 19.7734C45.6826 18.0361 45.1562 15.7736 45.1562 13.8133C45.1562 12.4395 45.5799 10.0555 47.5244 8.27799C48.9828 6.94435 50.9061 6.13593 53.9235 6.13593C54.9057 6.1317 55.887 6.19912 56.8594 6.33777C57.6283 6.44345 58.2764 6.62098 58.8844 6.68122C59.1068 6.70235 59.1873 6.80275 59.1873 6.92427C59.1873 7.08596 59.1269 7.32796 59.0814 8.03493C59.04 8.70175 59.0612 9.81346 59.0199 10.2171C58.9998 10.5204 58.9596 10.6821 58.7774 10.6821C58.6153 10.6821 58.5751 10.5204 58.5751 10.2372C58.5447 9.54303 58.264 8.88266 57.785 8.37838C57.1167 7.6714 55.5376 7.12611 53.6746 7.12611C51.9133 7.12611 50.7589 7.57101 49.8682 8.37838C48.3855 9.73209 48.0052 11.6543 48.0052 13.6115C48.0052 18.4197 51.6708 20.8038 54.3832 20.8038C56.1836 20.8038 57.2788 20.6019 58.09 19.672C58.4171 19.2852 58.6525 18.8296 58.7784 18.3394C58.8388 18.016 58.8844 17.9347 59.0411 17.9347C59.183 17.9347 59.2233 18.0763 59.2233 18.238C59.2233 18.48 58.9807 20.2384 58.7784 20.9253C58.6725 21.2688 58.5963 21.3691 58.2489 21.5108C57.4387 21.8341 55.8998 21.9757 54.6045 21.9757C51.8371 21.9757 49.5092 21.3691 47.6663 19.7734Z" fill="white"/>
<path d="M68.5829 13.2477C69.2311 14.2379 72.5112 19.713 73.0174 20.3587C73.3616 20.8036 73.6656 21.0456 74.192 21.2041C74.4407 21.2825 74.6999 21.3234 74.9609 21.3256C75.1028 21.3256 75.2246 21.3658 75.2246 21.4873C75.2246 21.6289 75.0625 21.6891 74.8401 21.6891H74.2322C73.7461 21.6891 72.1468 21.6891 70.5878 21.649C70.0583 21.6289 69.8994 21.5888 69.8994 21.4471C69.8994 21.3256 70 21.2654 70.1822 21.2242C70.2881 21.2041 70.3654 21.0223 70.2235 20.7603C69.1093 18.7799 67.956 16.7805 67.0239 15.2651L64.0277 20.0934C63.8254 20.4168 63.7238 20.7201 63.7439 20.9388C63.764 21.1206 63.9462 21.2411 64.1283 21.2823C64.2824 21.3073 64.4382 21.3209 64.5944 21.3225C64.7162 21.3225 64.8369 21.3827 64.8369 21.5042C64.8369 21.6458 64.696 21.686 64.4323 21.686H64.068C63.9462 21.686 62.671 21.6257 62.1616 21.6257C61.7761 21.6257 60.7848 21.686 60.4607 21.686H60.1165C59.9142 21.686 59.8125 21.6257 59.8125 21.5042C59.8125 21.3827 59.9343 21.3225 60.0963 21.3225C60.3493 21.3174 60.6007 21.282 60.8451 21.2168C61.4329 21.0551 61.8174 20.6715 62.5058 19.7024L66.3726 14.1861L62.8934 8.43947C62.4073 7.63105 61.9212 7.146 61.2126 6.92408C60.9383 6.83732 60.653 6.78966 60.3654 6.78247C60.3578 6.78342 60.3503 6.78384 60.3428 6.78384C60.2435 6.78384 60.1617 6.70226 60.1617 6.60314C60.1617 6.59564 60.1621 6.58813 60.1631 6.58063C60.1631 6.4591 60.305 6.41895 60.5687 6.41895C61.0538 6.41895 62.6943 6.47918 63.6401 6.47918C63.9239 6.47918 65.0582 6.41895 65.807 6.41895C66.0909 6.41895 66.2116 6.4591 66.2116 6.60071C66.2116 6.74231 66.0909 6.78247 65.9087 6.78247C65.7233 6.78236 65.5388 6.80942 65.3611 6.86278C65.2166 6.90294 65.1165 7.03641 65.1186 7.18615C65.1458 7.39328 65.2147 7.59269 65.3209 7.77266C66.1915 9.38844 67.1034 10.8637 67.8924 12.2375C68.4802 11.3487 70.3432 8.53881 70.6461 7.9745C70.779 7.73947 70.8551 7.47676 70.8685 7.20729C70.8685 7.06568 70.7276 6.904 70.5253 6.84271C70.3128 6.79462 70.0949 6.77444 69.8772 6.78247C69.7554 6.78247 69.6336 6.74231 69.6336 6.60071C69.6336 6.47918 69.7755 6.41895 70.0572 6.41895C70.8463 6.41895 71.6967 6.47918 72.0822 6.47918C72.4868 6.47918 73.3171 6.41895 74.0659 6.41895C74.2894 6.41895 74.4303 6.47918 74.4303 6.60071C74.4303 6.72224 74.3095 6.78247 74.1062 6.78247C73.8589 6.78955 73.6137 6.83045 73.3775 6.904C72.9126 7.02447 72.5069 7.59089 71.8948 8.47963L68.5829 13.2477Z" fill="white"/>
</svg>
