<svg width="95" height="17" viewBox="0 0 95 17" fill="none" xmlns="http://www.w3.org/2000/svg">
<path d="M26.1865 16.884V4.64878L34.9959 16.884H38.1526V0.0078125H35.2406V12.2346L26.3578 0.0078125H23.25V16.884H26.1865Z" fill="white"/>
<path d="M58.1041 4.03701H58.1779V16.884H61.1144V0.0078125H56.7828L51.8641 13.5561L46.8723 0.0078125H42.4922V16.884H45.4287V4.03701L50.2004 16.9085H53.4062L58.1041 4.03701Z" fill="white"/>
<path d="M65.4688 0.0078125V16.884H68.4298V11.7697L70.95 9.05347L75.918 16.884H79.4416L73.0054 6.7043L78.7806 0.0078125H75.0369L70.7053 5.23607L68.4298 8.09912V0.0078125H65.4688Z" fill="white"/>
<path d="M94.8278 5.08987C94.8278 1.27247 92.3568 0 88.9063 0L81.6875 0.00843885V16.8847H84.6486V10.2287H88.4654L91.745 16.8847H94.9993V16.7134L91.4511 9.86163C93.3841 9.2988 94.8278 7.78163 94.8278 5.08987ZM84.6486 2.49599H88.9063C90.7416 2.49599 91.8182 3.40141 91.8182 5.11434C91.8182 6.82728 90.6924 7.73269 88.9063 7.73269H84.6486V2.49599Z" fill="white"/>
<path d="M0.742188 7.03176V0H16.2121V7.03176H13.3994V9.14129L9.18031 7.03176V9.14129L4.96125 7.03176V9.14129L0.742188 7.03176Z" fill="white"/>
<path d="M0.742188 14.0635V16.8762H16.2121V14.0635H0.742188Z" fill="white"/>
</svg>
