<svg width="104" height="20" viewBox="0 0 104 20" fill="none" xmlns="http://www.w3.org/2000/svg">
<g clip-path="url(#clip0_9535_4778)">
<path d="M8.42689 6.85778L6.32016 5.66503L0 9.2429V16.3983L6.32016 19.9762L12.6407 16.3983V5.26745L16.1518 3.2799L19.6633 5.26745V9.2429L16.1518 11.2304L14.045 10.0381V13.2179L16.1518 14.4108L22.472 10.8329V3.67748L16.1518 0.0996094L9.83163 3.67748V14.8083L6.32016 16.7958L2.8091 14.8083V10.8329L6.32016 8.84532L8.42689 10.0377V6.85778Z" fill="#6600FF"/>
<path fill-rule="evenodd" clip-rule="evenodd" d="M53.3015 15.5013H56.1464V0.248047H53.3015V15.5013ZM35.0127 4.65879C36.361 4.65879 37.4789 5.18859 38.3629 6.24659C39.2486 7.30459 39.6899 8.61704 39.6899 10.1839C39.6899 11.7508 39.247 13.0632 38.3629 14.1212C37.4772 15.1792 36.361 15.709 35.0127 15.709C34.0579 15.709 33.2281 15.4208 32.5268 14.8427C31.8386 14.2517 31.3332 13.4545 31.0089 12.4513V19.6238H28.1641V4.86491H31.0089V7.91491C31.3315 6.91167 31.8386 6.12099 32.5268 5.54448C33.2298 4.95348 34.0579 4.65879 35.0127 4.65879ZM33.9788 13.1727C34.7509 13.1727 35.4046 12.8909 35.9379 12.3273C36.4713 11.7508 36.738 11.0358 36.738 10.1839C36.738 9.33203 36.4713 8.64441 35.9379 8.08079C35.4046 7.50428 34.7509 7.21442 33.9788 7.21442C33.1211 7.21442 32.4132 7.49622 31.8501 8.05985C31.2887 8.62347 31.0073 9.33042 31.0073 10.1823C31.0073 11.0342 31.2887 11.7492 31.8501 12.3257C32.4115 12.8893 33.1211 13.1711 33.9788 13.1711V13.1727ZM40.4455 10.1839C40.4455 11.7508 41.0004 13.0632 42.1099 14.1212C43.2196 15.1792 44.6041 15.709 46.262 15.709C47.9198 15.709 49.3043 15.1792 50.4139 14.1212C51.5235 13.0632 52.0784 11.7508 52.0784 10.1839C52.0784 8.61704 51.5235 7.30459 50.4139 6.24659C49.3043 5.18859 47.9198 4.65879 46.262 4.65879C44.6041 4.65879 43.2196 5.18859 42.1099 6.24659C41.0004 7.30459 40.4455 8.61704 40.4455 10.1839ZM44.2172 12.3273C43.669 11.7508 43.3956 11.0358 43.3956 10.1839C43.3956 9.33203 43.669 8.64441 44.2172 8.08079C44.7654 7.50428 45.447 7.21442 46.262 7.21442C47.0769 7.21442 47.7585 7.49622 48.3066 8.05985C48.8549 8.62347 49.1281 9.33042 49.1281 10.1823C49.1281 11.0342 48.8549 11.7492 48.3066 12.3257C47.7585 12.8893 47.0769 13.1711 46.262 13.1711C45.447 13.1711 44.7654 12.8893 44.2172 12.3257V12.3273ZM82.4281 14.1212C81.3184 13.0632 80.7636 11.7508 80.7636 10.1839C80.7636 8.61704 81.3184 7.30459 82.4281 6.24659C83.5376 5.18859 84.9222 4.65879 86.58 4.65879C88.2378 4.65879 89.6224 5.18859 90.732 6.24659C91.8416 7.30459 92.3964 8.61704 92.3964 10.1839C92.3964 11.7508 91.8416 13.0632 90.732 14.1212C89.6224 15.1792 88.2378 15.709 86.58 15.709C84.9222 15.709 83.5393 15.1792 82.4281 14.1212ZM83.7122 10.1839C83.7122 11.0358 83.9854 11.7508 84.5337 12.3273C85.0818 12.8909 85.7634 13.1727 86.5784 13.1727C87.3933 13.1727 88.0749 12.8909 88.6231 12.3273C89.1713 11.7508 89.4445 11.0358 89.4445 10.1839C89.4445 9.33203 89.1713 8.62347 88.6231 8.06146C88.0749 7.49784 87.3933 7.21603 86.5784 7.21603C85.7634 7.21603 85.0818 7.50428 84.5337 8.0824C83.9854 8.64603 83.7122 9.34652 83.7122 10.1855V10.1839ZM99.9678 4.65879C101.176 4.65879 102.146 5.07104 102.875 5.89554C103.619 6.72004 103.991 7.77159 103.991 9.04861V15.4997H101.147V9.54299C101.147 8.85536 100.923 8.29174 100.472 7.85211C100.022 7.41249 99.4607 7.19188 98.7857 7.19188C98.0268 7.19188 97.4094 7.41249 96.932 7.85211C96.4546 8.29174 96.2159 8.85536 96.2159 9.54299V15.4997H93.371V4.86491H96.2159V7.58641C96.4974 6.67978 96.9683 5.96479 97.6284 5.44304C98.3033 4.92129 99.0821 4.66041 99.9678 4.66041V4.65879ZM62.9802 12.6655L65.8875 4.87458H68.7752L62.7909 19.6334H59.9032L61.4211 15.8813L56.9745 4.87458H60.0514L62.9802 12.6655ZM76.8652 4.86491V7.53005C76.2725 5.79086 74.8089 4.86491 72.8613 4.86491C69.9211 4.86491 68.1825 7.37706 68.1825 10.018C68.1825 12.659 69.9078 15.3772 72.8613 15.3772C74.8089 15.3772 76.2725 14.0037 76.8652 12.2645V14.3048C76.8652 15.1712 76.5771 15.8845 76.0009 16.4482C75.4246 17.0118 74.7234 17.2937 73.8935 17.2937C72.7692 17.2937 71.9344 16.7445 71.3863 15.6446L68.8361 16.9635C69.3136 17.8298 69.9952 18.5223 70.8808 19.0456C71.7666 19.5674 72.7708 19.8283 73.8935 19.8283C75.5515 19.8283 76.9359 19.3001 78.0456 18.2404C79.1552 17.1824 79.7099 15.8701 79.7099 14.3032V4.86491H76.8652ZM76.0437 12.039C75.4954 12.5753 74.8073 12.8425 73.9792 12.8425C73.1511 12.8425 72.504 12.5753 71.9559 12.039C71.4076 11.4899 71.1344 10.8168 71.1344 10.0196C71.1344 9.22252 71.4076 8.55584 71.9559 8.01959C72.504 7.48335 73.1774 7.21603 73.9792 7.21603C74.7809 7.21603 75.4971 7.48335 76.0437 8.01959C76.5918 8.54135 76.8652 9.20804 76.8652 10.0196C76.8652 10.8313 76.5918 11.5044 76.0437 12.039Z" fill="white"/>
</g>
<defs>
<clipPath id="clip0_9535_4778">
<rect width="104" height="20" fill="white"/>
</clipPath>
</defs>
</svg>
