<svg width="41" height="41" viewBox="0 0 41 41" fill="none" xmlns="http://www.w3.org/2000/svg">
<g clip-path="url(#clip0_9269_4167)">
<path d="M32.8 0H8.2C3.67126 0 0 3.67126 0 8.2V32.8C0 37.3287 3.67126 41 8.2 41H32.8C37.3287 41 41 37.3287 41 32.8V8.2C41 3.67126 37.3287 0 32.8 0Z" fill="white"/>
<path d="M28.2888 20.2299C29.5803 19.8944 30.7294 18.9284 30.7294 16.9861C30.7294 13.7526 27.9838 13 24.4655 13H10.4531V27.5616H16.3509V22.6196H23.3469C24.4248 22.6196 25.0553 23.0466 25.0553 24.1042V27.5616H30.9531V23.9212C30.9531 21.9383 29.8345 20.6875 28.2888 20.2299ZM23.4486 18.6945H16.3509V17.2709H23.4486C24.2214 17.2709 24.6891 17.3725 24.6891 17.9827C24.6891 18.5928 24.2214 18.6945 23.4486 18.6945Z" fill="black"/>
</g>
<defs>
<clipPath id="clip0_9269_4167">
<rect width="41" height="41" fill="white"/>
</clipPath>
</defs>
</svg>
