<svg width="123" height="19" viewBox="0 0 123 19" fill="none" xmlns="http://www.w3.org/2000/svg">
<path d="M37.4064 8.10352H28.5909V5.20031H39.6976V2.2971H28.5615C28.181 2.29498 27.8038 2.36784 27.4514 2.51152C27.0991 2.6552 26.7785 2.86689 26.508 3.13448C26.2375 3.40208 26.0224 3.72034 25.8749 4.0711C25.7274 4.42186 25.6504 4.79823 25.6484 5.17873V8.12117C25.6499 8.502 25.7265 8.8788 25.8738 9.23001C26.021 9.58122 26.2361 9.89995 26.5066 10.168C26.7772 10.436 27.0979 10.648 27.4505 10.7919C27.8031 10.9359 28.1806 11.0088 28.5615 11.0067H37.3888V13.9099H25.8583V16.8131H37.4064C37.9795 16.8164 38.5406 16.6495 39.0188 16.3337C39.497 16.0179 39.8708 15.5673 40.0929 15.039C40.2404 14.6883 40.3174 14.312 40.3194 13.9315V10.9891C40.3179 10.6082 40.2414 10.2315 40.0941 9.88026C39.9468 9.52907 39.7318 9.21035 39.4612 8.94234C39.1906 8.67434 38.8699 8.4623 38.5173 8.31837C38.1647 8.17444 37.7873 8.10143 37.4064 8.10352ZM54.4844 2.2971H45.6355C45.0614 2.29253 44.499 2.45854 44.0195 2.77407C43.5399 3.08961 43.1649 3.54045 42.9419 4.06943C42.7939 4.42062 42.7166 4.7976 42.7146 5.17873V13.9315C42.7166 14.3127 42.7938 14.6897 42.9419 15.041C43.1649 15.57 43.5399 16.0208 44.0194 16.3364C44.499 16.6519 45.0614 16.8178 45.6355 16.8131H54.4844C54.8649 16.8153 55.242 16.7424 55.5944 16.5987C55.9467 16.455 56.2673 16.2434 56.5378 15.9758C56.8083 15.7082 57.0235 15.3899 57.1709 15.0391C57.3184 14.6884 57.3954 14.312 57.3974 13.9315V5.17873C57.3954 4.79824 57.3185 4.42188 57.1709 4.07115C57.0234 3.72042 56.8082 3.40221 56.5376 3.13472C56.2672 2.86703 55.9467 2.65528 55.5943 2.51155C55.242 2.36783 54.8649 2.29495 54.4844 2.2971ZM54.4628 13.9099H45.657V5.20031H54.4589L54.4628 13.9099ZM85.4781 2.2971H76.8469C76.4664 2.29498 76.0892 2.36784 75.7369 2.51152C75.3846 2.6552 75.064 2.86689 74.7935 3.13448C74.523 3.40208 74.3078 3.72034 74.1603 4.0711C74.0128 4.42186 73.9359 4.79823 73.9339 5.17873V16.8131H76.8763V12.0444H85.4683V16.8131H88.4107V5.17873C88.4088 4.79655 88.3312 4.41853 88.1825 4.06646C88.0338 3.71439 87.8169 3.39523 87.5443 3.12736C87.2717 2.8595 86.9488 2.64823 86.5942 2.50574C86.2396 2.36324 85.8602 2.29233 85.4781 2.2971ZM85.4565 9.14122H76.8646V5.20031H85.4565V9.14122ZM119.836 2.2971H111.205C110.824 2.29498 110.447 2.36784 110.095 2.51152C109.742 2.6552 109.422 2.86689 109.151 3.13448C108.881 3.40208 108.666 3.72034 108.518 4.0711C108.371 4.42186 108.294 4.79823 108.292 5.17873V16.8131H111.234V12.0444H119.807V16.8131H122.749V5.17873C122.747 4.79824 122.67 4.42188 122.523 4.07115C122.375 3.72042 122.16 3.40221 121.889 3.13472C121.343 2.5943 120.604 2.293 119.836 2.2971ZM119.807 9.14122H111.215V5.20031H119.807V9.14122ZM102.74 13.9099H101.563L97.3557 3.51331C97.2115 3.15458 96.9635 2.84713 96.6433 2.63042C96.3231 2.41372 95.9455 2.29764 95.5589 2.2971H92.948C92.5658 2.29504 92.1915 2.40643 91.8727 2.61717C91.5538 2.82791 91.3047 3.12852 91.1568 3.48094C91.0586 3.71485 91.0073 3.9658 91.0059 4.2195V16.8131H93.9484V5.20031H95.1254L99.3311 15.5969C99.4776 15.955 99.7276 16.2612 100.049 16.4765C100.371 16.6917 100.749 16.8062 101.136 16.8053H103.747C104 16.8067 104.252 16.758 104.487 16.6621C104.722 16.5661 104.936 16.4248 105.116 16.2462C105.48 15.8857 105.686 15.3953 105.689 14.8829V2.2971H102.74V13.9099ZM62.939 2.2971H59.9965V13.9315C59.9985 14.3128 60.0758 14.69 60.2239 15.0414C60.372 15.3927 60.5881 15.7114 60.8596 15.9791C61.1312 16.2467 61.4529 16.4582 61.8064 16.6013C62.1598 16.7445 62.538 16.8164 62.9194 16.8131H71.7467V13.9099H62.939V2.2971Z" fill="white"/>
<path d="M20.946 14.8476L17.47 18.5747C17.3949 18.6557 17.3038 18.7203 17.2025 18.7645C17.1013 18.8087 16.992 18.8316 16.8815 18.8317H0.403868C0.325278 18.8317 0.248406 18.8087 0.182666 18.7656C0.116925 18.7226 0.0651683 18.6613 0.0337334 18.5893C0.00229852 18.5172 -0.00745038 18.4376 0.0056804 18.3601C0.0188112 18.2826 0.0542517 18.2106 0.107663 18.153L3.57974 14.4259C3.65492 14.3449 3.74598 14.2803 3.84723 14.2361C3.94848 14.1919 4.05775 14.169 4.16823 14.1689H20.6459C20.7252 14.1673 20.8032 14.1891 20.8702 14.2317C20.9371 14.2743 20.9899 14.3358 21.022 14.4083C21.0541 14.4809 21.064 14.5613 21.0505 14.6395C21.0369 14.7177 21.0006 14.7901 20.946 14.8476ZM17.47 7.3405C17.3946 7.25991 17.3034 7.19556 17.2023 7.15137C17.1011 7.10719 16.9919 7.0841 16.8815 7.08352H0.403868C0.325278 7.08357 0.248406 7.10653 0.182666 7.14959C0.116925 7.19266 0.0651683 7.25396 0.0337334 7.32599C0.00229852 7.39802 -0.00745038 7.47765 0.0056804 7.55514C0.0188112 7.63262 0.0542517 7.7046 0.107663 7.76225L3.57974 11.4913C3.65521 11.5719 3.74633 11.6362 3.84751 11.6804C3.94869 11.7246 4.05782 11.7477 4.16823 11.7483H20.6459C20.7243 11.7479 20.8009 11.7246 20.8664 11.6814C20.9318 11.6382 20.9833 11.5769 21.0145 11.5049C21.0457 11.433 21.0552 11.3535 21.0421 11.2762C21.0289 11.1989 20.9934 11.1271 20.9401 11.0696L17.47 7.3405ZM0.403868 4.66288H16.8815C16.992 4.66278 17.1013 4.63992 17.2026 4.5957C17.3038 4.55149 17.3949 4.48688 17.47 4.4059L20.946 0.67881C20.9868 0.635735 21.0175 0.58419 21.036 0.52786C21.0545 0.47153 21.0604 0.411807 21.0531 0.352959C21.0459 0.294111 21.0257 0.237592 20.9941 0.187442C20.9624 0.137293 20.9201 0.0947511 20.8701 0.0628585C20.8032 0.0202822 20.7252 -0.0015574 20.6459 8.64175e-05H4.16823C4.05775 0.000202711 3.94848 0.0230803 3.84723 0.0672925C3.74598 0.111505 3.65492 0.176103 3.57974 0.25706L0.107663 3.98415C0.0542517 4.0418 0.0188112 4.11378 0.0056804 4.19126C-0.00745038 4.26875 0.00229852 4.34838 0.0337334 4.42041C0.0651683 4.49244 0.116925 4.55374 0.182666 4.59681C0.248406 4.63987 0.325278 4.66283 0.403868 4.66288Z" fill="white"/>
</svg>
