<svg width="186" height="41" viewBox="0 0 186 41" fill="none" xmlns="http://www.w3.org/2000/svg">
<path fill-rule="evenodd" clip-rule="evenodd" d="M0.717159 0.908905C5.34021 6.58556 10.4161 13.717 11.2372 14.8706C11.281 14.9322 11.3124 14.9766 11.3315 15.003C11.7691 15.6149 12.1304 16.0699 12.4047 16.4153C13.0139 17.1823 13.1946 17.4098 12.8312 17.6189C12.5381 17.7875 12.2354 17.8431 11.9337 17.8431C11.5925 17.8431 11.2079 17.677 10.928 17.4082C10.73 17.2182 9.37583 15.2284 7.53162 12.3337C6.12061 10.1186 4.93979 8.28114 4.90778 8.25044C4.83318 8.17918 4.83452 8.18169 7.3878 12.8037C8.99103 15.7059 10.0878 17.8508 10.0878 17.9879C10.0878 18.2671 10.0126 18.4139 9.67214 18.7978C9.10477 19.4383 8.85126 20.1577 8.66811 21.6467C8.46298 23.3158 7.88577 24.4951 6.28641 26.5129C5.35023 27.6943 5.19697 27.9108 4.9608 28.3869C4.66314 28.9865 4.58139 29.3223 4.54824 30.0794C4.51315 30.88 4.58139 31.3971 4.82315 32.1624C5.03483 32.8324 5.25557 33.275 5.82044 34.1599C6.30781 34.9234 6.58831 35.491 6.58831 35.713C6.58831 35.8897 6.62167 35.8899 7.37682 35.7175C9.1842 35.3044 10.6517 34.5784 11.477 33.6884C11.9879 33.1375 12.1078 32.8334 12.1117 32.0786C12.1144 31.5848 12.097 31.4815 11.9652 31.1975C11.7504 30.735 11.3596 30.3507 10.498 29.7548C9.36889 28.9739 8.88673 28.3454 8.75351 27.4809C8.6442 26.7717 8.77086 26.2712 9.39549 24.9469C10.0421 23.5761 10.2023 22.992 10.3107 21.6102C10.3806 20.7175 10.4774 20.3655 10.7309 20.083C10.9954 19.7883 11.2335 19.6885 11.8877 19.5979C12.9545 19.4506 13.6337 19.1712 14.1922 18.6508C14.6765 18.1994 14.8791 17.7641 14.9104 17.1091L14.9339 16.6129L14.6632 16.2935C13.6831 15.1372 0.0607174 0 0.000374837 0C-0.0125419 0 0.309992 0.408978 0.717159 0.908905ZM7.13872 30.9852C7.36043 30.588 7.24244 30.0777 6.87171 29.8282C6.52142 29.5926 5.97737 29.7037 5.97737 30.0107C5.97737 30.1043 6.02865 30.1725 6.14394 30.2327C6.33846 30.3339 6.35253 30.4477 6.19965 30.6801C6.04465 30.9157 6.05718 31.1227 6.23474 31.2633C6.52103 31.4902 6.92646 31.3654 7.13872 30.9852ZM13.8094 9.33139C13.3721 9.26265 13.3536 9.25454 13.5595 9.22268C13.9538 9.16127 14.8849 9.24488 15.5267 9.39917C17.0249 9.75949 18.3881 10.6825 19.8432 12.3215L20.2298 12.7569L20.7829 12.6671C23.1127 12.2883 25.4829 12.5893 27.4653 13.5158C28.0107 13.7707 28.8705 14.2781 28.9779 14.4085C29.012 14.45 29.0751 14.7174 29.1175 15.003C29.2648 15.9903 29.1911 16.7473 28.8925 17.3127C28.7302 17.6203 28.7211 17.7178 28.8302 17.9812C28.9174 18.1912 29.1605 18.3467 29.4013 18.3463C29.8938 18.3457 30.424 17.5399 30.6698 16.419L30.7674 15.9737L30.9607 16.1952C32.0211 17.4107 32.8541 19.0685 32.9971 20.2483L33.0343 20.5559L32.8562 20.2763C32.5493 19.7951 32.2412 19.4674 31.8464 19.2033C31.135 18.7269 30.3825 18.5649 28.3903 18.4587C26.5908 18.3627 25.5725 18.2073 24.5627 17.874C22.8444 17.3072 21.9784 16.5524 19.9373 13.8435C19.0308 12.6403 18.4706 11.9743 17.913 11.4383C16.6468 10.2202 15.4024 9.58126 13.8094 9.33139ZM29.3837 12.0179C29.429 11.2116 29.5372 10.6798 29.7544 10.1941C29.8404 10.0018 29.921 9.84464 29.9334 9.84464C29.9459 9.84464 29.9085 9.98638 29.8503 10.1598C29.6924 10.6311 29.6663 11.2759 29.7753 12.0259C29.9133 12.9778 29.992 13.1149 30.9862 14.1432C31.4525 14.6253 31.995 15.2334 32.1917 15.4946L32.5493 15.9693L32.1917 15.63C31.7544 15.215 30.7488 14.4058 30.5268 14.2903C30.3777 14.2127 30.3556 14.214 30.2638 14.3065C30.1792 14.3917 30.1612 14.5199 30.1495 15.1253C30.1312 16.0691 30.0041 16.675 29.6972 17.2806C29.5312 17.6083 29.505 17.5384 29.6552 17.1686C29.7674 16.8925 29.7787 16.771 29.778 15.8575C29.7762 14.0217 29.5607 13.5805 28.2974 12.8245C27.9775 12.633 27.4501 12.3566 27.1256 12.2105C26.8013 12.0645 26.5436 11.9372 26.5528 11.9278C26.5887 11.8917 27.8208 12.2555 28.3166 12.4485C29.0542 12.7355 29.1759 12.7728 29.2655 12.7382C29.3255 12.715 29.3546 12.538 29.3837 12.0179ZM13.3407 10.6085C13.2218 12.0259 13.771 13.9217 14.6588 15.1583C15.347 16.1168 16.4139 16.8618 17.2017 16.9336C17.7172 16.9807 17.8722 16.8174 17.6389 16.4727C17.315 15.9942 16.9165 15.2573 16.8111 14.9418C16.7455 14.7458 16.6034 14.1669 16.4949 13.6554C16.1246 11.9088 15.7604 11.2286 14.9198 10.712C14.6133 10.5238 13.959 10.2774 13.5796 10.2073L13.3775 10.17L13.3407 10.6085ZM28.307 24.3613C24.158 22.6713 22.6967 21.2043 22.6967 18.7292C22.6967 18.3648 22.7092 18.0669 22.7243 18.0669C22.7395 18.0669 22.8999 18.1872 23.0809 18.3341C23.9222 19.0167 24.8644 19.3083 27.4726 19.6931C29.0072 19.9198 29.8709 20.1027 30.6677 20.3701C33.1999 21.2198 34.7667 22.9439 35.1404 25.2926C35.2489 25.975 35.1853 27.2546 35.0093 27.9291C34.8703 28.4619 34.4461 29.4219 34.3337 29.4588C34.3025 29.469 34.2718 29.3482 34.2639 29.1836C34.2213 28.3018 33.7808 27.4433 33.0411 26.8001C32.2 26.0688 31.0698 25.4868 28.307 24.3613ZM25.1939 24.1753C25.2521 24.3508 25.3423 24.7503 25.3942 25.0634C25.7265 27.0642 24.6884 28.6808 22.6689 29.3072C22.4551 29.3735 21.613 29.5403 20.7975 29.6776C19.1467 29.9556 18.4101 30.1526 17.6699 30.5133C17.145 30.7692 16.5094 31.1523 16.5471 31.1903C16.5593 31.2027 16.6792 31.1737 16.8134 31.126C17.7469 30.7945 18.7856 30.6228 20.3638 30.5398C20.9901 30.5069 21.7025 30.4544 21.9469 30.4233C23.3529 30.2441 24.3275 29.812 25.0853 29.0317C25.5069 28.5974 25.7583 28.1929 25.961 27.6225C26.0894 27.2606 26.1067 27.1262 26.1077 26.4851C26.1088 25.8319 26.0932 25.7124 25.954 25.3105C25.7718 24.7838 25.5569 24.3885 25.2847 24.0793L25.088 23.8561L25.1939 24.1753ZM27.2962 28.4806C26.7448 27.2816 26.6184 26.1242 26.9203 25.0448C26.9527 24.9293 27.0045 24.8349 27.0359 24.8349C27.0672 24.8349 27.1971 24.9062 27.3249 24.9931C27.5788 25.1661 28.0884 25.4575 29.4456 26.2061C31.1394 27.1403 32.1051 27.8636 32.7617 28.6903C33.3368 29.414 33.6927 30.2383 33.8639 31.2436C33.9611 31.813 33.9042 33.1833 33.7598 33.7566C33.3044 35.5645 32.246 36.9846 30.7365 37.8133C30.5154 37.9346 30.3168 38.0342 30.2952 38.0348C30.2738 38.0352 30.3544 37.828 30.4743 37.5741C30.9821 36.5001 31.04 35.4554 30.6561 34.2928C30.4209 33.5808 29.9416 32.7121 28.9738 31.2438C27.8487 29.5368 27.5729 29.0825 27.2962 28.4806ZM16.9127 32.4128C15.1679 32.6996 13.252 33.6338 11.7124 34.9489L11.2542 35.3405L11.6571 35.4043C13.7591 35.7362 14.3253 36.0307 15.7833 37.5503C16.6223 38.4247 16.9057 38.6193 17.6019 38.7991C18.624 39.063 19.6317 38.578 19.9774 37.6554C20.1318 37.2431 20.1112 36.5605 19.934 36.2178C19.5126 35.4016 18.2847 35.1378 17.6911 35.7356C17.1965 36.2336 17.3407 36.9838 17.9557 37.1128C18.0964 37.1425 18.0925 37.1361 17.9198 37.0572C17.6507 36.934 17.5336 36.7633 17.5323 36.4916C17.5288 35.8546 18.2495 35.4969 18.9196 35.8028C19.4104 36.027 19.6053 36.3197 19.6053 36.833C19.6053 37.6233 18.9404 38.2188 18.1668 38.1215C17.753 38.0694 17.2472 37.8017 16.9761 37.4916C16.2936 36.7109 16.5595 35.479 17.5122 35.0063C18.2377 34.6465 19.202 34.7352 19.9497 35.2305C20.8087 35.7997 21.174 36.3199 21.914 38.0273C22.155 38.5832 22.465 39.209 22.6028 39.418C23.3038 40.4794 24.1436 41 25.1551 41C25.713 41 26.1327 40.8969 26.6608 40.6302C27.0531 40.4319 27.6093 40.0552 27.5692 40.0148C27.5578 40.0034 27.3951 40.0546 27.2075 40.1286C26.103 40.5644 24.9803 40.5344 24.3282 40.0515C23.9176 39.7476 23.5864 39.142 23.4162 38.3847C23.3867 38.2536 23.2895 37.6747 23.2001 37.0981C22.9733 35.6367 22.7557 34.9798 22.2481 34.226C21.7287 33.4548 20.7303 32.8075 19.614 32.5184C18.9177 32.3381 17.6649 32.289 16.9127 32.4128ZM14.4689 21.1141C14.6195 20.5511 15.1063 20.0141 15.6071 19.8584C15.9256 19.7596 16.5838 19.8227 16.8934 19.9818C17.493 20.2904 17.9287 20.9931 17.8342 21.5003C17.7187 22.1188 16.7274 22.6137 15.5869 22.6218C15.0043 22.6259 14.7893 22.5467 14.5668 22.2463C14.429 22.0601 14.3769 21.4577 14.4689 21.1141ZM16.7401 20.2023C17.0393 20.3871 17.1161 20.6604 16.9404 20.9131C16.8192 21.0873 16.4442 21.2528 16.1701 21.2528C15.7583 21.2528 15.3091 20.957 15.3091 20.686C15.3091 20.1417 16.1706 19.8503 16.7401 20.2023ZM106.136 21.761C105.205 18.6614 106.74 16.0902 110.014 15.2641C110.953 15.027 115.204 15.1339 115.932 15.413C116.2 15.5153 116.316 15.9079 116.319 16.7146C116.321 17.3499 116.39 18.1217 116.472 18.4293C116.598 18.896 116.524 18.9878 116.033 18.9802C115.589 18.9733 115.32 18.7124 114.944 17.923C114.345 16.6621 113.619 16.2612 111.928 16.2566C109.769 16.2502 108.189 17.7064 108.446 19.4657C108.613 20.6105 109.756 21.7371 112.318 23.2857C114.757 24.7588 116.18 25.9703 116.747 27.0557C118.264 29.9576 116.969 33.063 113.59 34.6276C111.856 35.4307 108.949 35.5137 106.906 34.8186L105.597 34.3733V32.279C105.597 30.3822 105.642 30.1843 106.074 30.1843C106.435 30.1843 106.591 30.4233 106.718 31.1722C107.033 33.0342 108.446 34.1646 110.458 34.1646C112.429 34.1646 113.807 33.0859 114.335 31.1301C114.559 30.2969 114.521 29.9896 114.075 29.0705C113.54 27.9685 112.62 27.2372 109.495 25.4314C107.761 24.4292 106.534 23.0893 106.136 21.761ZM44.8717 16.5015C44.4452 16.5015 44.2789 16.3618 44.2789 16.0038C44.2789 15.53 44.4452 15.5064 47.7868 15.5064C50.8884 15.5064 51.2854 15.5532 51.2142 15.9096C51.1697 16.1317 50.7411 16.4393 50.2613 16.5938L49.3887 16.8745L49.3143 23.2185C49.2644 27.4516 49.3345 29.8935 49.5248 30.5573C50.0906 32.5317 51.8167 33.6672 54.252 33.6672C55.9473 33.6672 56.9377 33.2702 58.1819 32.0911C59.5203 30.8236 59.7337 29.6193 59.7295 23.3599C59.7254 17.1856 59.618 16.676 58.2941 16.548C57.6917 16.4895 57.4898 16.3491 57.4898 15.9882C57.4898 15.5383 57.6886 15.5064 60.4809 15.5064C63.3059 15.5064 63.472 15.534 63.472 16.0038C63.472 16.3105 63.3045 16.503 63.0358 16.5051C61.8813 16.5154 61.8601 16.6254 61.7048 23.3956C61.5436 30.4262 61.393 31.2587 59.9704 32.9809C59.5602 33.4777 58.5818 34.1991 57.7964 34.5842C56.5165 35.2115 56.1093 35.2836 53.8755 35.2795C51.8163 35.2753 51.1662 35.1756 50.1365 34.7062C48.6336 34.0209 47.6561 33.134 46.9355 31.8013C46.4325 30.8709 46.3895 30.3675 46.2731 24.0643C46.1397 16.8492 46.0751 16.5015 44.8717 16.5015ZM68.1963 16.5015C67.6264 16.5015 67.4602 16.3891 67.4602 16.0038C67.4602 15.5375 67.6195 15.5076 70.0151 15.5269L72.5701 15.5472L73.7925 16.9572C74.4644 17.7326 76.6552 20.1585 78.6604 22.3476C80.6658 24.537 82.9681 27.0837 83.7764 28.0073C84.585 28.9311 85.3459 29.6867 85.4676 29.6867C85.5925 29.6867 85.6548 27.0775 85.6102 23.6941L85.5316 17.7015L84.8321 17.1016C84.4475 16.7714 83.8589 16.5015 83.5237 16.5015C83.0778 16.5015 82.9145 16.3663 82.9145 15.9969C82.9145 15.5111 83.0417 15.4948 86.3417 15.5617C89.1477 15.6182 89.769 15.6968 89.769 15.9938C89.769 16.2054 89.422 16.4275 88.9358 16.5267C88.4778 16.6204 87.9728 16.8264 87.8142 16.9846C87.6094 17.1889 87.5051 19.8297 87.4544 26.0916L87.3829 34.9109H86.6605C86.0386 34.9109 85.2983 34.21 81.3404 29.8732C78.8116 27.1023 75.8598 23.8092 74.781 22.5552C73.7019 21.3011 72.7351 20.2655 72.6323 20.2541C72.343 20.2217 72.4129 31.4263 72.7089 32.4898C72.9396 33.3186 73.0983 33.4613 74.0786 33.7232C74.8681 33.9338 75.1874 34.1476 75.1874 34.465C75.1874 34.8727 74.8864 34.9109 71.6977 34.9109C68.4517 34.9109 68.2081 34.8785 68.2081 34.4446C68.2081 34.1269 68.4429 33.9313 68.9445 33.8311C70.4666 33.5274 70.5676 33.0452 70.653 25.6747C70.7008 21.5467 70.6306 18.6583 70.4673 18.0536C70.1805 16.9902 69.4656 16.5015 68.1963 16.5015ZM94.3329 16.5015C93.7989 16.5015 93.6327 16.3833 93.6327 16.0038C93.6327 15.5284 93.7989 15.5064 97.3716 15.5064C100.944 15.5064 101.111 15.5284 101.111 16.0038C101.111 16.3688 100.944 16.5015 100.487 16.5015C100.145 16.5015 99.6353 16.7299 99.3556 17.0089C98.8619 17.5019 98.8492 17.7469 98.9195 25.3634C98.988 32.7986 99.0173 33.2288 99.4755 33.5631C99.7418 33.7571 100.218 33.9159 100.535 33.9159C100.944 33.9159 101.111 34.0593 101.111 34.4135C101.111 34.8889 100.944 34.9109 97.3716 34.9109C93.8839 34.9109 93.6327 34.8796 93.6327 34.4453C93.6327 34.0951 93.8773 33.9404 94.6202 33.8218C96.0952 33.5864 96.1706 33.1045 96.0786 24.5041C96.0051 17.6168 95.9735 17.1873 95.5168 16.8542C95.2506 16.6602 94.7179 16.5015 94.3329 16.5015ZM120.414 16.5015C120.073 16.5015 119.813 16.3122 119.733 16.0038C119.607 15.5228 119.725 15.5064 123.318 15.5064C126.867 15.5064 127.034 15.5284 127.034 16.0038C127.034 16.3862 126.867 16.5015 126.316 16.5015C124.747 16.5015 124.782 16.7861 127.157 23.2921C128.366 26.6039 129.54 29.7498 129.765 30.2829L130.175 31.2525L132.079 26.1781C134.32 20.205 134.611 19.1003 134.231 18.0111C133.966 17.2518 132.934 16.5015 132.156 16.5015C131.936 16.5015 131.77 16.2875 131.77 16.0038C131.77 15.5277 131.936 15.5064 135.633 15.5064C139.33 15.5064 139.497 15.5277 139.497 16.0038C139.497 16.358 139.33 16.5015 138.921 16.5015C137.873 16.5015 137.411 17.0593 137.562 18.1428C137.717 19.2585 142.004 31.2477 142.184 31.0683C142.476 30.7765 147.224 17.8701 147.224 17.3669C147.224 16.7643 146.801 16.5015 145.832 16.5015C145.396 16.5015 145.23 16.3644 145.23 16.0038C145.23 15.534 145.396 15.5064 148.221 15.5064C150.758 15.5064 151.212 15.5651 151.212 15.8926C151.212 16.105 150.901 16.3869 150.521 16.5188C149.667 16.8162 149.452 17.1555 148.38 19.9042C147.91 21.1112 146.437 24.889 145.107 28.2987C144.257 30.4751 143.409 32.652 142.562 34.8292C142.492 35.0111 142.079 35.1598 141.645 35.1598H140.856L139.066 30.4952C138.202 28.2449 137.34 25.9936 136.481 23.7412C135.732 21.7718 135.669 21.6863 135.387 22.2484C135.222 22.5769 134.039 25.6216 132.758 29.0147L130.428 35.1841L129.558 35.1098L128.688 35.0354L125.371 26.3476C123.518 21.4938 121.814 17.404 121.51 17.0805C121.21 16.7619 120.717 16.5015 120.414 16.5015ZM170.254 16.6069C170.212 16.5125 170.213 16.1728 170.213 16.1728C170.213 16.1728 170.203 16.0504 170.254 15.9849C170.306 15.9198 170.324 15.9181 170.507 15.9007L170.509 15.9005C171.182 15.8364 172.532 15.7285 173.659 15.6792C173.762 15.6748 173.877 15.6696 174.001 15.6638H174.006C175.247 15.6072 177.466 15.5319 178.991 15.6082C181.918 15.7547 183.999 17.1715 184.708 19.513C185.418 21.8543 185.043 24.0521 184.076 25.4511C183.109 26.8501 181.483 28.0546 178.781 27.9762C176.55 27.9115 175.953 27.4931 175.476 27.1588C175.375 27.0882 175.279 27.0212 175.175 26.9623V29.9481C175.199 31.9845 175.216 32.9625 175.373 33.3246C175.585 33.812 176.065 34.1122 176.999 34.3424C176.999 34.3424 177.421 34.4417 177.531 34.5475C177.64 34.6533 177.64 34.8883 177.64 34.8883C177.64 34.8883 177.662 35.108 177.574 35.22C177.487 35.332 177.318 35.3096 177.318 35.3096L173.18 35.2762L170.686 35.2697C170.686 35.2697 170.424 35.3199 170.326 35.2144C170.228 35.1088 170.237 34.8889 170.237 34.8889C170.237 34.8889 170.258 34.652 170.373 34.5459C170.487 34.4397 170.913 34.3212 170.913 34.3212C171.875 34.0506 172.293 33.7645 172.511 33.2254C172.686 32.7907 172.687 31.9847 172.686 25.4073C172.684 19.1697 172.675 18.0061 172.532 17.6714C172.321 17.1761 171.792 17.0448 171.038 16.8579H171.038C170.888 16.8208 170.73 16.7816 170.564 16.737C170.564 16.737 170.296 16.7015 170.254 16.6069ZM182.301 21.6967C182.301 22.7195 182.283 24.3209 181.195 25.3445C180.108 26.3681 177.968 26.6483 176.515 26.3633C176.057 26.2735 175.795 26.135 175.593 26.0283L175.573 26.0176L175.201 25.8215L175.179 22.2277C175.166 19.976 175.189 18.5091 175.242 18.2994C175.291 17.1118 177.039 16.9643 177.894 17.0083C181.549 17.0083 182.194 20.0929 182.301 21.6967ZM158.776 15.6456C158.776 15.6456 158.598 15.7144 158.327 15.8171L157.351 16.3221L156.648 18.0792C156.262 19.0459 155.555 20.8201 155.077 22.0221C154.399 23.7334 153.716 25.4431 153.028 27.1511C152.851 27.5927 152.314 28.9375 151.835 30.1395C151.357 31.3413 150.879 32.4852 150.773 32.6814C150.755 32.714 150.736 32.7492 150.717 32.7863C150.449 33.2898 149.985 34.1646 149.164 34.2968C149.164 34.2968 148.713 34.3413 148.546 34.5065C148.378 34.672 148.395 34.8072 148.395 34.8072V35.0156C148.395 35.0156 148.41 35.1165 148.504 35.1667C148.599 35.2171 148.727 35.22 148.727 35.22L151.729 35.1859H154.832C154.832 35.1859 155.051 35.2115 155.136 35.1413C155.221 35.071 155.244 34.9667 155.244 34.9667V34.7473C155.244 34.7473 155.201 34.5094 155.078 34.4166C154.955 34.3239 154.495 34.2603 154.495 34.2603C153.252 34.0968 153.039 33.1558 153.192 32.3097C153.267 31.894 153.766 30.3561 154.329 28.8079L154.523 28.2728L157.774 28.2479C159.562 28.2342 161.106 28.2435 161.205 28.2686C161.346 28.3043 161.543 28.7061 162.124 30.1374C163.003 32.3058 163.073 32.57 162.878 32.9757C162.866 33.0004 162.854 33.0276 162.84 33.057C162.657 33.4493 162.303 34.2117 161.41 34.2893C161.41 34.2893 160.936 34.3057 160.818 34.4477C160.7 34.5898 160.725 34.7531 160.725 34.7531V34.9702C160.725 34.9702 160.757 35.0974 160.818 35.1478C160.879 35.1982 160.982 35.1855 160.982 35.1855L163.933 35.1642L168.081 35.164C168.081 35.164 168.243 35.1814 168.288 35.1189C168.332 35.0561 168.341 34.9823 168.341 34.9823V34.694C168.341 34.694 168.323 34.5407 168.243 34.4562C168.164 34.3718 167.626 34.2826 167.626 34.2826C166.938 34.1715 166.596 33.6034 166.341 33.1804C166.276 33.0724 166.217 32.9739 166.159 32.895C166.041 32.7337 165.619 31.8501 165.289 31.0003C164.959 30.1505 164.213 28.2307 163.633 26.7344C163.052 25.2381 162.242 23.1507 161.832 22.096C161.175 20.4028 160.518 18.7093 159.862 17.0157L159.862 17.0149C159.498 16.0759 159.352 15.697 159.312 15.6458C159.181 15.4792 158.776 15.6456 158.776 15.6456ZM158.583 21.3596C158.41 20.9368 158.24 20.5131 158.071 20.0886C157.797 19.3975 157.694 19.2384 157.609 19.3811C157.584 19.4228 157.412 19.8951 157.226 20.4308C156.023 23.8988 155.478 25.4604 155.369 25.7546C155.3 25.9396 155.244 26.1302 155.244 26.1783C155.244 26.2335 156.223 26.2658 157.899 26.2658C159.359 26.2658 160.554 26.2476 160.554 26.2254C160.554 26.2032 160.424 25.8722 160.265 25.4895C160.105 25.1068 159.715 24.1516 159.398 23.3666C159.081 22.5817 158.714 21.6786 158.583 21.3596Z" fill="white"/>
</svg>
