<svg width="63" height="18" viewBox="0 0 63 18" fill="none" xmlns="http://www.w3.org/2000/svg">
<path d="M17.9184 0.332031H20.9147L14.6784 6.62704C12.4205 8.90678 8.76368 8.90678 6.50578 6.62704L0.272049 0.332031H3.26836L8.00519 5.11473C9.41167 6.54177 11.7123 6.55932 13.1414 5.15486C13.1539 5.14232 13.169 5.12727 13.1815 5.11473L17.9184 0.332031ZM3.23068 17.8377H0.234375L6.50829 11.5025C8.76619 9.22279 12.423 9.22279 14.681 11.5025L20.9524 17.8377H17.956L13.1815 13.0173C11.7751 11.5903 9.47446 11.5728 8.04537 12.9772C8.03281 12.9898 8.01774 13.0048 8.00519 13.0173L3.23068 17.8377Z" fill="white"/>
<path d="M57.4116 0.332031H57.4141C58.1802 0.347079 58.8985 0.497557 59.5666 0.783466C60.2472 1.05182 60.845 1.42551 61.3548 1.90202C61.8697 2.38104 62.2715 2.94534 62.5604 3.59239C62.8517 4.22942 62.9974 4.90406 62.9974 5.61632C62.9974 6.34364 62.8442 7.03584 62.5352 7.68791C62.2464 8.32242 61.8345 8.88421 61.3071 9.37577C60.7947 9.85229 60.1869 10.2335 59.4937 10.5169H59.4912C58.8056 10.7878 58.0697 10.9232 57.2861 10.9232H50.7459V17.7775H48.4453V0.332031L57.4116 0.332031ZM57.2861 8.80897C57.7482 8.80897 58.1852 8.72621 58.5996 8.56068C59.019 8.39516 59.3832 8.16693 59.6947 7.87601C60.0061 7.58759 60.2547 7.244 60.4305 6.85777C60.6089 6.47405 60.6968 6.06024 60.6968 5.61632C60.6968 5.18746 60.6089 4.78117 60.4305 4.39745C60.2547 4.01373 60.0036 3.66763 59.6947 3.37922C59.3832 3.08829 59.019 2.86257 58.5996 2.69454C58.1852 2.52901 57.7482 2.44625 57.2861 2.44625H50.7459V8.80897H57.2861Z" fill="white"/>
<path d="M31.7384 10.9608C32.8912 10.9608 33.9837 11.4474 34.7071 12.285L39.459 17.78H42.4176L35.9176 10.1633C35.1943 9.31558 34.0967 8.82151 32.9339 8.82151H28.4306V2.47384H34.9708C35.4329 2.47384 35.8699 2.5566 36.2843 2.72213C36.7038 2.89016 37.0679 3.11839 37.3794 3.4068L37.3844 3.41182C37.6933 3.68519 37.9369 4.01373 38.1153 4.40247C38.2936 4.78619 38.3815 5.2 38.3815 5.64642C38.3815 6.09033 38.2911 6.50415 38.1153 6.88787C38.0073 7.11107 37.8767 7.32174 37.7209 7.51486L39.2178 9.18266C39.2354 9.16259 39.2555 9.14253 39.2731 9.12247C39.7151 8.64595 40.0567 8.11677 40.2953 7.52991C40.5515 6.93802 40.6796 6.30852 40.6796 5.64391C40.6796 4.93165 40.5339 4.2545 40.2426 3.61747C39.9537 2.96791 39.5519 2.40361 39.037 1.92459C38.5246 1.44808 37.9294 1.06937 37.2513 0.783466C36.5807 0.497557 35.8624 0.347079 35.0938 0.332031H27.2753C26.9588 0.332031 26.6826 0.449906 26.4565 0.663083C26.238 0.866229 26.125 1.11703 26.125 1.40293V17.7775H28.4256V10.9608H31.7384Z" fill="white"/>
</svg>
